# Blender v2.91.0 OBJ File: 'leaves.blend'
# www.blender.org
mtllib model_normalized.mtl
o Plane.005_Plane
v 0.032598 0.000000 0.322303
v 0.053205 0.000000 0.322303
v 0.008029 0.000000 -0.334366
v 0.020107 0.000000 -0.320910
v -0.002233 0.000000 -0.295425
v -0.025171 0.000000 -0.265148
v -0.054904 0.000000 -0.239969
v -0.089736 0.000000 -0.212241
v -0.140708 -0.004123 -0.170071
v -0.168743 0.000000 -0.131300
v -0.189131 0.000000 -0.098475
v -0.206122 -0.004189 -0.064800
v -0.214618 0.000000 -0.032825
v -0.214618 0.000000 0.000000
v -0.197627 0.000000 0.036223
v -0.175539 0.000000 0.068199
v -0.109275 0.000000 0.094227
v 0.001165 0.000000 0.110061
v 0.002015 0.000000 0.162426
v 0.006262 0.000000 0.201197
v 0.009660 0.000000 0.239120
v 0.019005 0.000000 0.263449
v 0.028350 0.000000 0.291177
v 0.044710 0.000000 0.291177
v 0.037914 0.000000 0.261750
v 0.031117 0.000000 0.237420
v 0.024321 0.000000 0.198649
v 0.020923 0.000000 0.163275
v 0.018374 0.000000 0.110061
v 0.151752 0.000000 0.090829
v 0.203574 0.000000 0.065650
v 0.213768 0.000000 0.030276
v 0.218865 0.000000 -0.003398
v 0.216317 0.000000 -0.037073
v 0.210370 -0.004189 -0.065650
v 0.194229 0.000000 -0.093378
v 0.183185 0.000000 -0.127052
v 0.165684 -0.004123 -0.166571
v 0.127761 0.000000 -0.200620
v 0.087391 0.000000 -0.232221
v 0.058031 0.000000 -0.269940
v 0.032341 0.000000 -0.295425
v 0.042902 0.000000 0.322303
v 0.014068 0.000000 -0.327638
v 0.036530 -0.005779 0.291177
v 0.028460 -0.005779 0.262600
v 0.020389 -0.005779 0.238270
v 0.015292 -0.005779 0.199923
v 0.011469 -0.005779 0.162850
v 0.009770 -0.005779 0.110061
v 0.021238 -0.009969 0.092528
v 0.014017 -0.005779 0.066924
v 0.008071 -0.005779 0.033250
v 0.002124 -0.009902 -0.001699
v 0.000850 -0.005779 -0.034949
v 0.002124 -0.005779 -0.065225
v 0.002549 -0.005779 -0.095926
v 0.007221 -0.005779 -0.129176
v 0.012488 -0.005779 -0.168321
v 0.019013 -0.005779 -0.206431
v 0.016243 -0.005779 -0.236095
v 0.016430 -0.005779 -0.267544
v 0.015054 -0.005779 -0.295425
v -0.015486 -0.009069 0.067123
v -0.062987 -0.007972 0.034277
v -0.113725 -0.006880 -0.000791
v -0.160770 -0.005634 -0.033356
v 0.052098 -0.008808 0.066668
v 0.093541 -0.007567 0.032014
v 0.135133 -0.006422 -0.002742
v 0.175730 -0.005278 -0.036673
v -0.025829 -0.009878 -0.034686
v -0.051626 -0.009492 -0.065115
v -0.078704 -0.007452 -0.097007
v -0.107169 -0.006145 -0.130557
v 0.035431 -0.009803 -0.035290
v 0.065246 -0.009420 -0.065354
v 0.094383 -0.007133 -0.094705
v 0.127143 -0.005963 -0.127729
v 0.031938 -0.001872 0.323024
v 0.053881 -0.001918 0.322395
v 0.007556 -0.001942 -0.334926
v 0.020730 -0.001866 -0.321736
v -0.002685 -0.001957 -0.295867
v -0.025444 -0.001996 -0.265453
v -0.055061 -0.002013 -0.240171
v -0.089809 -0.002010 -0.212582
v -0.140857 -0.006139 -0.170057
v -0.168933 -0.002014 -0.131297
v -0.189259 -0.002007 -0.098826
v -0.206292 -0.006203 -0.064653
v -0.214821 -0.002001 -0.032476
v -0.214785 -0.002011 0.000217
v -0.197766 -0.002012 0.036458
v -0.175670 -0.002011 0.068470
v -0.109422 -0.001978 0.094871
v 0.000542 -0.001762 0.111357
v 0.000821 -0.001677 0.162599
v 0.005113 -0.001698 0.201490
v 0.008566 -0.001707 0.239656
v 0.017907 -0.001653 0.264317
v 0.027384 -0.001736 0.291979
v 0.045610 -0.001830 0.290937
v 0.039050 -0.001655 0.261018
v 0.032203 -0.001703 0.236812
v 0.025464 -0.001698 0.198307
v 0.022115 -0.001677 0.163075
v 0.019030 -0.001701 0.111525
v 0.151906 -0.001990 0.091360
v 0.203713 -0.002014 0.065835
v 0.213917 -0.002015 0.030430
v 0.219052 -0.002011 -0.003221
v 0.216564 -0.001995 -0.036698
v 0.210569 -0.006200 -0.065493
v 0.194368 -0.002006 -0.093722
v 0.183390 -0.002011 -0.126920
v 0.165841 -0.006138 -0.166490
v 0.127842 -0.002008 -0.200974
v 0.087558 -0.002010 -0.232467
v 0.058304 -0.001998 -0.270227
v 0.032822 -0.001936 -0.296021
v 0.043041 -0.002005 0.322670
v 0.013914 -0.001975 -0.328295
v 0.036626 -0.007796 0.291371
v 0.028475 -0.007801 0.262657
v 0.020301 -0.007799 0.238368
v 0.015276 -0.007801 0.199902
v 0.011429 -0.007801 0.162857
v 0.009711 -0.007654 0.111289
v 0.021279 -0.011903 0.093483
v 0.014058 -0.007770 0.066352
v 0.008091 -0.007801 0.033239
v 0.002127 -0.011923 -0.001759
v 0.000888 -0.007782 -0.035396
v 0.002135 -0.007795 -0.065485
v 0.002556 -0.007798 -0.096124
v 0.007222 -0.007800 -0.129295
v 0.012487 -0.007796 -0.168566
v 0.019030 -0.007793 -0.206727
v 0.016240 -0.007796 -0.236331
v 0.016435 -0.007789 -0.267899
v 0.015084 -0.007769 -0.296006
v -0.015488 -0.011090 0.067185
v -0.063048 -0.009989 0.034480
v -0.113828 -0.008896 -0.000628
v -0.160902 -0.007649 -0.033205
v 0.052121 -0.010829 0.066726
v 0.093612 -0.009585 0.032176
v 0.135245 -0.008439 -0.002608
v 0.175882 -0.007292 -0.036509
v -0.025741 -0.011896 -0.034820
v -0.051607 -0.011511 -0.065276
v -0.078746 -0.009467 -0.097273
v -0.107265 -0.008164 -0.130623
v 0.035369 -0.011822 -0.035413
v 0.065243 -0.011439 -0.065516
v 0.094434 -0.009147 -0.094992
v 0.127247 -0.007983 -0.127734
vt 0.075347 0.787722
vt 0.045939 0.751726
vt 0.031530 0.805092
vt 0.032410 0.825054
vt 0.872025 0.056056
vt 0.854844 0.034514
vt 0.826498 0.086216
vt 0.840720 0.103172
vt 0.797639 0.132513
vt 0.815146 0.151207
vt 0.775742 0.173252
vt 0.795374 0.194610
vt 0.734120 0.229739
vt 0.751499 0.247082
vt 0.691473 0.275416
vt 0.707240 0.295500
vt 0.623042 0.338771
vt 0.637973 0.356615
vt 0.374375 0.080888
vt 0.595325 0.351650
vt 0.253575 0.000000
vt 0.508432 0.315359
vt 0.188263 0.017259
vt 0.391873 0.266534
vt 0.133771 0.043322
vt 0.274934 0.217504
vt 0.092028 0.085370
vt 0.160782 0.169655
vt 0.063335 0.128859
vt 0.306253 0.431816
vt 0.051956 0.192946
vt 0.217351 0.402963
vt 0.024379 0.252756
vt 0.117502 0.370509
vt 0.000000 0.332333
vt 0.253223 0.654489
vt 0.016316 0.448852
vt 0.190294 0.682403
vt 0.040469 0.567713
vt 0.154396 0.720541
vt 0.037910 0.670226
vt 0.111132 0.754443
vt 0.183188 0.838951
vt 0.103589 0.824010
vt 0.267157 0.873660
vt 0.363107 0.916246
vt 0.506112 0.976727
vt 0.504362 0.863469
vt 0.315471 0.622815
vt 0.502853 0.767340
vt 0.368675 0.596328
vt 0.501463 0.675900
vt 0.411315 0.563738
vt 0.500050 0.588776
vt 0.454791 0.533388
vt 0.498495 0.494363
vt 0.656005 0.591310
vt 0.535896 0.443925
vt 0.692602 0.735656
vt 0.621772 0.456157
vt 0.571973 0.394772
vt 0.651738 0.374750
vt 0.814264 0.622914
vt 0.721841 0.315874
vt 0.767713 0.264716
vt 0.813841 0.216260
vt 0.831488 0.170192
vt 0.853777 0.120420
vt 0.889206 0.077598
vt 0.033290 0.845017
vt 0.861222 0.945904
vt 0.726445 0.869555
vt 0.816389 0.981697
vt 0.882364 0.870882
vt 0.889206 0.789836
vt 0.758974 0.998697
vt 0.397068 0.461358
vt 0.684227 1.000000
vt 0.605397 0.993166
vt 0.075347 0.787722
vt 0.032410 0.825054
vt 0.031530 0.805092
vt 0.045939 0.751726
vt 0.872025 0.056056
vt 0.840720 0.103172
vt 0.826498 0.086216
vt 0.854844 0.034514
vt 0.815146 0.151207
vt 0.797639 0.132513
vt 0.795374 0.194610
vt 0.775742 0.173252
vt 0.751499 0.247082
vt 0.734120 0.229739
vt 0.707240 0.295500
vt 0.691473 0.275416
vt 0.637973 0.356615
vt 0.623042 0.338771
vt 0.595325 0.351650
vt 0.374375 0.080888
vt 0.508432 0.315359
vt 0.253575 0.000000
vt 0.391873 0.266534
vt 0.188263 0.017259
vt 0.274934 0.217504
vt 0.133771 0.043322
vt 0.160782 0.169655
vt 0.092028 0.085370
vt 0.063335 0.128859
vt 0.306253 0.431816
vt 0.217351 0.402963
vt 0.051956 0.192946
vt 0.117502 0.370509
vt 0.024379 0.252756
vt 0.000000 0.332333
vt 0.253223 0.654489
vt 0.190294 0.682403
vt 0.016316 0.448852
vt 0.154396 0.720541
vt 0.040469 0.567713
vt 0.111132 0.754443
vt 0.037910 0.670226
vt 0.183188 0.838951
vt 0.103589 0.824010
vt 0.267157 0.873660
vt 0.363107 0.916246
vt 0.506112 0.976727
vt 0.504362 0.863469
vt 0.315471 0.622815
vt 0.502853 0.767340
vt 0.368675 0.596328
vt 0.501463 0.675900
vt 0.411315 0.563738
vt 0.500050 0.588776
vt 0.454791 0.533388
vt 0.498495 0.494363
vt 0.656005 0.591310
vt 0.692602 0.735656
vt 0.535896 0.443925
vt 0.621772 0.456157
vt 0.571973 0.394772
vt 0.651738 0.374750
vt 0.814264 0.622914
vt 0.721841 0.315874
vt 0.767713 0.264716
vt 0.813841 0.216260
vt 0.831488 0.170192
vt 0.853777 0.120420
vt 0.889206 0.077598
vt 0.033290 0.845017
vt 0.861222 0.945904
vt 0.816389 0.981697
vt 0.726445 0.869555
vt 0.882364 0.870882
vt 0.889206 0.789836
vt 0.758974 0.998697
vt 0.397068 0.461358
vt 0.684227 1.000000
vt 0.605397 0.993166
vn -0.2804 0.9466 0.1591
vn -0.2984 0.9543 -0.0173
vn -0.5383 0.8314 0.1380
vn -0.4822 0.8636 0.1473
vn -0.4973 0.8642 0.0767
vn -0.5277 0.8478 0.0526
vn -0.5393 0.8418 0.0216
vn -0.1032 0.8573 -0.5043
vn -0.0670 0.9940 -0.0860
vn -0.0604 0.9978 -0.0269
vn -0.0687 0.9972 -0.0302
vn -0.0939 0.9949 -0.0360
vn -0.1292 0.9846 -0.1175
vn -0.0506 0.9936 0.1012
vn -0.0836 0.9965 -0.0097
vn -0.1050 0.9928 -0.0571
vn -0.0303 0.9971 0.0702
vn -0.0666 0.9967 0.0469
vn -0.1025 0.9938 0.0432
vn -0.1880 0.9775 0.0954
vn 0.1949 0.9781 0.0723
vn 0.1011 0.9934 0.0534
vn 0.0622 0.9975 0.0348
vn 0.0263 0.9972 0.0700
vn 0.0045 0.9997 0.0241
vn -0.0107 0.9997 0.0234
vn -0.0402 0.9980 0.0496
vn -0.0964 0.9943 0.0452
vn -0.1494 0.9806 0.1273
vn 0.0040 0.9989 -0.0464
vn -0.0536 0.9968 0.0595
vn -0.1075 0.9759 0.1900
vn 0.0980 0.9092 -0.4047
vn 0.5393 0.8420 -0.0131
vn 0.5275 0.8477 -0.0561
vn 0.4997 0.8644 -0.0557
vn 0.4787 0.8611 -0.1713
vn 0.5351 0.8284 -0.1655
vn 0.2956 0.9453 -0.1382
vn 0.2101 0.9719 0.1063
vn 0.0802 0.9960 -0.0387
vn 0.0624 0.9971 -0.0440
vn 0.0572 0.9974 -0.0445
vn 0.0639 0.9918 -0.1107
vn 0.1025 0.9894 -0.1024
vn -0.0294 0.9995 -0.0138
vn -0.0082 0.9989 -0.0469
vn 0.0394 0.9985 0.0386
vn 0.0794 0.9871 0.1391
vn -0.0342 0.9993 -0.0125
vn 0.0787 0.9968 0.0101
vn 0.0475 0.9951 0.0872
vn 0.0329 0.9994 -0.0083
vn 0.0288 0.9995 -0.0136
vn 0.0997 0.9945 -0.0337
vn 0.0070 0.9997 0.0216
vn 0.0318 0.9981 0.0537
vn 0.0783 0.9958 0.0467
vn 0.1159 0.9862 0.1178
vn -0.0056 0.9998 0.0204
vn 0.2719 -0.9493 -0.1581
vn 0.2926 -0.9561 0.0184
vn 0.5119 -0.8490 -0.1309
vn 0.4580 -0.8777 -0.1410
vn 0.4742 -0.8774 -0.0725
vn 0.5023 -0.8632 -0.0503
vn 0.5171 -0.8556 -0.0251
vn 0.1042 -0.8601 0.4993
vn 0.0669 -0.9941 0.0858
vn 0.0604 -0.9978 0.0269
vn 0.0687 -0.9972 0.0302
vn 0.0939 -0.9949 0.0360
vn 0.1288 -0.9847 0.1170
vn 0.0507 -0.9937 -0.1003
vn 0.0836 -0.9964 0.0102
vn 0.1048 -0.9929 0.0571
vn 0.0304 -0.9971 -0.0699
vn 0.0665 -0.9967 -0.0468
vn 0.1022 -0.9938 -0.0431
vn 0.1870 -0.9778 -0.0946
vn -0.1935 -0.9785 -0.0718
vn -0.1010 -0.9935 -0.0533
vn -0.0622 -0.9975 -0.0346
vn -0.0263 -0.9972 -0.0699
vn -0.0046 -0.9997 -0.0241
vn 0.0107 -0.9997 -0.0234
vn 0.0401 -0.9980 -0.0496
vn 0.0964 -0.9943 -0.0453
vn 0.1488 -0.9808 -0.1262
vn -0.0039 -0.9989 0.0463
vn 0.0533 -0.9968 -0.0596
vn 0.1050 -0.9786 -0.1770
vn -0.0988 -0.9104 0.4019
vn -0.5193 -0.8546 0.0096
vn -0.5040 -0.8620 0.0538
vn -0.4805 -0.8754 0.0531
vn -0.4577 -0.8737 0.1647
vn -0.5051 -0.8487 0.1567
vn -0.2826 -0.9496 0.1359
vn -0.2072 -0.9726 -0.1055
vn -0.0802 -0.9960 0.0387
vn -0.0624 -0.9971 0.0440
vn -0.0572 -0.9974 0.0446
vn -0.0638 -0.9919 0.1100
vn -0.1023 -0.9895 0.1021
vn 0.0294 -0.9995 0.0137
vn 0.0082 -0.9989 0.0468
vn -0.0393 -0.9985 -0.0385
vn -0.0782 -0.9885 -0.1298
vn 0.0342 -0.9993 0.0124
vn -0.0787 -0.9969 -0.0098
vn -0.0476 -0.9951 -0.0866
vn -0.0329 -0.9994 0.0083
vn -0.0288 -0.9995 0.0135
vn -0.0996 -0.9945 0.0337
vn -0.0070 -0.9997 -0.0216
vn -0.0318 -0.9981 -0.0537
vn -0.0784 -0.9958 -0.0467
vn -0.1156 -0.9864 -0.1172
vn 0.0057 -0.9998 -0.0205
vn -0.8834 0.4513 0.1261
vn 0.0125 0.1188 0.9928
vn 0.8321 0.3894 -0.3948
vn 0.7299 0.0935 -0.6771
vn -0.9277 0.2828 -0.2438
vn -0.7732 0.2519 -0.5820
vn -0.6390 0.1636 -0.7516
vn -0.6162 0.1399 -0.7751
vn -0.6404 0.0973 -0.7619
vn -0.8050 0.0655 -0.5896
vn -0.8432 0.1123 -0.5258
vn -0.8947 0.0885 -0.4378
vn -0.9631 0.0572 -0.2631
vn -0.9958 0.0920 0.0006
vn -0.8992 0.1156 0.4220
vn -0.8164 0.1258 0.5637
vn -0.3579 0.2326 0.9043
vn -0.1280 0.4773 0.8694
vn -0.8825 0.4703 0.0092
vn -0.8123 0.5764 0.0895
vn -0.8243 0.5613 0.0743
vn -0.7446 0.6044 0.2833
vn -0.7624 0.5925 0.2600
vn 0.8919 0.3844 -0.2384
vn 0.8253 0.5338 -0.1842
vn 0.7717 0.5976 -0.2175
vn 0.8094 0.5700 -0.1417
vn 0.8140 0.5757 -0.0776
vn 0.8837 0.4657 -0.0476
vn 0.1279 0.4931 0.8605
vn 0.4316 0.1894 0.8820
vn 0.9568 0.0917 0.2758
vn 0.9842 0.0943 0.1496
vn 0.9925 0.0971 -0.0744
vn 0.9735 0.0800 -0.2143
vn 0.8680 0.0960 -0.4873
vn 0.9453 0.0977 -0.3113
vn 0.9102 0.0602 -0.4097
vn 0.6727 0.0896 -0.7345
vn 0.6088 0.1538 -0.7783
vn 0.7789 0.1660 -0.6048
vn 0.6792 0.2823 -0.6775
vn 0.0176 0.2682 0.9632
vn 0.6755 0.3359 -0.6563
usemtl None
s off
f 63/1/1 42/2/1 4/3/1 44/4/1
f 43/5/2 2/6/2 24/7/2 45/8/2
f 45/8/3 24/7/3 25/9/3 46/10/3
f 46/10/4 25/9/4 26/11/4 47/12/4
f 47/12/5 26/11/5 27/13/5 48/14/5
f 48/14/6 27/13/6 28/15/6 49/16/6
f 49/16/7 28/15/7 29/17/7 50/18/7
f 50/18/8 29/17/8 30/19/8 51/20/8
f 51/20/9 30/19/9 31/21/9 68/22/9
f 68/22/10 31/21/10 32/23/10 69/24/10
f 69/24/11 32/23/11 33/25/11 70/26/11
f 70/26/12 33/25/12 34/27/12 71/28/12
f 71/28/13 34/27/13 35/29/13
f 77/30/14 35/29/14 36/31/14 78/32/14
f 78/32/15 36/31/15 37/33/15 79/34/15
f 79/34/16 37/33/16 38/35/16
f 59/36/17 38/35/17 39/37/17 60/38/17
f 60/38/18 39/37/18 40/39/18 61/40/18
f 61/40/19 40/39/19 41/41/19 62/42/19
f 62/42/20 41/41/20 42/2/20 63/1/20
f 6/43/21 62/42/21 63/1/21 5/44/21
f 7/45/22 61/40/22 62/42/22 6/43/22
f 8/46/23 60/38/23 61/40/23 7/45/23
f 9/47/24 59/36/24 60/38/24 8/46/24
f 75/48/25 58/49/25 59/36/25 9/47/25
f 74/50/26 57/51/26 58/49/26 75/48/26
f 73/52/27 56/53/27 57/51/27 74/50/27
f 72/54/28 55/55/28 56/53/28 73/52/28
f 54/56/29 55/55/29 72/54/29
f 65/57/30 53/58/30 54/56/30 66/59/30
f 64/60/31 52/61/31 53/58/31 65/57/31
f 51/20/32 52/61/32 64/60/32
f 18/62/33 50/18/33 51/20/33 17/63/33
f 19/64/34 49/16/34 50/18/34 18/62/34
f 20/65/35 48/14/35 49/16/35 19/64/35
f 21/66/36 47/12/36 48/14/36 20/65/36
f 22/67/37 46/10/37 47/12/37 21/66/37
f 23/68/38 45/8/38 46/10/38 22/67/38
f 1/69/39 43/5/39 45/8/39 23/68/39
f 5/44/40 63/1/40 44/4/40 3/70/40
f 14/71/41 66/59/41 67/72/41 13/73/41
f 15/74/42 65/57/42 66/59/42 14/71/42
f 16/75/43 64/60/43 65/57/43 15/74/43
f 17/63/44 51/20/44 64/60/44 16/75/44
f 13/73/45 67/72/45 12/76/45
f 54/56/46 70/26/46 71/28/46 76/77/46
f 53/58/47 69/24/47 70/26/47 54/56/47
f 52/61/48 68/22/48 69/24/48 53/58/48
f 52/61/49 51/20/49 68/22/49
f 76/77/50 71/28/50 35/29/50 77/30/50
f 11/78/51 74/50/51 75/48/51 10/79/51
f 12/76/52 73/52/52 74/50/52 11/78/52
f 67/72/53 72/54/53 73/52/53 12/76/53
f 66/59/54 54/56/54 72/54/54 67/72/54
f 10/79/55 75/48/55 9/47/55
f 57/51/56 78/32/56 79/34/56 58/49/56
f 56/53/57 77/30/57 78/32/57 57/51/57
f 55/55/58 76/77/58 77/30/58 56/53/58
f 55/55/59 54/56/59 76/77/59
f 58/49/60 79/34/60 38/35/60 59/36/60
f 142/80/61 123/81/61 83/82/61 121/83/61
f 122/84/62 124/85/62 103/86/62 81/87/62
f 124/85/63 125/88/63 104/89/63 103/86/63
f 125/88/64 126/90/64 105/91/64 104/89/64
f 126/90/65 127/92/65 106/93/65 105/91/65
f 127/92/66 128/94/66 107/95/66 106/93/66
f 128/94/67 129/96/67 108/97/67 107/95/67
f 129/96/68 130/98/68 109/99/68 108/97/68
f 130/98/69 147/100/69 110/101/69 109/99/69
f 147/100/70 148/102/70 111/103/70 110/101/70
f 148/102/71 149/104/71 112/105/71 111/103/71
f 149/104/72 150/106/72 113/107/72 112/105/72
f 150/106/73 114/108/73 113/107/73
f 156/109/74 157/110/74 115/111/74 114/108/74
f 157/110/75 158/112/75 116/113/75 115/111/75
f 158/112/76 117/114/76 116/113/76
f 138/115/77 139/116/77 118/117/77 117/114/77
f 139/116/78 140/118/78 119/119/78 118/117/78
f 140/118/79 141/120/79 120/121/79 119/119/79
f 141/120/80 142/80/80 121/83/80 120/121/80
f 85/122/81 84/123/81 142/80/81 141/120/81
f 86/124/82 85/122/82 141/120/82 140/118/82
f 87/125/83 86/124/83 140/118/83 139/116/83
f 88/126/84 87/125/84 139/116/84 138/115/84
f 154/127/85 88/126/85 138/115/85 137/128/85
f 153/129/86 154/127/86 137/128/86 136/130/86
f 152/131/87 153/129/87 136/130/87 135/132/87
f 151/133/88 152/131/88 135/132/88 134/134/88
f 133/135/89 151/133/89 134/134/89
f 144/136/90 145/137/90 133/135/90 132/138/90
f 143/139/91 144/136/91 132/138/91 131/140/91
f 130/98/92 143/139/92 131/140/92
f 97/141/93 96/142/93 130/98/93 129/96/93
f 98/143/94 97/141/94 129/96/94 128/94/94
f 99/144/95 98/143/95 128/94/95 127/92/95
f 100/145/96 99/144/96 127/92/96 126/90/96
f 101/146/97 100/145/97 126/90/97 125/88/97
f 102/147/98 101/146/98 125/88/98 124/85/98
f 80/148/99 102/147/99 124/85/99 122/84/99
f 84/123/100 82/149/100 123/81/100 142/80/100
f 93/150/101 92/151/101 146/152/101 145/137/101
f 94/153/102 93/150/102 145/137/102 144/136/102
f 95/154/103 94/153/103 144/136/103 143/139/103
f 96/142/104 95/154/104 143/139/104 130/98/104
f 92/151/105 91/155/105 146/152/105
f 133/135/106 155/156/106 150/106/106 149/104/106
f 132/138/107 133/135/107 149/104/107 148/102/107
f 131/140/108 132/138/108 148/102/108 147/100/108
f 131/140/109 147/100/109 130/98/109
f 155/156/110 156/109/110 114/108/110 150/106/110
f 90/157/111 89/158/111 154/127/111 153/129/111
f 91/155/112 90/157/112 153/129/112 152/131/112
f 146/152/113 91/155/113 152/131/113 151/133/113
f 145/137/114 146/152/114 151/133/114 133/135/114
f 89/158/115 88/126/115 154/127/115
f 136/130/116 137/128/116 158/112/116 157/110/116
f 135/132/117 136/130/117 157/110/117 156/109/117
f 134/134/118 135/132/118 156/109/118 155/156/118
f 134/134/119 155/156/119 133/135/119
f 137/128/120 138/115/120 117/114/120 158/112/120
f 1/69/121 23/68/121 102/147/121 80/148/121
f 2/6/122 43/5/122 122/84/122 81/87/122
f 4/3/123 42/2/123 121/83/123 83/82/123
f 3/70/124 44/4/124 123/81/124 82/149/124
f 5/44/125 3/70/125 82/149/125 84/123/125
f 6/43/126 5/44/126 84/123/126 85/122/126
f 7/45/127 6/43/127 85/122/127 86/124/127
f 8/46/128 7/45/128 86/124/128 87/125/128
f 9/47/129 8/46/129 87/125/129 88/126/129
f 10/79/130 9/47/130 88/126/130 89/158/130
f 11/78/131 10/79/131 89/158/131 90/157/131
f 12/76/132 11/78/132 90/157/132 91/155/132
f 13/73/133 12/76/133 91/155/133 92/151/133
f 14/71/134 13/73/134 92/151/134 93/150/134
f 15/74/135 14/71/135 93/150/135 94/153/135
f 16/75/136 15/74/136 94/153/136 95/154/136
f 17/63/137 16/75/137 95/154/137 96/142/137
f 18/62/138 17/63/138 96/142/138 97/141/138
f 19/64/139 18/62/139 97/141/139 98/143/139
f 20/65/140 19/64/140 98/143/140 99/144/140
f 21/66/141 20/65/141 99/144/141 100/145/141
f 22/67/142 21/66/142 100/145/142 101/146/142
f 23/68/143 22/67/143 101/146/143 102/147/143
f 24/7/144 2/6/144 81/87/144 103/86/144
f 25/9/145 24/7/145 103/86/145 104/89/145
f 26/11/146 25/9/146 104/89/146 105/91/146
f 27/13/147 26/11/147 105/91/147 106/93/147
f 28/15/148 27/13/148 106/93/148 107/95/148
f 29/17/149 28/15/149 107/95/149 108/97/149
f 30/19/150 29/17/150 108/97/150 109/99/150
f 31/21/151 30/19/151 109/99/151 110/101/151
f 32/23/152 31/21/152 110/101/152 111/103/152
f 33/25/153 32/23/153 111/103/153 112/105/153
f 34/27/154 33/25/154 112/105/154 113/107/154
f 35/29/155 34/27/155 113/107/155 114/108/155
f 36/31/156 35/29/156 114/108/156 115/111/156
f 37/33/157 36/31/157 115/111/157 116/113/157
f 38/35/158 37/33/158 116/113/158 117/114/158
f 39/37/159 38/35/159 117/114/159 118/117/159
f 40/39/160 39/37/160 118/117/160 119/119/160
f 41/41/161 40/39/161 119/119/161 120/121/161
f 42/2/162 41/41/162 120/121/162 121/83/162
f 43/5/163 1/69/163 80/148/163 122/84/163
f 44/4/164 4/3/164 83/82/164 123/81/164
