# Blender v2.91.0 OBJ File: 'leaves.blend'
# www.blender.org
mtllib model_normalized.mtl
o Plane.005_Plane
v 0.032598 0.000000 0.322303
v 0.053205 0.000000 0.322303
v 0.008029 0.000000 -0.334366
v 0.020107 0.000000 -0.320910
v -0.002233 0.000000 -0.295425
v -0.025171 0.000000 -0.265148
v -0.054904 0.000000 -0.239969
v -0.089736 0.000000 -0.212241
v -0.140708 -0.004123 -0.170071
v -0.168743 0.000000 -0.131300
v -0.189131 0.000000 -0.098475
v -0.206122 -0.004189 -0.064800
v -0.214618 0.000000 -0.032825
v -0.214618 0.000000 0.000000
v -0.197627 0.000000 0.036223
v -0.175539 0.000000 0.068199
v -0.109275 0.000000 0.094227
v 0.001165 0.000000 0.110061
v 0.002015 0.000000 0.162426
v 0.006262 0.000000 0.201197
v 0.009660 0.000000 0.239120
v 0.019005 0.000000 0.263449
v 0.028350 0.000000 0.291177
v 0.044710 0.000000 0.291177
v 0.037914 0.000000 0.261750
v 0.031117 0.000000 0.237420
v 0.024321 0.000000 0.198649
v 0.020923 0.000000 0.163275
v 0.018374 0.000000 0.110061
v 0.151752 0.000000 0.090829
v 0.203574 0.000000 0.065650
v 0.213768 0.000000 0.030276
v 0.218865 0.000000 -0.003398
v 0.216317 0.000000 -0.037073
v 0.210370 -0.004189 -0.065650
v 0.194229 0.000000 -0.093378
v 0.183185 0.000000 -0.127052
v 0.165684 -0.004123 -0.166571
v 0.127761 0.000000 -0.200620
v 0.087391 0.000000 -0.232221
v 0.058031 0.000000 -0.269940
v 0.032341 0.000000 -0.295425
v 0.042902 0.000000 0.322303
v 0.014068 0.000000 -0.327638
v 0.036530 -0.005779 0.291177
v 0.028460 -0.005779 0.262600
v 0.020389 -0.005779 0.238270
v 0.015292 -0.005779 0.199923
v 0.011469 -0.005779 0.162850
v 0.009770 -0.005779 0.110061
v 0.021238 -0.009969 0.092528
v 0.014017 -0.005779 0.066924
v 0.008071 -0.005779 0.033250
v 0.002124 -0.009902 -0.001699
v 0.000850 -0.005779 -0.034949
v 0.002124 -0.005779 -0.065225
v 0.002549 -0.005779 -0.095926
v 0.007221 -0.005779 -0.129176
v 0.012488 -0.005779 -0.168321
v 0.019013 -0.005779 -0.206431
v 0.016243 -0.005779 -0.236095
v 0.016430 -0.005779 -0.267544
v 0.015054 -0.005779 -0.295425
v -0.015486 -0.009069 0.067123
v -0.062987 -0.007972 0.034277
v -0.113725 -0.006880 -0.000791
v -0.160770 -0.005634 -0.033356
v 0.052098 -0.008808 0.066668
v 0.093541 -0.007567 0.032014
v 0.135133 -0.006422 -0.002742
v 0.175730 -0.005278 -0.036673
v -0.025829 -0.009878 -0.034686
v -0.051626 -0.009492 -0.065115
v -0.078704 -0.007452 -0.097007
v -0.107169 -0.006145 -0.130557
v 0.035431 -0.009803 -0.035290
v 0.065246 -0.009420 -0.065354
v 0.094383 -0.007133 -0.094705
v 0.127143 -0.005963 -0.127729
v 0.031938 -0.001872 0.323024
v 0.053881 -0.001918 0.322395
v 0.007556 -0.001942 -0.334926
v 0.020730 -0.001866 -0.321736
v -0.002685 -0.001957 -0.295867
v -0.025444 -0.001996 -0.265453
v -0.055061 -0.002013 -0.240171
v -0.089809 -0.002010 -0.212582
v -0.140857 -0.006139 -0.170057
v -0.168933 -0.002014 -0.131297
v -0.189259 -0.002007 -0.098826
v -0.206292 -0.006203 -0.064653
v -0.214821 -0.002001 -0.032476
v -0.214785 -0.002011 0.000217
v -0.197766 -0.002012 0.036458
v -0.175670 -0.002011 0.068470
v -0.109422 -0.001978 0.094871
v 0.000542 -0.001762 0.111357
v 0.000821 -0.001677 0.162599
v 0.005113 -0.001698 0.201490
v 0.008566 -0.001707 0.239656
v 0.017907 -0.001653 0.264317
v 0.027384 -0.001736 0.291979
v 0.045610 -0.001830 0.290937
v 0.039050 -0.001655 0.261018
v 0.032203 -0.001703 0.236812
v 0.025464 -0.001698 0.198307
v 0.022115 -0.001677 0.163075
v 0.019030 -0.001701 0.111525
v 0.151906 -0.001990 0.091360
v 0.203713 -0.002014 0.065835
v 0.213917 -0.002015 0.030430
v 0.219052 -0.002011 -0.003221
v 0.216564 -0.001995 -0.036698
v 0.210569 -0.006200 -0.065493
v 0.194368 -0.002006 -0.093722
v 0.183390 -0.002011 -0.126920
v 0.165841 -0.006138 -0.166490
v 0.127842 -0.002008 -0.200974
v 0.087558 -0.002010 -0.232467
v 0.058304 -0.001998 -0.270227
v 0.032822 -0.001936 -0.296021
v 0.043041 -0.002005 0.322670
v 0.013914 -0.001975 -0.328295
v 0.036626 -0.007796 0.291371
v 0.028475 -0.007801 0.262657
v 0.020301 -0.007799 0.238368
v 0.015276 -0.007801 0.199902
v 0.011429 -0.007801 0.162857
v 0.009711 -0.007654 0.111289
v 0.021279 -0.011903 0.093483
v 0.014058 -0.007770 0.066352
v 0.008091 -0.007801 0.033239
v 0.002127 -0.011923 -0.001759
v 0.000888 -0.007782 -0.035396
v 0.002135 -0.007795 -0.065485
v 0.002556 -0.007798 -0.096124
v 0.007222 -0.007800 -0.129295
v 0.012487 -0.007796 -0.168566
v 0.019030 -0.007793 -0.206727
v 0.016240 -0.007796 -0.236331
v 0.016435 -0.007789 -0.267899
v 0.015084 -0.007769 -0.296006
v -0.015488 -0.011090 0.067185
v -0.063048 -0.009989 0.034480
v -0.113828 -0.008896 -0.000628
v -0.160902 -0.007649 -0.033205
v 0.052121 -0.010829 0.066726
v 0.093612 -0.009585 0.032176
v 0.135245 -0.008439 -0.002608
v 0.175882 -0.007292 -0.036509
v -0.025741 -0.011896 -0.034820
v -0.051607 -0.011511 -0.065276
v -0.078746 -0.009467 -0.097273
v -0.107265 -0.008164 -0.130623
v 0.035369 -0.011822 -0.035413
v 0.065243 -0.011439 -0.065516
v 0.094434 -0.009147 -0.094992
v 0.127247 -0.007983 -0.127734
vt 0.075347 0.787722
vt 0.045939 0.751726
vt 0.031530 0.805092
vt 0.032410 0.825054
vt 0.637973 0.356615
vt 0.623042 0.338771
vt 0.374375 0.080888
vt 0.595325 0.351650
vt 0.253575 0.000000
vt 0.508432 0.315359
vt 0.188263 0.017259
vt 0.391873 0.266534
vt 0.133771 0.043322
vt 0.274934 0.217504
vt 0.092028 0.085370
vt 0.160782 0.169655
vt 0.063335 0.128859
vt 0.306253 0.431816
vt 0.051956 0.192946
vt 0.217351 0.402963
vt 0.024379 0.252756
vt 0.117502 0.370509
vt 0.000000 0.332333
vt 0.253223 0.654489
vt 0.016316 0.448852
vt 0.190294 0.682403
vt 0.040469 0.567713
vt 0.154396 0.720541
vt 0.037910 0.670226
vt 0.111132 0.754443
vt 0.183188 0.838951
vt 0.103589 0.824010
vt 0.267157 0.873660
vt 0.363107 0.916246
vt 0.506112 0.976727
vt 0.504362 0.863469
vt 0.315471 0.622815
vt 0.502853 0.767340
vt 0.368675 0.596328
vt 0.501463 0.675900
vt 0.411315 0.563738
vt 0.500050 0.588776
vt 0.454791 0.533388
vt 0.498495 0.494363
vt 0.656005 0.591310
vt 0.535896 0.443925
vt 0.692602 0.735656
vt 0.621772 0.456157
vt 0.571973 0.394772
vt 0.651738 0.374750
vt 0.814264 0.622914
vt 0.033290 0.845017
vt 0.861222 0.945904
vt 0.726445 0.869555
vt 0.816389 0.981697
vt 0.882364 0.870882
vt 0.889206 0.789836
vt 0.758974 0.998697
vt 0.397068 0.461358
vt 0.684227 1.000000
vt 0.605397 0.993166
vt 0.075347 0.787722
vt 0.032410 0.825054
vt 0.031530 0.805092
vt 0.045939 0.751726
vt 0.637973 0.356615
vt 0.595325 0.351650
vt 0.374375 0.080888
vt 0.623042 0.338771
vt 0.508432 0.315359
vt 0.253575 0.000000
vt 0.391873 0.266534
vt 0.188263 0.017259
vt 0.274934 0.217504
vt 0.133771 0.043322
vt 0.160782 0.169655
vt 0.092028 0.085370
vt 0.063335 0.128859
vt 0.306253 0.431816
vt 0.217351 0.402963
vt 0.051956 0.192946
vt 0.117502 0.370509
vt 0.024379 0.252756
vt 0.000000 0.332333
vt 0.253223 0.654489
vt 0.190294 0.682403
vt 0.016316 0.448852
vt 0.154396 0.720541
vt 0.040469 0.567713
vt 0.111132 0.754443
vt 0.037910 0.670226
vt 0.183188 0.838951
vt 0.103589 0.824010
vt 0.267157 0.873660
vt 0.363107 0.916246
vt 0.506112 0.976727
vt 0.504362 0.863469
vt 0.315471 0.622815
vt 0.502853 0.767340
vt 0.368675 0.596328
vt 0.501463 0.675900
vt 0.411315 0.563738
vt 0.500050 0.588776
vt 0.454791 0.533388
vt 0.498495 0.494363
vt 0.656005 0.591310
vt 0.692602 0.735656
vt 0.535896 0.443925
vt 0.621772 0.456157
vt 0.571973 0.394772
vt 0.651738 0.374750
vt 0.814264 0.622914
vt 0.033290 0.845017
vt 0.861222 0.945904
vt 0.816389 0.981697
vt 0.726445 0.869555
vt 0.882364 0.870882
vt 0.889206 0.789836
vt 0.758974 0.998697
vt 0.397068 0.461358
vt 0.684227 1.000000
vt 0.605397 0.993166
vt 0.872025 0.056056
vt 0.854844 0.034514
vt 0.826498 0.086216
vt 0.840720 0.103172
vt 0.797639 0.132513
vt 0.815146 0.151207
vt 0.775742 0.173252
vt 0.795374 0.194610
vt 0.734120 0.229739
vt 0.751499 0.247082
vt 0.691473 0.275416
vt 0.707240 0.295500
vt 0.721841 0.315874
vt 0.767713 0.264716
vt 0.813841 0.216260
vt 0.831488 0.170192
vt 0.853777 0.120420
vt 0.889206 0.077598
vt 0.872025 0.056056
vt 0.840720 0.103172
vt 0.826498 0.086216
vt 0.854844 0.034514
vt 0.815146 0.151207
vt 0.797639 0.132513
vt 0.795374 0.194610
vt 0.775742 0.173252
vt 0.751499 0.247082
vt 0.734120 0.229739
vt 0.707240 0.295500
vt 0.691473 0.275416
vt 0.721841 0.315874
vt 0.767713 0.264716
vt 0.813841 0.216260
vt 0.831488 0.170192
vt 0.853777 0.120420
vt 0.889206 0.077598
vn -0.2804 0.9466 0.1591
vn -0.1032 0.8573 -0.5043
vn -0.0670 0.9940 -0.0860
vn -0.0604 0.9978 -0.0269
vn -0.0687 0.9972 -0.0302
vn -0.0939 0.9949 -0.0360
vn -0.1292 0.9846 -0.1175
vn -0.0506 0.9936 0.1012
vn -0.0836 0.9965 -0.0097
vn -0.1050 0.9928 -0.0571
vn -0.0303 0.9971 0.0702
vn -0.0666 0.9967 0.0469
vn -0.1025 0.9938 0.0432
vn -0.1880 0.9775 0.0954
vn 0.1949 0.9781 0.0723
vn 0.1011 0.9934 0.0534
vn 0.0622 0.9975 0.0348
vn 0.0263 0.9972 0.0700
vn 0.0045 0.9997 0.0241
vn -0.0107 0.9997 0.0234
vn -0.0402 0.9980 0.0496
vn -0.0964 0.9943 0.0452
vn -0.1494 0.9806 0.1273
vn 0.0040 0.9989 -0.0464
vn -0.0536 0.9968 0.0595
vn -0.1075 0.9759 0.1900
vn 0.0980 0.9092 -0.4047
vn 0.2101 0.9719 0.1063
vn 0.0802 0.9960 -0.0387
vn 0.0624 0.9971 -0.0440
vn 0.0572 0.9974 -0.0445
vn 0.0639 0.9918 -0.1107
vn 0.1025 0.9894 -0.1024
vn -0.0294 0.9995 -0.0138
vn -0.0082 0.9989 -0.0469
vn 0.0394 0.9985 0.0386
vn 0.0794 0.9871 0.1391
vn -0.0342 0.9993 -0.0125
vn 0.0787 0.9968 0.0101
vn 0.0475 0.9951 0.0872
vn 0.0329 0.9994 -0.0083
vn 0.0288 0.9995 -0.0136
vn 0.0997 0.9945 -0.0337
vn 0.0070 0.9997 0.0216
vn 0.0318 0.9981 0.0537
vn 0.0783 0.9958 0.0467
vn 0.1159 0.9862 0.1178
vn -0.0056 0.9998 0.0204
vn 0.2719 -0.9493 -0.1581
vn 0.1042 -0.8601 0.4993
vn 0.0669 -0.9941 0.0858
vn 0.0604 -0.9978 0.0269
vn 0.0687 -0.9972 0.0302
vn 0.0939 -0.9949 0.0360
vn 0.1288 -0.9847 0.1170
vn 0.0507 -0.9937 -0.1003
vn 0.0836 -0.9964 0.0102
vn 0.1048 -0.9929 0.0571
vn 0.0304 -0.9971 -0.0699
vn 0.0665 -0.9967 -0.0468
vn 0.1022 -0.9938 -0.0431
vn 0.1870 -0.9778 -0.0946
vn -0.1935 -0.9785 -0.0718
vn -0.1010 -0.9935 -0.0533
vn -0.0622 -0.9975 -0.0346
vn -0.0263 -0.9972 -0.0699
vn -0.0046 -0.9997 -0.0241
vn 0.0107 -0.9997 -0.0234
vn 0.0401 -0.9980 -0.0496
vn 0.0964 -0.9943 -0.0453
vn 0.1488 -0.9808 -0.1262
vn -0.0039 -0.9989 0.0463
vn 0.0533 -0.9968 -0.0596
vn 0.1050 -0.9786 -0.1770
vn -0.0988 -0.9104 0.4019
vn -0.2072 -0.9726 -0.1055
vn -0.0802 -0.9960 0.0387
vn -0.0624 -0.9971 0.0440
vn -0.0572 -0.9974 0.0446
vn -0.0638 -0.9919 0.1100
vn -0.1023 -0.9895 0.1021
vn 0.0294 -0.9995 0.0137
vn 0.0082 -0.9989 0.0468
vn -0.0393 -0.9985 -0.0385
vn -0.0782 -0.9885 -0.1298
vn 0.0342 -0.9993 0.0124
vn -0.0787 -0.9969 -0.0098
vn -0.0476 -0.9951 -0.0866
vn -0.0329 -0.9994 0.0083
vn -0.0288 -0.9995 0.0135
vn -0.0996 -0.9945 0.0337
vn -0.0070 -0.9997 -0.0216
vn -0.0318 -0.9981 -0.0537
vn -0.0784 -0.9958 -0.0467
vn -0.1156 -0.9864 -0.1172
vn 0.0057 -0.9998 -0.0205
vn 0.8321 0.3894 -0.3948
vn 0.7299 0.0935 -0.6771
vn -0.9277 0.2828 -0.2438
vn -0.7732 0.2519 -0.5820
vn -0.6390 0.1636 -0.7516
vn -0.6162 0.1399 -0.7751
vn -0.6404 0.0973 -0.7619
vn -0.8050 0.0655 -0.5896
vn -0.8432 0.1123 -0.5258
vn -0.8947 0.0885 -0.4378
vn -0.9631 0.0572 -0.2631
vn -0.9958 0.0920 0.0006
vn -0.8992 0.1156 0.4220
vn -0.8164 0.1258 0.5637
vn -0.3579 0.2326 0.9043
vn -0.1280 0.4773 0.8694
vn 0.1279 0.4931 0.8605
vn 0.4316 0.1894 0.8820
vn 0.9568 0.0917 0.2758
vn 0.9842 0.0943 0.1496
vn 0.9925 0.0971 -0.0744
vn 0.9735 0.0800 -0.2143
vn 0.8680 0.0960 -0.4873
vn 0.9453 0.0977 -0.3113
vn 0.9102 0.0602 -0.4097
vn 0.6727 0.0896 -0.7345
vn 0.6088 0.1538 -0.7783
vn 0.7789 0.1660 -0.6048
vn 0.6792 0.2823 -0.6775
vn 0.6755 0.3359 -0.6563
vn -0.2984 0.9543 -0.0173
vn -0.5383 0.8314 0.1380
vn -0.4822 0.8636 0.1473
vn -0.4973 0.8642 0.0767
vn -0.5277 0.8478 0.0526
vn -0.5393 0.8418 0.0216
vn 0.5393 0.8420 -0.0131
vn 0.5275 0.8477 -0.0561
vn 0.4997 0.8644 -0.0557
vn 0.4787 0.8611 -0.1713
vn 0.5351 0.8284 -0.1655
vn 0.2956 0.9453 -0.1382
vn 0.2926 -0.9561 0.0184
vn 0.5119 -0.8490 -0.1309
vn 0.4580 -0.8777 -0.1410
vn 0.4742 -0.8774 -0.0725
vn 0.5023 -0.8632 -0.0503
vn 0.5171 -0.8556 -0.0251
vn -0.5193 -0.8546 0.0096
vn -0.5040 -0.8620 0.0538
vn -0.4805 -0.8754 0.0531
vn -0.4577 -0.8737 0.1647
vn -0.5051 -0.8487 0.1567
vn -0.2826 -0.9496 0.1359
vn -0.8834 0.4513 0.1261
vn 0.0125 0.1188 0.9928
vn -0.8825 0.4703 0.0092
vn -0.8123 0.5764 0.0895
vn -0.8243 0.5613 0.0743
vn -0.7446 0.6044 0.2833
vn -0.7624 0.5925 0.2600
vn 0.8919 0.3844 -0.2384
vn 0.8253 0.5338 -0.1842
vn 0.7717 0.5976 -0.2175
vn 0.8094 0.5700 -0.1417
vn 0.8140 0.5757 -0.0776
vn 0.8837 0.4657 -0.0476
vn 0.0176 0.2682 0.9632
usemtl Material
s off
f 63/1/1 42/2/1 4/3/1 44/4/1
f 50/5/2 29/6/2 30/7/2 51/8/2
f 51/8/3 30/7/3 31/9/3 68/10/3
f 68/10/4 31/9/4 32/11/4 69/12/4
f 69/12/5 32/11/5 33/13/5 70/14/5
f 70/14/6 33/13/6 34/15/6 71/16/6
f 71/16/7 34/15/7 35/17/7
f 77/18/8 35/17/8 36/19/8 78/20/8
f 78/20/9 36/19/9 37/21/9 79/22/9
f 79/22/10 37/21/10 38/23/10
f 59/24/11 38/23/11 39/25/11 60/26/11
f 60/26/12 39/25/12 40/27/12 61/28/12
f 61/28/13 40/27/13 41/29/13 62/30/13
f 62/30/14 41/29/14 42/2/14 63/1/14
f 6/31/15 62/30/15 63/1/15 5/32/15
f 7/33/16 61/28/16 62/30/16 6/31/16
f 8/34/17 60/26/17 61/28/17 7/33/17
f 9/35/18 59/24/18 60/26/18 8/34/18
f 75/36/19 58/37/19 59/24/19 9/35/19
f 74/38/20 57/39/20 58/37/20 75/36/20
f 73/40/21 56/41/21 57/39/21 74/38/21
f 72/42/22 55/43/22 56/41/22 73/40/22
f 54/44/23 55/43/23 72/42/23
f 65/45/24 53/46/24 54/44/24 66/47/24
f 64/48/25 52/49/25 53/46/25 65/45/25
f 51/8/26 52/49/26 64/48/26
f 18/50/27 50/5/27 51/8/27 17/51/27
f 5/32/28 63/1/28 44/4/28 3/52/28
f 14/53/29 66/47/29 67/54/29 13/55/29
f 15/56/30 65/45/30 66/47/30 14/53/30
f 16/57/31 64/48/31 65/45/31 15/56/31
f 17/51/32 51/8/32 64/48/32 16/57/32
f 13/55/33 67/54/33 12/58/33
f 54/44/34 70/14/34 71/16/34 76/59/34
f 53/46/35 69/12/35 70/14/35 54/44/35
f 52/49/36 68/10/36 69/12/36 53/46/36
f 52/49/37 51/8/37 68/10/37
f 76/59/38 71/16/38 35/17/38 77/18/38
f 11/60/39 74/38/39 75/36/39 10/61/39
f 12/58/40 73/40/40 74/38/40 11/60/40
f 67/54/41 72/42/41 73/40/41 12/58/41
f 66/47/42 54/44/42 72/42/42 67/54/42
f 10/61/43 75/36/43 9/35/43
f 57/39/44 78/20/44 79/22/44 58/37/44
f 56/41/45 77/18/45 78/20/45 57/39/45
f 55/43/46 76/59/46 77/18/46 56/41/46
f 55/43/47 54/44/47 76/59/47
f 58/37/48 79/22/48 38/23/48 59/24/48
f 142/62/49 123/63/49 83/64/49 121/65/49
f 129/66/50 130/67/50 109/68/50 108/69/50
f 130/67/51 147/70/51 110/71/51 109/68/51
f 147/70/52 148/72/52 111/73/52 110/71/52
f 148/72/53 149/74/53 112/75/53 111/73/53
f 149/74/54 150/76/54 113/77/54 112/75/54
f 150/76/55 114/78/55 113/77/55
f 156/79/56 157/80/56 115/81/56 114/78/56
f 157/80/57 158/82/57 116/83/57 115/81/57
f 158/82/58 117/84/58 116/83/58
f 138/85/59 139/86/59 118/87/59 117/84/59
f 139/86/60 140/88/60 119/89/60 118/87/60
f 140/88/61 141/90/61 120/91/61 119/89/61
f 141/90/62 142/62/62 121/65/62 120/91/62
f 85/92/63 84/93/63 142/62/63 141/90/63
f 86/94/64 85/92/64 141/90/64 140/88/64
f 87/95/65 86/94/65 140/88/65 139/86/65
f 88/96/66 87/95/66 139/86/66 138/85/66
f 154/97/67 88/96/67 138/85/67 137/98/67
f 153/99/68 154/97/68 137/98/68 136/100/68
f 152/101/69 153/99/69 136/100/69 135/102/69
f 151/103/70 152/101/70 135/102/70 134/104/70
f 133/105/71 151/103/71 134/104/71
f 144/106/72 145/107/72 133/105/72 132/108/72
f 143/109/73 144/106/73 132/108/73 131/110/73
f 130/67/74 143/109/74 131/110/74
f 97/111/75 96/112/75 130/67/75 129/66/75
f 84/93/76 82/113/76 123/63/76 142/62/76
f 93/114/77 92/115/77 146/116/77 145/107/77
f 94/117/78 93/114/78 145/107/78 144/106/78
f 95/118/79 94/117/79 144/106/79 143/109/79
f 96/112/80 95/118/80 143/109/80 130/67/80
f 92/115/81 91/119/81 146/116/81
f 133/105/82 155/120/82 150/76/82 149/74/82
f 132/108/83 133/105/83 149/74/83 148/72/83
f 131/110/84 132/108/84 148/72/84 147/70/84
f 131/110/85 147/70/85 130/67/85
f 155/120/86 156/79/86 114/78/86 150/76/86
f 90/121/87 89/122/87 154/97/87 153/99/87
f 91/119/88 90/121/88 153/99/88 152/101/88
f 146/116/89 91/119/89 152/101/89 151/103/89
f 145/107/90 146/116/90 151/103/90 133/105/90
f 89/122/91 88/96/91 154/97/91
f 136/100/92 137/98/92 158/82/92 157/80/92
f 135/102/93 136/100/93 157/80/93 156/79/93
f 134/104/94 135/102/94 156/79/94 155/120/94
f 134/104/95 155/120/95 133/105/95
f 137/98/96 138/85/96 117/84/96 158/82/96
f 4/3/97 42/2/97 121/65/97 83/64/97
f 3/52/98 44/4/98 123/63/98 82/113/98
f 5/32/99 3/52/99 82/113/99 84/93/99
f 6/31/100 5/32/100 84/93/100 85/92/100
f 7/33/101 6/31/101 85/92/101 86/94/101
f 8/34/102 7/33/102 86/94/102 87/95/102
f 9/35/103 8/34/103 87/95/103 88/96/103
f 10/61/104 9/35/104 88/96/104 89/122/104
f 11/60/105 10/61/105 89/122/105 90/121/105
f 12/58/106 11/60/106 90/121/106 91/119/106
f 13/55/107 12/58/107 91/119/107 92/115/107
f 14/53/108 13/55/108 92/115/108 93/114/108
f 15/56/109 14/53/109 93/114/109 94/117/109
f 16/57/110 15/56/110 94/117/110 95/118/110
f 17/51/111 16/57/111 95/118/111 96/112/111
f 18/50/112 17/51/112 96/112/112 97/111/112
f 30/7/113 29/6/113 108/69/113 109/68/113
f 31/9/114 30/7/114 109/68/114 110/71/114
f 32/11/115 31/9/115 110/71/115 111/73/115
f 33/13/116 32/11/116 111/73/116 112/75/116
f 34/15/117 33/13/117 112/75/117 113/77/117
f 35/17/118 34/15/118 113/77/118 114/78/118
f 36/19/119 35/17/119 114/78/119 115/81/119
f 37/21/120 36/19/120 115/81/120 116/83/120
f 38/23/121 37/21/121 116/83/121 117/84/121
f 39/25/122 38/23/122 117/84/122 118/87/122
f 40/27/123 39/25/123 118/87/123 119/89/123
f 41/29/124 40/27/124 119/89/124 120/91/124
f 42/2/125 41/29/125 120/91/125 121/65/125
f 44/4/126 4/3/126 83/64/126 123/63/126
usemtl Material.001
f 43/123/127 2/124/127 24/125/127 45/126/127
f 45/126/128 24/125/128 25/127/128 46/128/128
f 46/128/129 25/127/129 26/129/129 47/130/129
f 47/130/130 26/129/130 27/131/130 48/132/130
f 48/132/131 27/131/131 28/133/131 49/134/131
f 49/134/132 28/133/132 29/6/132 50/5/132
f 19/135/133 49/134/133 50/5/133 18/50/133
f 20/136/134 48/132/134 49/134/134 19/135/134
f 21/137/135 47/130/135 48/132/135 20/136/135
f 22/138/136 46/128/136 47/130/136 21/137/136
f 23/139/137 45/126/137 46/128/137 22/138/137
f 1/140/138 43/123/138 45/126/138 23/139/138
f 122/141/139 124/142/139 103/143/139 81/144/139
f 124/142/140 125/145/140 104/146/140 103/143/140
f 125/145/141 126/147/141 105/148/141 104/146/141
f 126/147/142 127/149/142 106/150/142 105/148/142
f 127/149/143 128/151/143 107/152/143 106/150/143
f 128/151/144 129/66/144 108/69/144 107/152/144
f 98/153/145 97/111/145 129/66/145 128/151/145
f 99/154/146 98/153/146 128/151/146 127/149/146
f 100/155/147 99/154/147 127/149/147 126/147/147
f 101/156/148 100/155/148 126/147/148 125/145/148
f 102/157/149 101/156/149 125/145/149 124/142/149
f 80/158/150 102/157/150 124/142/150 122/141/150
f 1/140/151 23/139/151 102/157/151 80/158/151
f 2/124/152 43/123/152 122/141/152 81/144/152
f 19/135/153 18/50/153 97/111/153 98/153/153
f 20/136/154 19/135/154 98/153/154 99/154/154
f 21/137/155 20/136/155 99/154/155 100/155/155
f 22/138/156 21/137/156 100/155/156 101/156/156
f 23/139/157 22/138/157 101/156/157 102/157/157
f 24/125/158 2/124/158 81/144/158 103/143/158
f 25/127/159 24/125/159 103/143/159 104/146/159
f 26/129/160 25/127/160 104/146/160 105/148/160
f 27/131/161 26/129/161 105/148/161 106/150/161
f 28/133/162 27/131/162 106/150/162 107/152/162
f 29/6/163 28/133/163 107/152/163 108/69/163
f 43/123/164 1/140/164 80/158/164 122/141/164
