# Blender v2.91.0 OBJ File: 'leaves.blend'
# www.blender.org
mtllib model_normalized.mtl
o Plane.012
v -0.019395 0.000000 0.216297
v -0.004937 0.000000 0.217867
v -0.004481 0.000000 -0.228071
v 0.009976 0.000000 -0.215512
v -0.024889 0.000000 -0.204705
v -0.027244 0.000000 -0.185264
v -0.047652 0.000000 -0.195650
v -0.057855 0.000000 -0.180918
v -0.057855 0.000000 -0.152843
v -0.038233 0.000000 -0.087092
v -0.070414 0.000000 -0.115531
v -0.109659 0.000000 -0.127486
v -0.108090 0.000000 -0.097056
v -0.089252 0.000000 -0.069766
v -0.016255 0.000000 -0.002446
v -0.015470 0.000000 0.020135
v -0.060995 0.000000 -0.004379
v -0.093961 0.000000 -0.013195
v -0.144195 0.000000 -0.003957
v -0.129282 0.000000 0.020193
v -0.093176 0.000000 0.041204
v -0.050791 0.000000 0.048872
v -0.014685 0.000000 0.070667
v -0.015470 0.000000 0.108946
v -0.003368 0.000000 0.071271
v 0.049221 0.000000 0.050260
v 0.111229 0.000000 0.035528
v 0.122218 0.000000 0.017657
v 0.133992 0.000000 0.001355
v 0.110444 0.000000 -0.011021
v 0.068844 0.000000 -0.014764
v 0.038233 0.000000 0.001116
v -0.004153 0.000000 0.034264
v -0.002583 0.000000 -0.002446
v 0.056286 0.000000 -0.052498
v 0.094746 0.000000 -0.087637
v 0.115939 0.000000 -0.125131
v 0.086112 0.000000 -0.126520
v 0.053931 0.000000 -0.120843
v 0.017040 0.000000 -0.097899
v 0.036663 0.000000 -0.147952
v 0.036663 0.000000 -0.184661
v 0.029599 0.000000 -0.204887
v 0.010761 0.000000 -0.196856
v -0.014685 0.000000 0.141037
v -0.002975 0.000000 0.138290
v -0.012166 0.000000 0.217082
v -0.011312 -0.003423 0.167622
v -0.010838 -0.003423 0.140134
v -0.010501 -0.003423 0.120616
v -0.010006 -0.003423 0.091935
v -0.009643 -0.003423 0.070936
v -0.009318 -0.003423 0.052118
v -0.008908 -0.003423 0.028327
v -0.008557 -0.003423 0.008022
v -0.008376 -0.003423 -0.002446
v -0.008148 -0.003423 -0.015660
v -0.006809 -0.003423 -0.093236
v -0.005946 -0.003423 -0.143247
v -0.005104 -0.003423 -0.192017
v -0.004961 -0.003423 -0.200318
v -0.019883 -0.001382 0.216337
v -0.004848 -0.001456 0.218081
v -0.004457 -0.001449 -0.228415
v 0.009976 -0.001466 -0.215512
v -0.025116 -0.001443 -0.204884
v -0.027384 -0.001459 -0.185285
v -0.047652 -0.001465 -0.195650
v -0.057855 -0.001466 -0.180918
v -0.057855 -0.001466 -0.152843
v -0.038320 -0.001463 -0.087093
v -0.070414 -0.001466 -0.115531
v -0.109659 -0.001465 -0.127486
v -0.108090 -0.001466 -0.097056
v -0.089252 -0.001466 -0.069766
v -0.016688 -0.001398 -0.002324
v -0.015898 -0.001402 0.020133
v -0.060995 -0.001466 -0.004379
v -0.093961 -0.001466 -0.013195
v -0.144195 -0.001465 -0.003957
v -0.129282 -0.001466 0.020193
v -0.093176 -0.001466 0.041204
v -0.050791 -0.001466 0.048872
v -0.015293 -0.001333 0.070645
v -0.016301 -0.001207 0.108923
v -0.002857 -0.001374 0.071273
v 0.049221 -0.001466 0.050260
v 0.111229 -0.001466 0.035528
v 0.122218 -0.001466 0.017657
v 0.133992 -0.001466 0.001355
v 0.110444 -0.001466 -0.011021
v 0.068844 -0.001465 -0.014764
v 0.038233 -0.001466 0.001116
v -0.003630 -0.001369 0.034287
v -0.002049 -0.001365 -0.002398
v 0.056286 -0.001466 -0.052498
v 0.094746 -0.001466 -0.087637
v 0.115939 -0.001466 -0.125131
v 0.086112 -0.001466 -0.126520
v 0.053931 -0.001466 -0.120843
v 0.017170 -0.001460 -0.097881
v 0.036663 -0.001466 -0.147952
v 0.036663 -0.001466 -0.184661
v 0.029599 -0.001466 -0.204887
v 0.010917 -0.001456 -0.196929
v -0.015582 -0.001159 0.141032
v -0.002373 -0.001336 0.138313
v -0.012413 -0.001441 0.217229
v -0.011296 -0.004888 0.167666
v -0.011041 -0.004874 0.140146
v -0.010651 -0.004881 0.120624
v -0.010103 -0.004885 0.091917
v -0.009700 -0.004887 0.070919
v -0.009307 -0.004888 0.052115
v -0.008847 -0.004887 0.028359
v -0.008465 -0.004885 0.008063
v -0.008250 -0.004882 -0.002355
v -0.008130 -0.004885 -0.015520
v -0.006758 -0.004887 -0.093219
v -0.005914 -0.004888 -0.143270
v -0.005077 -0.004888 -0.192038
v -0.004907 -0.004880 -0.200541
vt 0.163629 0.206071
vt 0.214278 0.167858
vt 0.114710 0.154548
vt 0.489111 0.548886
vt 0.352373 0.404867
vt 0.274797 0.504860
vt 0.309486 0.116635
vt 0.252908 0.100055
vt 0.099425 0.254511
vt 0.127993 0.296315
vt 0.178259 0.221481
vt 0.178269 0.136354
vt 0.051572 0.335267
vt 0.049452 0.390760
vt 0.100306 0.441510
vt 0.264224 0.312023
vt 0.411250 0.328977
vt 0.375980 0.182993
vt 0.132441 0.544482
vt 0.000000 0.633883
vt 0.059551 0.684450
vt 0.473829 0.183150
vt 0.649194 0.127723
vt 0.554391 0.081860
vt 0.162160 0.680495
vt 0.604274 0.300035
vt 0.641103 0.000000
vt 0.533281 0.634304
vt 0.485626 0.786160
vt 0.627028 0.723429
vt 0.490163 0.595706
vt 0.512404 0.573420
vt 0.528759 0.557031
vt 0.360366 0.718765
vt 0.126264 0.954873
vt 0.212108 0.956344
vt 0.251338 0.796079
vt 0.708075 0.332721
vt 0.650426 0.448016
vt 0.770464 0.505769
vt 0.918821 0.303740
vt 0.352089 0.892193
vt 0.590821 0.627829
vt 0.917469 0.240351
vt 0.921177 0.177580
vt 0.832287 0.221814
vt 0.660069 0.692505
vt 0.163629 0.206071
vt 0.114710 0.154548
vt 0.214278 0.167858
vt 0.489111 0.548886
vt 0.274797 0.504860
vt 0.352373 0.404867
vt 0.309486 0.116635
vt 0.252908 0.100055
vt 0.178259 0.221481
vt 0.127993 0.296315
vt 0.099425 0.254511
vt 0.178269 0.136354
vt 0.049452 0.390760
vt 0.051572 0.335267
vt 0.100306 0.441510
vt 0.264224 0.312023
vt 0.411250 0.328977
vt 0.375980 0.182993
vt 0.132441 0.544482
vt 0.059551 0.684450
vt 0.000000 0.633883
vt 0.473829 0.183150
vt 0.554391 0.081860
vt 0.649194 0.127723
vt 0.162160 0.680495
vt 0.604274 0.300035
vt 0.641103 0.000000
vt 0.533281 0.634304
vt 0.627028 0.723429
vt 0.485626 0.786160
vt 0.490163 0.595706
vt 0.512404 0.573420
vt 0.528759 0.557031
vt 0.360366 0.718765
vt 0.126264 0.954873
vt 0.251338 0.796079
vt 0.212108 0.956344
vt 0.708075 0.332721
vt 0.770464 0.505769
vt 0.650426 0.448016
vt 0.918821 0.303740
vt 0.352089 0.892193
vt 0.590821 0.627829
vt 0.917469 0.240351
vt 0.832287 0.221814
vt 0.921177 0.177580
vt 0.660069 0.692505
vt 0.530855 0.592853
vt 0.566645 0.630550
vt 0.608579 0.674716
vt 0.641748 0.709652
vt 0.694149 0.794844
vt 0.678762 0.748637
vt 0.729316 0.801883
vt 0.754493 0.850633
vt 0.763719 0.838118
vt 0.812170 0.889149
vt 0.877522 1.000000
vt 0.899350 0.980972
vt 0.782573 0.812543
vt 0.921177 0.961943
vt 0.530855 0.592853
vt 0.566645 0.630550
vt 0.608579 0.674716
vt 0.641748 0.709652
vt 0.678762 0.748637
vt 0.694149 0.794844
vt 0.729316 0.801883
vt 0.763719 0.838118
vt 0.754493 0.850633
vt 0.812170 0.889149
vt 0.899350 0.980972
vt 0.877522 1.000000
vt 0.782573 0.812543
vt 0.921177 0.961943
vn -0.2354 0.9651 0.1150
vn 0.1086 0.9941 0.0019
vn 0.0000 1.0000 0.0000
vn 0.1614 0.9868 0.0145
vn -0.1425 0.9898 -0.0025
vn 0.1536 0.9881 0.0027
vn -0.5086 0.8609 -0.0088
vn -0.2120 0.9773 -0.0037
vn -0.1802 0.9836 0.0066
vn 0.1222 0.9925 0.0098
vn -0.2193 0.9753 -0.0266
vn 0.2954 0.9531 -0.0657
vn 0.1415 0.9822 0.1236
vn 0.2351 -0.9651 -0.1150
vn -0.1082 -0.9941 -0.0019
vn -0.0004 -1.0000 0.0001
vn -0.1602 -0.9870 -0.0147
vn -0.0017 -1.0000 0.0006
vn 0.0002 -1.0000 0.0002
vn 0.0002 -1.0000 -0.0000
vn 0.1423 -0.9898 0.0024
vn -0.1527 -0.9883 -0.0026
vn -0.0003 -1.0000 -0.0000
vn -0.0000 -1.0000 -0.0000
vn 0.0001 -1.0000 0.0000
vn -0.0002 -1.0000 0.0000
vn 0.0029 -1.0000 0.0013
vn 0.0003 -1.0000 0.0007
vn 0.4934 -0.8698 0.0047
vn -0.0011 -1.0000 0.0008
vn 0.0016 -1.0000 -0.0003
vn -0.0020 -1.0000 0.0004
vn -0.0004 -1.0000 0.0000
vn -0.0018 -1.0000 -0.0001
vn 0.2107 -0.9775 0.0033
vn 0.1795 -0.9837 -0.0066
vn -0.1217 -0.9925 -0.0097
vn 0.2184 -0.9755 0.0265
vn -0.2899 -0.9549 0.0643
vn -0.1406 -0.9824 -0.1232
vn 0.9974 0.0546 -0.0463
vn 0.6583 0.0938 -0.7469
vn -0.7415 0.1692 -0.6493
vn -0.9843 0.1327 -0.1165
vn 0.4544 -0.0154 -0.8907
vn -0.8221 0.0000 -0.5694
vn -1.0000 0.0000 0.0000
vn -0.9580 0.0285 0.2853
vn 0.6626 -0.0196 -0.7488
vn 0.2914 0.0000 -0.9566
vn -0.9987 0.0000 0.0515
vn -0.8230 0.0000 0.5681
vn -0.6734 0.1327 0.7273
vn 0.4747 -0.0702 -0.8773
vn 0.2583 0.0000 -0.9661
vn -0.1809 0.0000 -0.9835
vn -0.8508 0.0000 0.5254
vn -0.5030 0.0000 0.8643
vn -0.1780 0.0000 0.9840
vn -0.5171 0.1055 0.8494
vn 0.3718 0.0676 0.9259
vn 0.2311 0.0000 0.9729
vn 0.8518 0.0000 0.5238
vn 0.8107 0.0000 0.5855
vn 0.4653 0.0000 -0.8852
vn 0.0896 0.0000 -0.9960
vn -0.4605 0.0000 -0.8877
vn -0.6142 -0.1198 -0.7800
vn 0.6439 0.1340 0.7533
vn 0.6745 0.0000 0.7383
vn 0.8706 0.0000 0.4921
vn 0.0465 0.0000 -0.9989
vn -0.1737 0.0000 -0.9848
vn -0.5287 -0.0289 -0.8483
vn 0.9306 0.0437 0.3635
vn 1.0000 0.0000 0.0000
vn 0.9441 0.0000 -0.3297
vn -0.3920 0.0020 -0.9199
vn 0.4149 0.9099 -0.0076
vn 0.4547 0.8906 0.0078
vn 0.4961 0.8683 -0.0025
vn 0.5613 0.8276 0.0097
vn 0.5579 0.8298 0.0108
vn 0.5519 0.8338 0.0095
vn 0.6173 0.7867 -0.0054
vn 0.6661 0.7458 0.0115
vn 0.3329 0.9429 -0.0110
vn -0.5433 0.8394 -0.0183
vn -0.5760 0.8174 -0.0099
vn -0.5087 0.8609 0.0042
vn -0.4785 0.8781 -0.0083
vn -0.4352 0.9003 -0.0005
vn -0.4005 0.9163 -0.0069
vn -0.4075 0.9131 -0.0093
vn 0.0075 0.9976 -0.0689
vn -0.3976 -0.9175 0.0068
vn -0.4353 -0.9002 -0.0083
vn -0.4741 -0.8805 0.0017
vn -0.5359 -0.8442 -0.0111
vn -0.5339 -0.8454 -0.0109
vn -0.5304 -0.8477 -0.0100
vn -0.5901 -0.8073 0.0046
vn -0.6339 -0.7734 -0.0063
vn -0.3282 -0.9446 0.0102
vn 0.4934 -0.8698 0.0099
vn 0.5227 -0.8523 0.0179
vn 0.5507 -0.8346 0.0106
vn 0.4862 -0.8739 -0.0034
vn 0.4564 -0.8897 0.0088
vn 0.4139 -0.9103 0.0007
vn 0.3793 -0.9252 0.0079
vn 0.3950 -0.9187 0.0089
vn -0.0097 -0.9976 0.0691
vn -0.8772 0.4773 -0.0518
vn -0.1089 0.1286 0.9857
vn -0.9549 0.2950 0.0334
vn -0.8698 0.4930 -0.0212
vn 0.9251 0.3797 -0.0062
vn 0.9317 0.3610 0.0400
vn -0.8076 0.5894 0.0185
vn 0.9698 0.2425 0.0272
vn -0.1125 0.0947 0.9891
usemtl Material.022
s off
f 61/1/1 44/2/1 3/3/1
f 57/4/2 58/5/2 10/6/2
f 42/7/3 43/8/3 44/2/3
f 61/1/4 5/9/4 6/10/4 60/11/4
f 44/2/3 4/12/3 3/3/3
f 6/10/3 7/13/3 8/14/3
f 6/10/3 9/15/3 10/6/3
f 6/10/3 8/14/3 9/15/3
f 59/16/5 58/5/5 40/17/5
f 60/11/6 6/10/6 59/16/6
f 41/18/3 44/2/3 40/17/3
f 11/19/3 12/20/3 13/21/3
f 39/22/3 36/23/3 38/24/3
f 14/25/3 10/6/3 11/19/3
f 40/17/3 35/26/3 39/22/3
f 13/21/3 14/25/3 11/19/3
f 36/23/3 37/27/3 38/24/3
f 16/28/3 22/29/3 23/30/3
f 35/26/3 36/23/3 39/22/3
f 14/25/3 15/31/3 10/6/3
f 56/32/7 34/33/7 57/4/7
f 35/26/3 40/17/3 34/33/3
f 22/29/3 16/28/3 17/34/3
f 19/35/3 20/36/3 18/37/3
f 31/38/3 32/39/3 26/40/3
f 27/41/3 31/38/3 26/40/3
f 20/36/3 21/42/3 18/37/3
f 32/39/3 33/43/3 26/40/3
f 28/44/3 29/45/3 30/46/3
f 27/41/3 30/46/3 31/38/3
f 21/42/3 17/34/3 18/37/3
f 21/42/3 22/29/3 17/34/3
f 41/18/3 42/7/3 44/2/3
f 26/40/3 33/43/3 25/47/3
f 27/41/3 28/44/3 30/46/3
f 44/2/8 61/1/8 60/11/8
f 44/2/9 60/11/9 59/16/9 40/17/9
f 6/10/10 10/6/10 58/5/10 59/16/10
f 34/33/11 40/17/11 58/5/11 57/4/11
f 15/31/12 56/32/12 57/4/12 10/6/12
f 5/9/13 61/1/13 3/3/13
f 122/48/14 64/49/14 105/50/14
f 118/51/15 71/52/15 119/53/15
f 103/54/16 105/50/16 104/55/16
f 122/48/17 121/56/17 67/57/17 66/58/17
f 105/50/18 64/49/18 65/59/18
f 67/57/19 69/60/19 68/61/19
f 67/57/20 71/52/20 70/62/20
f 67/57/20 70/62/20 69/60/20
f 120/63/21 101/64/21 119/53/21
f 121/56/22 120/63/22 67/57/22
f 102/65/23 101/64/23 105/50/23
f 72/66/24 74/67/24 73/68/24
f 100/69/24 99/70/24 97/71/24
f 75/72/25 72/66/25 71/52/25
f 101/64/26 100/69/26 96/73/26
f 74/67/24 72/66/24 75/72/24
f 97/71/24 99/70/24 98/74/24
f 77/75/27 84/76/27 83/77/27
f 96/73/24 100/69/24 97/71/24
f 75/72/28 71/52/28 76/78/28
f 117/79/29 118/51/29 95/80/29
f 96/73/30 95/80/30 101/64/30
f 83/77/31 78/81/31 77/75/31
f 80/82/24 79/83/24 81/84/24
f 92/85/24 87/86/24 93/87/24
f 88/88/24 87/86/24 92/85/24
f 81/84/24 79/83/24 82/89/24
f 93/87/32 87/86/32 94/90/32
f 89/91/24 91/92/24 90/93/24
f 88/88/24 92/85/24 91/92/24
f 82/89/24 79/83/24 78/81/24
f 82/89/24 78/81/24 83/77/24
f 102/65/33 105/50/33 103/54/33
f 87/86/34 86/94/34 94/90/34
f 88/88/24 91/92/24 89/91/24
f 105/50/35 121/56/35 122/48/35
f 105/50/36 101/64/36 120/63/36 121/56/36
f 67/57/37 120/63/37 119/53/37 71/52/37
f 95/80/38 118/51/38 119/53/38 101/64/38
f 76/78/39 71/52/39 118/51/39 117/79/39
f 66/58/40 64/49/40 122/48/40
f 4/12/41 44/2/41 105/50/41 65/59/41
f 3/3/42 4/12/42 65/59/42 64/49/42
f 5/9/43 3/3/43 64/49/43 66/58/43
f 6/10/44 5/9/44 66/58/44 67/57/44
f 7/13/45 6/10/45 67/57/45 68/61/45
f 8/14/46 7/13/46 68/61/46 69/60/46
f 9/15/47 8/14/47 69/60/47 70/62/47
f 10/6/48 9/15/48 70/62/48 71/52/48
f 11/19/49 10/6/49 71/52/49 72/66/49
f 12/20/50 11/19/50 72/66/50 73/68/50
f 13/21/51 12/20/51 73/68/51 74/67/51
f 14/25/52 13/21/52 74/67/52 75/72/52
f 15/31/53 14/25/53 75/72/53 76/78/53
f 17/34/54 16/28/54 77/75/54 78/81/54
f 18/37/55 17/34/55 78/81/55 79/83/55
f 19/35/56 18/37/56 79/83/56 80/82/56
f 20/36/57 19/35/57 80/82/57 81/84/57
f 21/42/58 20/36/58 81/84/58 82/89/58
f 22/29/59 21/42/59 82/89/59 83/77/59
f 23/30/60 22/29/60 83/77/60 84/76/60
f 26/40/61 25/47/61 86/94/61 87/86/61
f 27/41/62 26/40/62 87/86/62 88/88/62
f 28/44/63 27/41/63 88/88/63 89/91/63
f 29/45/64 28/44/64 89/91/64 90/93/64
f 30/46/65 29/45/65 90/93/65 91/92/65
f 31/38/66 30/46/66 91/92/66 92/85/66
f 32/39/67 31/38/67 92/85/67 93/87/67
f 33/43/68 32/39/68 93/87/68 94/90/68
f 35/26/69 34/33/69 95/80/69 96/73/69
f 36/23/70 35/26/70 96/73/70 97/71/70
f 37/27/71 36/23/71 97/71/71 98/74/71
f 38/24/72 37/27/72 98/74/72 99/70/72
f 39/22/73 38/24/73 99/70/73 100/69/73
f 40/17/74 39/22/74 100/69/74 101/64/74
f 41/18/75 40/17/75 101/64/75 102/65/75
f 42/7/76 41/18/76 102/65/76 103/54/76
f 43/8/77 42/7/77 103/54/77 104/55/77
f 44/2/78 43/8/78 104/55/78 105/50/78
usemtl Material.023
f 56/32/79 15/31/79 16/28/79 55/95/79
f 54/96/80 55/95/80 16/28/80
f 54/96/81 16/28/81 23/30/81 53/97/81
f 53/97/82 23/30/82 52/98/82
f 52/98/83 23/30/83 24/99/83 51/100/83
f 50/101/84 51/100/84 24/99/84
f 50/101/85 24/99/85 45/102/85 49/103/85
f 48/104/86 49/103/86 45/102/86
f 48/104/87 45/102/87 1/105/87 47/106/87
f 34/33/7 56/32/7 55/95/7
f 33/43/88 34/33/88 55/95/88 54/96/88
f 33/43/89 54/96/89 53/97/89
f 33/43/90 53/97/90 52/98/90 25/47/90
f 25/47/91 52/98/91 51/100/91
f 46/107/92 25/47/92 51/100/92 50/101/92
f 46/107/93 50/101/93 49/103/93
f 2/108/94 46/107/94 49/103/94 48/104/94
f 2/108/95 48/104/95 47/106/95
f 117/79/96 116/109/96 77/75/96 76/78/96
f 115/110/97 77/75/97 116/109/97
f 115/110/98 114/111/98 84/76/98 77/75/98
f 114/111/99 113/112/99 84/76/99
f 113/112/100 112/113/100 85/114/100 84/76/100
f 111/115/101 85/114/101 112/113/101
f 111/115/102 110/116/102 106/117/102 85/114/102
f 109/118/103 106/117/103 110/116/103
f 109/118/104 108/119/104 62/120/104 106/117/104
f 95/80/105 116/109/105 117/79/105
f 94/90/106 115/110/106 116/109/106 95/80/106
f 94/90/107 114/111/107 115/110/107
f 94/90/108 86/94/108 113/112/108 114/111/108
f 86/94/109 112/113/109 113/112/109
f 107/121/110 111/115/110 112/113/110 86/94/110
f 107/121/111 110/116/111 111/115/111
f 63/122/112 109/118/112 110/116/112 107/121/112
f 63/122/113 108/119/113 109/118/113
f 1/105/114 45/102/114 106/117/114 62/120/114
f 2/108/115 47/106/115 108/119/115 63/122/115
f 16/28/116 15/31/116 76/78/116 77/75/116
f 24/99/117 23/30/117 84/76/117 85/114/117
f 25/47/118 46/107/118 107/121/118 86/94/118
f 34/33/119 33/43/119 94/90/119 95/80/119
f 45/102/120 24/99/120 85/114/120 106/117/120
f 46/107/121 2/108/121 63/122/121 107/121/121
f 47/106/122 1/105/122 62/120/122 108/119/122
