# Blender v2.91.0 OBJ File: 'leaves.blend'
# www.blender.org
mtllib model_normalized.mtl
o Plane.007
v -0.004061 0.000000 0.284381
v 0.006436 0.000000 0.283707
v 0.008490 0.000000 -0.278947
v 0.021074 0.000000 -0.252441
v -0.020836 0.000000 -0.228324
v -0.061897 0.000000 -0.198920
v -0.105285 0.000000 -0.158119
v -0.131573 0.000000 -0.134667
v -0.153083 0.000000 -0.091831
v -0.153304 0.000000 -0.042480
v -0.169419 0.000000 -0.020415
v -0.168932 0.000000 0.006250
v -0.153995 0.000000 0.039422
v -0.154597 0.000000 0.075430
v -0.122322 0.000000 0.124049
v -0.107727 0.000000 0.169047
v -0.074085 0.000000 0.202122
v -0.040437 0.000000 0.224384
v -0.010671 0.000000 0.235564
v -0.001874 0.000000 0.239828
v 0.036524 0.000000 0.226620
v 0.065821 0.000000 0.203831
v 0.094474 0.000000 0.173125
v 0.112134 0.000000 0.126309
v 0.144238 0.000000 0.087727
v 0.142711 0.000000 0.050219
v 0.163758 0.000000 0.006092
v 0.146624 0.000000 -0.029273
v 0.154622 0.000000 -0.060377
v 0.140273 0.000000 -0.081523
v 0.130211 0.000000 -0.109580
v 0.115906 0.000000 -0.127417
v 0.079703 0.000000 -0.179397
v 0.045256 0.000000 -0.214900
v -0.040610 0.000000 -0.229125
v 0.064785 0.000000 -0.203541
v -0.076796 0.000000 -0.191216
v 0.100117 0.000000 -0.173021
v -0.119823 0.000000 -0.155161
v 0.130565 0.000000 -0.119269
v 0.001188 0.000000 0.284044
v -0.006273 -0.008693 0.237696
v -0.001957 -0.008693 0.225502
v -0.004132 -0.008693 0.205025
v -0.006626 -0.008693 0.169037
v -0.005094 -0.008693 0.128047
v -0.005180 -0.008693 0.078711
v -0.005642 -0.008693 0.050556
v -0.002587 -0.008693 0.006171
v -0.011398 -0.008693 -0.023615
v 0.000659 -0.008693 -0.054296
v -0.006405 -0.008693 -0.082171
v -0.000681 -0.008693 -0.122124
v 0.005311 -0.008693 -0.138975
v 0.008903 -0.008693 -0.189159
v 0.011660 -0.008693 -0.185396
v 0.005371 -0.008693 -0.139263
v 0.015046 0.000000 -0.265139
v 0.013594 -0.008693 -0.221331
v 0.011932 -0.008693 -0.209930
v -0.094726 -0.003878 0.011950
v 0.050246 -0.005932 0.011882
v 0.100722 -0.002525 -0.023084
v -0.057366 -0.005417 -0.045746
v 0.029776 -0.007049 -0.051349
v 0.073349 -0.003966 -0.080712
v 0.112610 -0.001169 -0.107170
v -0.029762 -0.006761 -0.118355
v -0.042992 -0.005335 -0.138850
v -0.045877 -0.004670 -0.143318
v 0.011646 -0.007874 -0.113941
v 0.020898 -0.007615 -0.130229
v 0.022913 -0.007309 -0.133770
v 0.045819 -0.005336 -0.174062
v 0.047654 -0.003935 -0.177261
v 0.057938 0.000000 -0.195274
v -0.017344 -0.005842 -0.183511
v -0.020347 -0.005101 -0.189398
v -0.025988 -0.004228 -0.200482
v -0.033630 0.000000 -0.215368
v 0.036796 -0.006223 -0.173263
v 0.039369 -0.004952 -0.176011
v 0.056205 0.000000 -0.194163
v -0.005265 -0.000882 0.285206
v 0.007673 -0.000937 0.283467
v 0.008218 -0.001327 -0.279690
v 0.021657 -0.001215 -0.253423
v -0.021121 -0.001336 -0.228991
v -0.062057 -0.001352 -0.199570
v -0.105372 -0.001349 -0.158831
v -0.131695 -0.001391 -0.134813
v -0.153200 -0.001393 -0.091876
v -0.153418 -0.001392 -0.042605
v -0.169528 -0.001393 -0.020467
v -0.169041 -0.001393 0.006286
v -0.154111 -0.001393 0.039477
v -0.154722 -0.001392 0.075496
v -0.122476 -0.001386 0.124266
v -0.107901 -0.001387 0.169197
v -0.074344 -0.001333 0.202838
v -0.040788 -0.001295 0.225256
v -0.011546 -0.000945 0.237027
v -0.000934 -0.001018 0.240933
v 0.036858 -0.001318 0.227362
v 0.066077 -0.001344 0.204459
v 0.094648 -0.001386 0.173291
v 0.112287 -0.001384 0.126587
v 0.144362 -0.001392 0.087797
v 0.142826 -0.001393 0.050276
v 0.163866 -0.001393 0.006074
v 0.146733 -0.001393 -0.029302
v 0.154735 -0.001393 -0.060389
v 0.140387 -0.001391 -0.081668
v 0.130338 -0.001392 -0.109632
v 0.116073 -0.001367 -0.127913
v 0.079866 -0.001211 -0.180769
v 0.045637 -0.001346 -0.215292
v -0.040610 -0.001396 -0.229125
v 0.064785 -0.001396 -0.203541
v -0.076941 -0.001381 -0.191552
v 0.100293 -0.001384 -0.173249
v -0.119942 -0.001387 -0.155412
v 0.130705 -0.001391 -0.119337
v 0.001458 -0.001368 0.284375
v -0.006456 -0.009834 0.239287
v -0.001890 -0.009894 0.226930
v -0.004145 -0.010077 0.205402
v -0.006636 -0.010089 0.169080
v -0.005091 -0.010089 0.128106
v -0.005179 -0.010089 0.078708
v -0.005647 -0.010089 0.050562
v -0.002567 -0.010089 0.006149
v -0.011437 -0.010089 -0.023646
v 0.000693 -0.010089 -0.054295
v -0.006431 -0.010089 -0.082192
v -0.000704 -0.010089 -0.122148
v 0.005303 -0.010084 -0.139219
v 0.008871 -0.010085 -0.189374
v 0.011803 -0.010065 -0.185861
v 0.005403 -0.010086 -0.139452
v 0.014991 -0.001334 -0.265965
v 0.013741 -0.010054 -0.221907
v 0.011997 -0.010078 -0.210265
v -0.094838 -0.005271 0.012018
v 0.050357 -0.007325 0.011881
v 0.100831 -0.003919 -0.023102
v -0.057482 -0.006809 -0.045825
v 0.029892 -0.008442 -0.051342
v 0.073469 -0.005358 -0.080795
v 0.112738 -0.002561 -0.107184
v -0.029892 -0.008152 -0.118484
v -0.043118 -0.006713 -0.139252
v -0.046002 -0.006040 -0.143816
v 0.011769 -0.009267 -0.113889
v 0.021048 -0.009004 -0.130340
v 0.023084 -0.008692 -0.134046
v 0.045971 -0.006643 -0.175018
v 0.047794 -0.005158 -0.178596
v 0.058011 -0.001385 -0.195617
v -0.017538 -0.007226 -0.183698
v -0.020559 -0.006477 -0.189728
v -0.026269 -0.005584 -0.200965
v -0.033785 -0.001365 -0.215899
v 0.037040 -0.007578 -0.173798
v 0.039619 -0.006216 -0.177131
v 0.056342 -0.001362 -0.194741
vt 0.776841 0.851495
vt 0.693296 0.922462
vt 0.806269 0.915200
vt 0.839397 0.918099
vt 0.055545 0.108999
vt 0.043641 0.122543
vt 0.128528 0.163738
vt 0.141248 0.154591
vt 0.057418 0.277979
vt 0.149179 0.182538
vt 0.022060 0.383072
vt 0.184769 0.206003
vt 0.000000 0.497727
vt 0.244176 0.250551
vt 0.027875 0.607731
vt 0.301504 0.312182
vt 0.009369 0.742087
vt 0.375067 0.381554
vt 0.068751 0.791188
vt 0.418024 0.420114
vt 0.084621 0.905835
vt 0.343712 0.614206
vt 0.177702 0.913050
vt 0.276739 0.789676
vt 0.205050 0.976835
vt 0.486004 0.652264
vt 0.270406 0.970932
vt 0.426983 0.802602
vt 0.335905 0.985452
vt 0.373806 0.938065
vt 0.624222 0.741334
vt 0.349474 1.000000
vt 0.396235 0.974991
vt 0.624755 0.751388
vt 0.630723 0.865528
vt 0.501363 1.000000
vt 0.559090 0.958162
vt 0.631276 0.874803
vt 0.880434 0.726698
vt 0.869459 0.776831
vt 0.917384 0.728723
vt 0.763818 0.831276
vt 0.634141 0.926359
vt 0.630249 0.955070
vt 0.636583 0.920476
vt 0.726381 0.598562
vt 0.663065 0.676022
vt 0.674246 0.715268
vt 0.788261 0.594725
vt 0.673960 0.714709
vt 0.727979 0.795995
vt 0.794004 0.721509
vt 0.740090 0.794437
vt 0.809926 0.722439
vt 0.801787 0.593936
vt 0.617186 0.605417
vt 0.683785 0.427603
vt 0.559043 0.583691
vt 0.979059 0.255019
vt 0.541916 0.510397
vt 0.686442 0.253412
vt 0.476802 0.490324
vt 0.911476 0.113614
vt 0.733927 0.015336
vt 0.786046 0.067624
vt 0.483951 0.000000
vt 0.585354 0.027127
vt 0.242631 0.089501
vt 0.355261 0.037117
vt 0.155660 0.147847
vt 0.067449 0.095455
vt 0.875423 0.921251
vt 0.839825 0.724145
vt 0.870675 0.077217
vt 0.906199 0.184861
vt 0.621844 0.695289
vt 0.994618 0.427161
vt 0.964658 0.467532
vt 0.991916 0.368996
vt 0.946539 0.585149
vt 0.648901 0.852270
vt 0.650772 0.841811
vt 0.922781 0.633116
vt 0.776841 0.851495
vt 0.839397 0.918099
vt 0.806269 0.915200
vt 0.693296 0.922462
vt 0.055545 0.108999
vt 0.141248 0.154591
vt 0.128528 0.163738
vt 0.043641 0.122543
vt 0.149179 0.182538
vt 0.057418 0.277979
vt 0.184769 0.206003
vt 0.022060 0.383072
vt 0.000000 0.497727
vt 0.244176 0.250551
vt 0.301504 0.312182
vt 0.027875 0.607731
vt 0.009369 0.742087
vt 0.375067 0.381554
vt 0.418024 0.420114
vt 0.068751 0.791188
vt 0.343712 0.614206
vt 0.084621 0.905835
vt 0.276739 0.789676
vt 0.177702 0.913050
vt 0.205050 0.976835
vt 0.486004 0.652264
vt 0.426983 0.802602
vt 0.270406 0.970932
vt 0.373806 0.938065
vt 0.335905 0.985452
vt 0.624222 0.741334
vt 0.624755 0.751388
vt 0.396235 0.974991
vt 0.349474 1.000000
vt 0.630723 0.865528
vt 0.631276 0.874803
vt 0.559090 0.958162
vt 0.501363 1.000000
vt 0.880434 0.726698
vt 0.917384 0.728723
vt 0.869459 0.776831
vt 0.763818 0.831276
vt 0.634141 0.926359
vt 0.630249 0.955070
vt 0.636583 0.920476
vt 0.726381 0.598562
vt 0.788261 0.594725
vt 0.674246 0.715268
vt 0.663065 0.676022
vt 0.673960 0.714709
vt 0.794004 0.721509
vt 0.727979 0.795995
vt 0.809926 0.722439
vt 0.740090 0.794437
vt 0.801787 0.593936
vt 0.617186 0.605417
vt 0.683785 0.427603
vt 0.979059 0.255019
vt 0.559043 0.583691
vt 0.541916 0.510397
vt 0.686442 0.253412
vt 0.911476 0.113614
vt 0.476802 0.490324
vt 0.733927 0.015336
vt 0.786046 0.067624
vt 0.483951 0.000000
vt 0.585354 0.027127
vt 0.242631 0.089501
vt 0.355261 0.037117
vt 0.155660 0.147847
vt 0.067449 0.095455
vt 0.875423 0.921251
vt 0.839825 0.724145
vt 0.870675 0.077217
vt 0.906199 0.184861
vt 0.621844 0.695289
vt 0.994618 0.427161
vt 0.964658 0.467532
vt 0.991916 0.368996
vt 0.946539 0.585149
vt 0.648901 0.852270
vt 0.650772 0.841811
vt 0.922781 0.633116
vn -0.3095 0.9325 0.1861
vn -0.6735 0.7378 0.0466
vn -0.2941 0.8179 -0.4946
vn -0.1576 0.9825 -0.0988
vn -0.1244 0.9854 -0.1161
vn -0.0792 0.9967 -0.0173
vn -0.0747 0.9953 -0.0622
vn -0.0583 0.9983 0.0018
vn -0.0562 0.9982 -0.0189
vn -0.0512 0.9984 0.0241
vn -0.0569 0.9983 -0.0146
vn -0.0559 0.9980 0.0286
vn -0.0599 0.9980 0.0191
vn -0.0828 0.9899 0.1154
vn -0.0969 0.9405 0.3256
vn -0.0863 0.9961 0.0157
vn -0.0666 0.9978 -0.0024
vn 0.0000 1.0000 0.0000
vn -0.2575 0.9656 -0.0375
vn -0.1105 0.9823 0.1515
vn 0.0694 0.9973 0.0246
vn 0.0987 0.9950 0.0135
vn 0.1102 0.9939 0.0105
vn 0.0692 0.9916 0.1091
vn 0.0675 0.9977 0.0097
vn 0.0584 0.9983 -0.0081
vn 0.0598 0.9979 0.0235
vn 0.0536 0.9985 -0.0097
vn 0.0524 0.9986 0.0036
vn 0.0583 0.9983 0.0001
vn 0.0581 0.9983 -0.0001
vn 0.0796 0.9968 -0.0121
vn 0.0857 0.9963 -0.0059
vn 0.1618 0.9775 -0.1356
vn 0.3700 0.8372 -0.4028
vn 0.6770 0.7171 -0.1656
vn 0.1392 0.9809 0.1357
vn 0.1820 0.9727 0.1441
vn 0.1214 0.9925 0.0173
vn 0.1276 0.9833 -0.1298
vn -0.0859 0.9963 0.0060
vn 0.0756 0.9959 -0.0502
vn -0.0581 0.9983 0.0001
vn 0.0576 0.9982 -0.0166
vn 0.0523 0.9986 -0.0010
vn -0.0547 0.9984 0.0173
vn -0.0518 0.9987 -0.0036
vn -0.0563 0.9982 -0.0184
vn 0.0563 0.9978 0.0359
vn 0.0564 0.9984 0.0003
vn -0.0631 0.9980 -0.0002
vn -0.0591 0.9981 0.0161
vn -0.0542 0.9983 -0.0213
vn -0.0667 0.9977 -0.0137
vn 0.0385 0.9881 0.1490
vn 0.0616 0.9976 0.0325
vn 0.0597 0.9980 0.0230
vn 0.0645 0.9964 0.0555
vn -0.0518 0.9781 0.2015
vn -0.0577 0.9260 0.3732
vn -0.0846 0.9964 -0.0023
vn -0.0907 0.9951 0.0390
vn -0.0567 0.9982 -0.0182
vn -0.0605 0.9981 -0.0087
vn 0.1234 0.9695 0.2120
vn 0.1177 0.9929 0.0183
vn 0.0852 0.9881 0.1284
vn 0.0854 0.9959 0.0315
vn -0.1944 0.9790 0.0617
vn -0.1952 0.9616 0.1931
vn -0.0918 0.9957 -0.0126
vn 0.3058 -0.9339 -0.1851
vn 0.6199 -0.7836 -0.0404
vn 0.2971 -0.8155 0.4967
vn 0.1565 -0.9826 0.0996
vn 0.1241 -0.9856 0.1151
vn 0.0791 -0.9967 0.0173
vn 0.0746 -0.9953 0.0619
vn 0.0583 -0.9983 -0.0018
vn 0.0562 -0.9982 0.0189
vn 0.0512 -0.9984 -0.0241
vn 0.0569 -0.9983 0.0146
vn 0.0559 -0.9980 -0.0285
vn 0.0599 -0.9980 -0.0191
vn 0.0824 -0.9903 -0.1117
vn 0.0994 -0.9462 -0.3080
vn 0.0860 -0.9962 -0.0164
vn 0.0666 -0.9978 0.0024
vn 0.0031 -1.0000 0.0008
vn 0.2562 -0.9659 0.0364
vn 0.1106 -0.9823 -0.1514
vn -0.0032 -1.0000 0.0009
vn -0.0694 -0.9973 -0.0248
vn -0.0973 -0.9952 -0.0140
vn -0.1093 -0.9940 -0.0078
vn -0.0690 -0.9919 -0.1070
vn -0.0674 -0.9977 -0.0097
vn -0.0584 -0.9983 0.0081
vn -0.0597 -0.9979 -0.0236
vn -0.0535 -0.9985 0.0097
vn -0.0524 -0.9986 -0.0036
vn -0.0583 -0.9983 -0.0001
vn -0.0581 -0.9983 0.0001
vn -0.0795 -0.9968 0.0121
vn -0.0856 -0.9963 0.0062
vn -0.1607 -0.9776 0.1358
vn -0.3699 -0.8420 0.3926
vn -0.6253 -0.7627 0.1649
vn -0.1382 -0.9812 -0.1350
vn -0.1808 -0.9730 -0.1436
vn -0.1212 -0.9925 -0.0181
vn -0.1272 -0.9835 0.1285
vn 0.0858 -0.9963 -0.0055
vn -0.0755 -0.9959 0.0500
vn 0.0581 -0.9983 -0.0001
vn -0.0576 -0.9982 0.0166
vn -0.0523 -0.9986 0.0009
vn 0.0547 -0.9984 -0.0174
vn 0.0518 -0.9987 0.0036
vn 0.0563 -0.9982 0.0184
vn -0.0563 -0.9978 -0.0358
vn -0.0564 -0.9984 -0.0002
vn 0.0631 -0.9980 0.0002
vn 0.0590 -0.9981 -0.0162
vn 0.0541 -0.9983 0.0214
vn 0.0667 -0.9977 0.0136
vn -0.0394 -0.9885 -0.1457
vn -0.0616 -0.9976 -0.0326
vn -0.0597 -0.9980 -0.0229
vn -0.0647 -0.9964 -0.0553
vn 0.0551 -0.9781 -0.2008
vn 0.0539 -0.9349 -0.3509
vn 0.0864 -0.9963 0.0025
vn 0.0906 -0.9951 -0.0397
vn 0.0565 -0.9982 0.0179
vn 0.0601 -0.9982 0.0086
vn 0.0044 -1.0000 0.0052
vn -0.1229 -0.9695 -0.2120
vn -0.1181 -0.9928 -0.0189
vn -0.0852 -0.9883 -0.1267
vn -0.0854 -0.9959 -0.0313
vn 0.0007 -1.0000 0.0020
vn 0.1942 -0.9791 -0.0602
vn 0.1952 -0.9605 -0.1984
vn 0.0922 -0.9957 0.0124
vn -0.0234 -0.9996 -0.0185
vn -0.6070 0.7907 0.0802
vn 0.1033 0.1067 0.9889
vn 0.7220 0.5180 -0.4586
vn 0.8906 0.1448 -0.4311
vn -0.7903 0.4076 -0.4575
vn -0.7998 0.1819 -0.5721
vn -0.7213 0.3006 -0.6240
vn -0.8590 0.1444 -0.4913
vn -0.8888 0.1064 -0.4457
vn -0.9966 0.0826 -0.0044
vn -0.8039 0.1013 -0.5861
vn -0.9968 0.0777 0.0182
vn -0.9084 0.0870 0.4089
vn -0.9962 0.0859 -0.0168
vn -0.8256 0.1388 0.5469
vn -0.9402 0.1516 0.3050
vn -0.6676 0.3203 0.6721
vn -0.4683 0.5341 0.7039
vn -0.2394 0.7603 0.6039
vn 0.6915 0.7094 -0.1361
vn 0.2455 0.6801 0.6908
vn 0.5412 0.4765 0.6928
vn 0.7008 0.2983 0.6480
vn 0.9228 0.1645 0.3483
vn 0.7604 0.1550 0.6307
vn 0.9956 0.0839 -0.0407
vn 0.9000 0.0782 0.4288
vn 0.8973 0.0773 -0.4347
vn 0.9659 0.0733 0.2485
vn 0.8242 0.0993 -0.5575
vn 0.9360 0.1052 -0.3360
vn 0.4831 0.2267 -0.8457
vn 0.2751 0.5301 -0.8021
vn 0.5037 0.1906 -0.8426
vn 0.0228 0.2347 -0.9718
vn 0.7980 0.3186 -0.5115
vn -0.4379 0.3479 -0.8290
vn 0.9256 0.1999 -0.3214
vn -0.2018 0.3383 -0.9191
vn 0.9949 0.0935 0.0370
vn 0.1049 0.4196 0.9016
vn 0.7966 0.4507 -0.4028
usemtl None
s off
f 59/1/1 34/2/1 4/3/1 58/4/1
f 41/5/2 2/6/2 20/7/2 42/8/2
f 42/8/3 20/7/3 21/9/3 43/10/3
f 43/10/4 21/9/4 22/11/4 44/12/4
f 44/12/5 22/11/5 23/13/5
f 45/14/6 23/13/6 24/15/6 46/16/6
f 46/16/7 24/15/7 25/17/7
f 47/18/8 25/17/8 26/19/8 48/20/8
f 48/20/9 26/19/9 27/21/9 62/22/9
f 62/22/10 27/21/10 28/23/10 63/24/10
f 63/24/11 28/23/11 29/25/11
f 65/26/12 29/25/12 30/27/12 66/28/12
f 66/28/13 30/27/13 31/29/13 67/30/13
f 72/31/14 40/32/14 32/33/14 73/34/14
f 74/35/15 38/36/15 33/37/15 75/38/15
f 73/34/16 32/33/16 38/36/16 74/35/16
f 67/30/17 31/29/17 40/32/17
f 80/39/18 5/40/18 35/41/18
f 60/42/19 34/2/19 59/1/19
f 75/38/20 33/37/20 76/43/20
f 36/44/18 34/2/18 83/45/18
f 68/46/21 53/47/21 57/48/21 69/49/21
f 54/50/22 56/51/22 77/52/22
f 77/52/23 56/51/23 55/53/23 78/54/23
f 69/49/24 57/48/24 54/50/24 70/55/24
f 52/56/25 53/47/25 68/46/25
f 64/57/26 51/58/26 52/56/26 9/59/26
f 50/60/27 51/58/27 64/57/27
f 61/61/28 49/62/28 50/60/28 11/63/28
f 48/20/29 49/62/29 61/61/29
f 14/64/30 47/18/30 48/20/30 13/65/30
f 46/16/31 47/18/31 14/64/31
f 16/66/32 45/14/32 46/16/32 15/67/32
f 44/12/33 45/14/33 16/66/33
f 18/68/34 43/10/34 44/12/34 17/69/34
f 19/70/35 42/8/35 43/10/35 18/68/35
f 1/71/36 41/5/36 42/8/36 19/70/36
f 5/40/37 59/1/37 58/4/37 3/72/37
f 79/73/38 60/42/38 59/1/38 5/40/38 80/39/38
f 78/54/39 55/53/39 60/42/39 79/73/39
f 17/69/40 44/12/40 16/66/40
f 45/14/41 44/12/41 23/13/41
f 15/67/42 46/16/42 14/64/42
f 47/18/43 46/16/43 25/17/43
f 13/65/44 48/20/44 61/61/44 12/74/44
f 12/74/45 61/61/45 11/63/45
f 49/62/46 62/22/46 63/24/46 50/60/46
f 49/62/47 48/20/47 62/22/47
f 50/60/48 63/24/48 29/25/48 65/26/48
f 11/63/49 50/60/49 64/57/49 10/75/49
f 10/75/50 64/57/50 9/59/50
f 52/56/51 66/28/51 67/30/51 71/76/51
f 51/58/52 65/26/52 66/28/52 52/56/52
f 51/58/53 50/60/53 65/26/53
f 71/76/54 67/30/54 40/32/54 72/31/54
f 39/77/55 69/49/55 70/55/55 7/78/55
f 8/79/56 68/46/56 69/49/56 39/77/56
f 9/59/57 52/56/57 68/46/57 8/79/57
f 7/78/58 70/55/58 37/80/58
f 82/81/59 75/38/59 76/43/59 83/45/59
f 81/82/60 74/35/60 75/38/60 82/81/60
f 54/50/61 73/34/61 74/35/61 81/82/61
f 57/48/62 72/31/62 73/34/62 54/50/62
f 53/47/63 71/76/63 72/31/63 57/48/63
f 53/47/64 52/56/64 71/76/64
f 33/37/18 36/44/18 76/43/18
f 6/83/65 79/73/65 80/39/65
f 6/83/66 78/54/66 79/73/66
f 37/80/67 77/52/67 78/54/67 6/83/67
f 70/55/68 54/50/68 77/52/68 37/80/68
f 6/83/18 80/39/18 35/41/18
f 55/53/69 82/81/69 83/45/69 34/2/69 60/42/69
f 56/51/70 81/82/70 82/81/70 55/53/70
f 56/51/71 54/50/71 81/82/71
f 76/43/18 36/44/18 83/45/18
f 142/84/72 141/85/72 87/86/72 117/87/72
f 124/88/73 125/89/73 103/90/73 85/91/73
f 125/89/74 126/92/74 104/93/74 103/90/74
f 126/92/75 127/94/75 105/95/75 104/93/75
f 127/94/76 106/96/76 105/95/76
f 128/97/77 129/98/77 107/99/77 106/96/77
f 129/98/78 108/100/78 107/99/78
f 130/101/79 131/102/79 109/103/79 108/100/79
f 131/102/80 145/104/80 110/105/80 109/103/80
f 145/104/81 146/106/81 111/107/81 110/105/81
f 146/106/82 112/108/82 111/107/82
f 148/109/83 149/110/83 113/111/83 112/108/83
f 149/110/84 150/112/84 114/113/84 113/111/84
f 155/114/85 156/115/85 115/116/85 123/117/85
f 157/118/86 158/119/86 116/120/86 121/121/86
f 156/115/87 157/118/87 121/121/87 115/116/87
f 150/112/88 123/117/88 114/113/88
f 163/122/89 118/123/89 88/124/89
f 143/125/90 142/84/90 117/87/90
f 158/119/91 159/126/91 116/120/91
f 119/127/92 166/128/92 117/87/92
f 151/129/93 152/130/93 140/131/93 136/132/93
f 137/133/94 160/134/94 139/135/94
f 160/134/95 161/136/95 138/137/95 139/135/95
f 152/130/96 153/138/96 137/133/96 140/131/96
f 135/139/97 151/129/97 136/132/97
f 147/140/98 92/141/98 135/139/98 134/142/98
f 133/143/99 147/140/99 134/142/99
f 144/144/100 94/145/100 133/143/100 132/146/100
f 131/102/101 144/144/101 132/146/101
f 97/147/102 96/148/102 131/102/102 130/101/102
f 129/98/103 97/147/103 130/101/103
f 99/149/104 98/150/104 129/98/104 128/97/104
f 127/94/105 99/149/105 128/97/105
f 101/151/106 100/152/106 127/94/106 126/92/106
f 102/153/107 101/151/107 126/92/107 125/89/107
f 84/154/108 102/153/108 125/89/108 124/88/108
f 88/124/109 86/155/109 141/85/109 142/84/109
f 162/156/110 163/122/110 88/124/110 142/84/110 143/125/110
f 161/136/111 162/156/111 143/125/111 138/137/111
f 100/152/112 99/149/112 127/94/112
f 128/97/113 106/96/113 127/94/113
f 98/150/114 97/147/114 129/98/114
f 130/101/115 108/100/115 129/98/115
f 96/148/116 95/157/116 144/144/116 131/102/116
f 95/157/117 94/145/117 144/144/117
f 132/146/118 133/143/118 146/106/118 145/104/118
f 132/146/119 145/104/119 131/102/119
f 133/143/120 148/109/120 112/108/120 146/106/120
f 94/145/121 93/158/121 147/140/121 133/143/121
f 93/158/122 92/141/122 147/140/122
f 135/139/123 154/159/123 150/112/123 149/110/123
f 134/142/124 135/139/124 149/110/124 148/109/124
f 134/142/125 148/109/125 133/143/125
f 154/159/126 155/114/126 123/117/126 150/112/126
f 122/160/127 90/161/127 153/138/127 152/130/127
f 91/162/128 122/160/128 152/130/128 151/129/128
f 92/141/129 91/162/129 151/129/129 135/139/129
f 90/161/130 120/163/130 153/138/130
f 165/164/131 166/128/131 159/126/131 158/119/131
f 164/165/132 165/164/132 158/119/132 157/118/132
f 137/133/133 164/165/133 157/118/133 156/115/133
f 140/131/134 137/133/134 156/115/134 155/114/134
f 136/132/135 140/131/135 155/114/135 154/159/135
f 136/132/136 154/159/136 135/139/136
f 116/120/137 159/126/137 119/127/137
f 89/166/138 163/122/138 162/156/138
f 89/166/139 162/156/139 161/136/139
f 120/163/140 89/166/140 161/136/140 160/134/140
f 153/138/141 120/163/141 160/134/141 137/133/141
f 89/166/142 118/123/142 163/122/142
f 138/137/143 143/125/143 117/87/143 166/128/143 165/164/143
f 139/135/144 138/137/144 165/164/144 164/165/144
f 139/135/145 164/165/145 137/133/145
f 159/126/146 166/128/146 119/127/146
f 1/71/147 19/70/147 102/153/147 84/154/147
f 2/6/148 41/5/148 124/88/148 85/91/148
f 4/3/149 34/2/149 117/87/149 87/86/149
f 3/72/150 58/4/150 141/85/150 86/155/150
f 5/40/151 3/72/151 86/155/151 88/124/151
f 6/83/152 35/41/152 118/123/152 89/166/152
f 7/78/153 37/80/153 120/163/153 90/161/153
f 8/79/154 39/77/154 122/160/154 91/162/154
f 9/59/155 8/79/155 91/162/155 92/141/155
f 10/75/156 9/59/156 92/141/156 93/158/156
f 11/63/157 10/75/157 93/158/157 94/145/157
f 12/74/158 11/63/158 94/145/158 95/157/158
f 13/65/159 12/74/159 95/157/159 96/148/159
f 14/64/160 13/65/160 96/148/160 97/147/160
f 15/67/161 14/64/161 97/147/161 98/150/161
f 16/66/162 15/67/162 98/150/162 99/149/162
f 17/69/163 16/66/163 99/149/163 100/152/163
f 18/68/164 17/69/164 100/152/164 101/151/164
f 19/70/165 18/68/165 101/151/165 102/153/165
f 20/7/166 2/6/166 85/91/166 103/90/166
f 21/9/167 20/7/167 103/90/167 104/93/167
f 22/11/168 21/9/168 104/93/168 105/95/168
f 23/13/169 22/11/169 105/95/169 106/96/169
f 24/15/170 23/13/170 106/96/170 107/99/170
f 25/17/171 24/15/171 107/99/171 108/100/171
f 26/19/172 25/17/172 108/100/172 109/103/172
f 27/21/173 26/19/173 109/103/173 110/105/173
f 28/23/174 27/21/174 110/105/174 111/107/174
f 29/25/175 28/23/175 111/107/175 112/108/175
f 30/27/176 29/25/176 112/108/176 113/111/176
f 31/29/177 30/27/177 113/111/177 114/113/177
f 32/33/178 40/32/178 123/117/178 115/116/178
f 33/37/179 38/36/179 121/121/179 116/120/179
f 34/2/180 36/44/180 119/127/180 117/87/180
f 35/41/181 5/40/181 88/124/181 118/123/181
f 36/44/182 33/37/182 116/120/182 119/127/182
f 37/80/183 6/83/183 89/166/183 120/163/183
f 38/36/184 32/33/184 115/116/184 121/121/184
f 39/77/185 7/78/185 90/161/185 122/160/185
f 40/32/186 31/29/186 114/113/186 123/117/186
f 41/5/187 1/71/187 84/154/187 124/88/187
f 58/4/188 4/3/188 87/86/188 141/85/188
