# Blender v2.91.0 OBJ File: 'leaves.blend'
# www.blender.org
mtllib model_normalized.mtl
o Plane.006_Plane.001
v -0.024429 0.000000 0.341627
v -0.001906 0.000000 0.341627
v -0.033774 0.000000 -0.344175
v -0.013800 0.000000 -0.327185
v -0.044818 0.000000 -0.303459
v -0.056712 0.000000 -0.278884
v -0.065207 0.000000 -0.241566
v -0.089844 0.000000 -0.201699
v -0.110233 0.000000 -0.175425
v -0.112781 0.000000 -0.123664
v -0.220673 -0.004183 -0.165353
v -0.201133 0.000000 -0.116991
v -0.215576 0.000000 -0.092415
v -0.173099 0.000000 -0.001576
v -0.184992 0.000000 0.014504
v -0.231717 -0.003612 0.004248
v -0.224071 0.000000 0.035619
v -0.196036 0.000000 0.071238
v -0.144894 0.000000 0.119431
v -0.047367 0.000000 0.132282
v -0.019332 0.000000 0.142415
v -0.017633 0.000000 0.176335
v -0.017633 0.000000 0.208556
v -0.020182 0.000000 0.243326
v -0.025279 0.000000 0.275547
v -0.023580 0.000000 0.300122
v -0.021881 0.000000 0.322998
v -0.002756 0.000000 0.324698
v -0.005304 0.000000 0.299273
v -0.003605 0.000000 0.276397
v -0.001906 0.000000 0.244176
v 0.000642 0.000000 0.209406
v -0.001906 0.000000 0.172937
v -0.001906 0.000000 0.141566
v 0.043969 0.000000 0.137380
v 0.097490 0.000000 0.114503
v 0.163754 0.000000 0.090778
v 0.184143 0.000000 0.060256
v 0.207930 0.000000 0.028035
v 0.221522 -0.003612 -0.001638
v 0.175647 0.000000 -0.007523
v 0.224951 0.000000 -0.100772
v 0.210478 0.000000 -0.123787
v 0.208779 -0.004183 -0.188290
v 0.113131 0.000000 -0.107523
v 0.106835 0.000000 -0.177124
v 0.072004 0.000000 -0.200000
v 0.060110 0.000000 -0.241566
v 0.027828 0.000000 -0.278034
v 0.006589 0.000000 -0.300910
v -0.012505 0.000000 0.341627
v -0.011755 -0.006160 0.323898
v -0.013904 -0.006160 0.299673
v -0.013804 -0.006160 0.275997
v -0.010506 -0.006160 0.243776
v -0.007957 -0.006160 0.209006
v -0.009307 -0.006160 0.174536
v -0.010106 -0.006160 0.141966
v 0.000990 -0.006160 0.134981
v -0.016567 -0.009772 0.116822
v -0.005550 -0.010343 0.081583
v -0.007948 -0.006160 0.048663
v -0.024258 0.000000 -0.336081
v -0.005153 -0.006160 -0.115974
v -0.006819 -0.006160 -0.176234
v -0.012737 -0.006160 -0.200889
v -0.005504 -0.006160 -0.241566
v -0.016436 -0.006160 -0.278479
v -0.020327 -0.006160 -0.302245
v -0.005389 -0.006160 -0.102076
v -0.005486 -0.006160 -0.096401
v -0.007047 -0.006160 -0.004408
v -0.007581 -0.006160 0.027072
v -0.007741 -0.006160 0.036473
v -0.092580 -0.006958 0.076857
v -0.164792 -0.005302 0.039197
v -0.198063 -0.003612 0.021566
v 0.048241 -0.007815 0.084505
v 0.106313 -0.006108 0.055559
v 0.114257 -0.005856 0.051594
v 0.119366 -0.005693 0.049044
v 0.179001 -0.003612 0.019234
v 0.193485 -0.003612 0.012125
v -0.035586 -0.010192 0.046995
v -0.049370 -0.008896 0.031313
v -0.061174 -0.008348 0.017796
v -0.079464 -0.007657 -0.003173
v -0.158096 -0.005868 -0.093506
v -0.159396 -0.005830 -0.094997
v -0.169526 -0.004183 -0.106414
v -0.180084 -0.004183 -0.118581
v 0.019200 -0.010331 0.050301
v 0.026766 -0.010257 0.040750
v 0.032154 -0.010197 0.033949
v 0.063754 -0.007956 -0.005615
v 0.137924 -0.006509 -0.099122
v 0.143434 -0.004183 -0.105693
v 0.149717 -0.004183 -0.113635
v -0.025358 -0.001369 0.342595
v -0.000938 -0.001327 0.342783
v -0.034319 -0.001483 -0.344887
v -0.013093 -0.001372 -0.328471
v -0.045444 -0.001493 -0.303871
v -0.057238 -0.001520 -0.278944
v -0.065579 -0.001537 -0.241729
v -0.090115 -0.001546 -0.201879
v -0.110459 -0.001551 -0.175472
v -0.112868 -0.001521 -0.124402
v -0.220881 -0.005726 -0.164979
v -0.201682 -0.001502 -0.116516
v -0.215957 -0.001537 -0.092283
v -0.173384 -0.001546 -0.001462
v -0.185046 -0.001495 0.013536
v -0.231832 -0.005154 0.004710
v -0.224340 -0.001502 0.036448
v -0.196321 -0.001520 0.071873
v -0.145161 -0.001519 0.120102
v -0.047645 -0.001122 0.134647
v -0.020515 -0.001284 0.143383
v -0.019383 -0.001066 0.176439
v -0.019343 -0.001093 0.208464
v -0.021811 -0.001134 0.242979
v -0.026880 -0.001159 0.275392
v -0.025211 -0.001140 0.300315
v -0.023203 -0.001269 0.323633
v -0.001366 -0.001252 0.325180
v -0.003570 -0.001077 0.299170
v -0.001903 -0.001095 0.276604
v -0.000169 -0.001069 0.244447
v 0.002448 -0.001027 0.209440
v -0.000063 -0.000997 0.172812
v -0.000783 -0.000935 0.143811
v 0.044318 -0.001400 0.138812
v 0.097759 -0.001476 0.115538
v 0.164005 -0.001531 0.091308
v 0.184431 -0.001523 0.060849
v 0.208237 -0.001489 0.028953
v 0.221605 -0.005161 -0.001287
v 0.175770 -0.001553 -0.007721
v 0.225195 -0.001550 -0.100736
v 0.210726 -0.001548 -0.123651
v 0.208934 -0.005734 -0.188037
v 0.113128 -0.001365 -0.109191
v 0.107038 -0.001552 -0.177227
v 0.072254 -0.001544 -0.200292
v 0.060439 -0.001542 -0.241720
v 0.028278 -0.001511 -0.278571
v 0.007228 -0.001454 -0.301741
v -0.012514 -0.001469 0.342781
v -0.011606 -0.007696 0.324426
v -0.013904 -0.007717 0.299746
v -0.013807 -0.007718 0.276014
v -0.010413 -0.007716 0.243733
v -0.007797 -0.007714 0.208964
v -0.009249 -0.007717 0.174518
v -0.010355 -0.007590 0.143290
v 0.001183 -0.007297 0.137328
v -0.016646 -0.011218 0.118101
v -0.005530 -0.011900 0.081455
v -0.007943 -0.007681 0.047913
v -0.024438 -0.001498 -0.336992
v -0.005121 -0.007711 -0.116285
v -0.006807 -0.007716 -0.176393
v -0.012800 -0.007714 -0.201100
v -0.005442 -0.007714 -0.241785
v -0.016469 -0.007710 -0.278818
v -0.020318 -0.007681 -0.302993
v -0.005363 -0.007648 -0.103094
v -0.005496 -0.007685 -0.097107
v -0.007070 -0.007715 -0.004603
v -0.007634 -0.007710 0.026740
v -0.007799 -0.007703 0.036012
v -0.092789 -0.008500 0.077250
v -0.164996 -0.006853 0.039051
v -0.198076 -0.005156 0.021105
v 0.048457 -0.009342 0.085112
v 0.106525 -0.007651 0.055917
v 0.114477 -0.007395 0.052018
v 0.119593 -0.007242 0.049244
v 0.179161 -0.005167 0.019265
v 0.193537 -0.005170 0.012073
v -0.035446 -0.011736 0.046586
v -0.049305 -0.010423 0.030626
v -0.061236 -0.009905 0.017651
v -0.079596 -0.009212 -0.003075
v -0.158265 -0.007421 -0.093334
v -0.159612 -0.007374 -0.095330
v -0.169664 -0.005725 -0.106877
v -0.180232 -0.005738 -0.118674
v 0.019043 -0.011884 0.050181
v 0.026651 -0.011813 0.040703
v 0.032124 -0.011753 0.033799
v 0.063822 -0.009511 -0.005779
v 0.138058 -0.007975 -0.100277
v 0.143362 -0.005603 -0.107112
v 0.149596 -0.005729 -0.114026
vt 0.062319 0.568287
vt 0.059674 0.508933
vt 0.022754 0.556956
vt 0.010840 0.581065
vt 0.734379 0.762027
vt 0.752037 0.744330
vt 0.752037 0.642631
vt 0.729206 0.737145
vt 0.729206 0.471163
vt 0.725539 0.376223
vt 0.681625 0.260677
vt 0.704406 0.511873
vt 0.634303 0.117094
vt 0.644073 0.372558
vt 0.584137 0.075573
vt 0.590031 0.247723
vt 0.503334 0.348621
vt 0.481613 0.102090
vt 0.330490 0.003913
vt 0.347653 0.195627
vt 0.345426 0.513459
vt 0.338605 0.251565
vt 0.232925 0.273435
vt 0.253303 0.524035
vt 0.203600 0.352955
vt 0.216476 0.539925
vt 0.141830 0.383973
vt 0.152912 0.528613
vt 0.091243 0.459423
vt 0.098117 0.556975
vt 0.199135 0.049485
vt 0.323359 0.171336
vt 0.305223 0.995014
vt 0.375983 0.946490
vt 0.370237 0.900046
vt 0.336573 0.184299
vt 0.387148 0.875343
vt 0.351161 0.752188
vt 0.577870 0.219664
vt 0.522231 0.091490
vt 0.405121 0.848569
vt 0.403047 0.851611
vt 0.416050 0.975562
vt 0.366776 0.512389
vt 0.508938 0.060326
vt 0.582630 0.230646
vt 0.567075 1.000000
vt 0.613770 0.979659
vt 0.588073 0.923716
vt 0.483206 0.000000
vt 0.648577 0.491563
vt 0.598328 0.500778
vt 0.600496 0.561844
vt 0.655566 0.684376
vt 0.729206 0.534792
vt 0.732987 0.642631
vt 0.762815 0.606894
vt 0.762815 0.321434
vt 0.791405 0.015043
vt 0.812032 0.014435
vt 0.836506 0.003484
vt 0.729206 0.000000
vt 0.103901 0.646168
vt 0.064255 0.622723
vt 0.162524 0.660652
vt 0.227721 0.710481
vt 0.271375 0.752488
vt 0.000000 0.603002
vt 0.578675 0.594118
vt 0.579603 0.501717
vt 0.565162 0.502441
vt 0.559876 0.621747
vt 0.516805 0.504866
vt 0.530717 0.664555
vt 0.375493 0.511951
vt 0.609680 0.848179
vt 0.663757 0.913685
vt 0.729205 0.795254
vt 0.574940 0.895798
vt 0.530804 0.026745
vt 0.569307 0.413777
vt 0.580627 0.424892
vt 0.596524 0.440501
vt 0.548321 0.871380
vt 0.297592 0.038500
vt 0.062319 0.568287
vt 0.010840 0.581065
vt 0.022754 0.556956
vt 0.059674 0.508933
vt 0.734379 0.762027
vt 0.729206 0.737145
vt 0.752037 0.642631
vt 0.752037 0.744330
vt 0.729206 0.471163
vt 0.704406 0.511873
vt 0.681625 0.260677
vt 0.725539 0.376223
vt 0.644073 0.372558
vt 0.634303 0.117094
vt 0.590031 0.247723
vt 0.584137 0.075573
vt 0.503334 0.348621
vt 0.347653 0.195627
vt 0.330490 0.003913
vt 0.481613 0.102090
vt 0.345426 0.513459
vt 0.253303 0.524035
vt 0.232925 0.273435
vt 0.338605 0.251565
vt 0.216476 0.539925
vt 0.203600 0.352955
vt 0.152912 0.528613
vt 0.141830 0.383973
vt 0.098117 0.556975
vt 0.091243 0.459423
vt 0.199135 0.049485
vt 0.323359 0.171336
vt 0.305223 0.995014
vt 0.370237 0.900046
vt 0.375983 0.946490
vt 0.336573 0.184299
vt 0.351161 0.752188
vt 0.387148 0.875343
vt 0.577870 0.219664
vt 0.522231 0.091490
vt 0.405121 0.848569
vt 0.416050 0.975562
vt 0.403047 0.851611
vt 0.366776 0.512389
vt 0.508938 0.060326
vt 0.582630 0.230646
vt 0.567075 1.000000
vt 0.588073 0.923716
vt 0.613770 0.979659
vt 0.483206 0.000000
vt 0.648577 0.491563
vt 0.600496 0.561844
vt 0.598328 0.500778
vt 0.655566 0.684376
vt 0.729206 0.534792
vt 0.762815 0.321434
vt 0.762815 0.606894
vt 0.732987 0.642631
vt 0.791405 0.015043
vt 0.729206 0.000000
vt 0.836506 0.003484
vt 0.812032 0.014435
vt 0.103901 0.646168
vt 0.064255 0.622723
vt 0.162524 0.660652
vt 0.227721 0.710481
vt 0.271375 0.752488
vt 0.000000 0.603002
vt 0.578675 0.594118
vt 0.559876 0.621747
vt 0.565162 0.502441
vt 0.579603 0.501717
vt 0.530717 0.664555
vt 0.516805 0.504866
vt 0.375493 0.511951
vt 0.609680 0.848179
vt 0.663757 0.913685
vt 0.729205 0.795254
vt 0.574940 0.895798
vt 0.530804 0.026745
vt 0.569307 0.413777
vt 0.580627 0.424892
vt 0.596524 0.440501
vt 0.548321 0.871380
vt 0.297592 0.038500
vt 0.809134 0.321206
vt 0.832599 0.321003
vt 0.830496 0.294989
vt 0.810769 0.294194
vt 0.824520 0.255947
vt 0.805694 0.256987
vt 0.827981 0.220742
vt 0.805604 0.220584
vt 0.831320 0.171168
vt 0.812483 0.170979
vt 0.836506 0.117660
vt 0.817670 0.117471
vt 0.830385 0.061637
vt 0.814230 0.064499
vt 0.829973 0.013402
vt 0.795612 0.067163
vt 0.796035 0.116704
vt 0.790848 0.170212
vt 0.779987 0.219851
vt 0.784071 0.257603
vt 0.788132 0.292744
vt 0.782735 0.321434
vt 0.809134 0.321206
vt 0.810769 0.294194
vt 0.830496 0.294989
vt 0.832599 0.321003
vt 0.805694 0.256987
vt 0.824520 0.255947
vt 0.805604 0.220584
vt 0.827981 0.220742
vt 0.812483 0.170979
vt 0.831320 0.171168
vt 0.817670 0.117471
vt 0.836506 0.117660
vt 0.814230 0.064499
vt 0.830385 0.061637
vt 0.829973 0.013402
vt 0.795612 0.067163
vt 0.796035 0.116704
vt 0.790848 0.170212
vt 0.779987 0.219851
vt 0.784071 0.257603
vt 0.788132 0.292744
vt 0.782735 0.321434
vn -0.0079 0.9947 0.1021
vn 0.2566 0.9360 -0.2410
vn 0.2418 0.9398 -0.2412
vn 0.3669 0.8671 -0.3370
vn 0.0545 0.9784 -0.1991
vn -0.1941 0.9511 -0.2403
vn 0.0560 0.9637 0.2610
vn -0.0644 0.8961 -0.4392
vn 0.1285 0.9242 0.3595
vn 0.0210 0.9801 -0.1971
vn 0.3597 0.8225 0.4405
vn -0.0592 0.9951 -0.0793
vn 0.4181 0.8632 0.2828
vn -0.0577 0.9972 -0.0476
vn -0.0178 0.9996 0.0203
vn 0.2432 0.9631 -0.1153
vn 0.7474 0.6632 -0.0375
vn -0.0335 0.9822 0.1845
vn -0.0084 0.9990 0.0428
vn 0.0186 0.9951 0.0968
vn 0.6071 0.7017 -0.3728
vn -0.0015 0.9998 0.0203
vn 0.3796 0.8758 -0.2980
vn 0.0131 0.9995 0.0276
vn 0.5361 0.7863 -0.3068
vn -0.0108 0.9995 0.0279
vn 0.3464 0.8757 -0.3363
vn 0.0075 0.9989 0.0452
vn 0.2370 0.7685 -0.5943
vn 0.0337 0.9981 0.0502
vn -0.3707 0.7383 -0.5634
vn -0.3648 0.9292 -0.0593
vn 0.0428 0.9991 0.0063
vn 0.0135 0.9783 0.2065
vn 0.0418 0.9970 0.0641
vn -0.1024 0.9827 -0.1542
vn -0.0615 0.9977 -0.0283
vn -0.0467 0.9989 -0.0067
vn 0.0459 0.9987 -0.0228
vn 0.0577 0.9973 0.0440
vn -0.6900 0.7207 -0.0667
vn -0.0064 0.9876 0.1567
vn -0.0129 0.9999 0.0038
vn -0.0598 0.9966 -0.0559
vn -0.4318 0.6976 -0.5717
vn -0.5665 0.8028 0.1856
vn 0.0027 0.9981 0.0618
vn 0.6123 0.6336 -0.4728
vn -0.0052 0.9999 0.0088
vn -0.0008 0.9950 0.1001
vn -0.0408 0.9973 0.0602
vn 0.0568 0.9970 -0.0515
vn -0.0137 0.9966 0.0815
vn -0.2109 0.8929 0.3977
vn 0.0968 0.9951 0.0164
vn -0.5073 0.8373 -0.2037
vn -0.4062 0.8998 -0.1592
vn -0.4721 0.8564 -0.2091
vn -0.4746 0.8088 -0.3473
vn -0.6494 0.7178 -0.2510
vn -0.0583 0.7902 -0.6101
vn -0.0174 0.9958 0.0897
vn 0.0151 0.9980 0.0609
vn 0.0136 0.9989 0.0439
vn 0.0164 0.9997 0.0184
vn 0.0064 0.9996 0.0255
vn 0.0354 0.9993 -0.0128
vn 0.0029 0.9935 0.1136
vn 0.0554 0.9983 0.0169
vn -0.3880 0.8557 0.3423
vn -0.1184 0.9492 -0.2917
vn 0.4992 0.8381 0.2201
vn 0.0101 0.9997 0.0217
vn 0.0324 0.9995 0.0066
vn 0.0437 0.9989 0.0183
vn -0.3990 0.9158 -0.0456
vn 0.5243 0.8316 -0.1831
vn 0.0074 -0.9948 -0.1013
vn 0.4487 -0.5324 -0.7178
vn 0.6785 -0.2974 -0.6717
vn 0.7272 -0.3702 -0.5780
vn -0.0712 -0.9802 0.1846
vn 0.0671 -0.8906 0.4498
vn 0.3139 -0.2167 0.9244
vn 0.7053 0.1844 0.6844
vn -0.0208 -0.9808 0.1940
vn 0.3544 -0.3972 0.8466
vn 0.0590 -0.9951 0.0791
vn 0.5606 -0.4250 0.7107
vn 0.0576 -0.9972 0.0476
vn 0.6894 -0.5230 0.5011
vn 0.0179 -0.9996 -0.0204
vn 0.0339 -0.9832 -0.1793
vn 0.8310 -0.5558 -0.0188
vn 0.3503 -0.9168 -0.1918
vn 0.0089 -0.9991 -0.0412
vn 0.0017 -0.9998 -0.0198
vn 0.7319 -0.5361 -0.4207
vn 0.2221 -0.7713 -0.5964
vn -0.0132 -0.9995 -0.0276
vn 0.5934 -0.6894 -0.4154
vn 0.0110 -0.9995 -0.0277
vn 0.7611 -0.5174 -0.3911
vn -0.0078 -0.9990 -0.0448
vn 0.6707 -0.4777 -0.5673
vn 0.5309 -0.1369 -0.8363
vn -0.0333 -0.9982 -0.0488
vn -0.7604 -0.1523 -0.6313
vn -0.0425 -0.9991 -0.0065
vn -0.7541 -0.6546 -0.0525
vn -0.0154 -0.9791 -0.2026
vn -0.2762 -0.8624 -0.4242
vn -0.0414 -0.9970 -0.0646
vn 0.0615 -0.9977 0.0271
vn 0.0465 -0.9989 0.0068
vn -0.0478 -0.9987 0.0197
vn -0.8654 -0.5010 -0.0043
vn -0.0560 -0.9971 -0.0517
vn 0.0066 -0.9880 -0.1540
vn 0.0118 -0.9999 -0.0054
vn 0.0599 -0.9966 0.0562
vn -0.7632 -0.3092 -0.5672
vn -0.0038 -0.9979 -0.0646
vn -0.7629 -0.4683 0.4456
vn 0.8149 -0.4440 -0.3725
vn 0.0050 -0.9999 -0.0073
vn 0.0411 -0.9973 -0.0606
vn 0.0006 -0.9951 -0.0992
vn -0.0566 -0.9971 0.0512
vn -0.2320 -0.1105 0.9664
vn -0.4665 -0.3237 0.8231
vn -0.8722 -0.1310 0.4711
vn -0.8325 -0.4937 -0.2514
vn -0.8236 -0.4830 -0.2971
vn -0.7418 -0.6066 -0.2859
vn -0.6578 -0.6150 -0.4347
vn -0.7767 -0.5685 -0.2709
vn -0.4499 -0.2424 -0.8595
vn 0.0179 -0.9959 -0.0888
vn -0.0170 -0.9997 -0.0172
vn -0.0136 -0.9989 -0.0440
vn -0.0148 -0.9980 -0.0612
vn -0.0354 -0.9993 0.0130
vn -0.0063 -0.9996 -0.0258
vn -0.0029 -0.9938 -0.1111
vn -0.0554 -0.9983 -0.0164
vn -0.6372 -0.4817 0.6016
vn -0.2533 -0.6778 -0.6902
vn 0.7365 -0.4686 0.4878
vn -0.0102 -0.9997 -0.0217
vn -0.0324 -0.9995 -0.0065
vn -0.0442 -0.9988 -0.0185
vn -0.6647 -0.7444 -0.0630
vn 0.6883 -0.7004 -0.1890
vn -0.0033 0.9268 0.3756
vn 0.2625 0.9229 0.2814
vn 0.1535 0.9860 -0.0652
vn -0.0444 0.9962 -0.0739
vn -0.0272 0.9996 0.0054
vn -0.0110 0.9999 -0.0085
vn -0.0058 1.0000 0.0013
vn -0.0101 0.9999 -0.0033
vn -0.0310 0.9995 -0.0056
vn -0.0316 0.9995 0.0052
vn -0.0341 0.9994 -0.0018
vn -0.0481 0.9988 0.0060
vn -0.0723 0.9974 0.0003
vn -0.0249 0.9997 0.0029
vn 0.0046 1.0000 -0.0024
vn 0.0185 0.9998 -0.0030
vn -0.0109 0.9999 -0.0060
vn -0.0815 0.9967 -0.0012
vn -0.0519 0.9986 0.0095
vn -0.1362 0.9889 -0.0594
vn -0.3049 0.9074 0.2891
vn -0.0011 -0.3396 0.9405
vn 0.0418 -0.9964 0.0738
vn 0.9865 -0.1614 0.0255
vn 0.7248 -0.0975 0.6819
vn 0.0080 -0.9999 0.0085
vn 0.9995 -0.0241 -0.0182
vn 0.0070 -1.0000 0.0031
vn 0.9980 -0.0116 0.0614
vn 0.0303 -0.9995 -0.0048
vn 0.9975 0.0056 0.0699
vn 0.0472 -0.9989 -0.0053
vn 0.9994 0.0337 0.0074
vn 0.0244 -0.9997 -0.0062
vn 0.9986 0.0336 -0.0411
vn -0.9993 -0.0268 0.0246
vn -0.9994 -0.0184 -0.0303
vn -0.9931 -0.0462 -0.1074
vn -0.9973 -0.0563 -0.0476
vn -0.9953 -0.0689 0.0684
vn -0.9760 -0.2130 0.0445
vn -0.7612 -0.1074 0.6395
usemtl Material.010
s 1
f 69/1/1 50/2/2 4/3/3 63/4/4
f 58/5/5 34/6/6 35/7/7 59/8/8
f 59/9/8 35/10/7 36/11/9 60/12/10
f 60/12/10 36/11/9 37/13/11 78/14/12
f 78/14/12 37/13/11 38/15/13 79/16/14
f 95/17/15 41/18/16 42/19/17 96/20/18
f 64/21/19 45/22/20 46/23/21 65/24/22
f 65/24/22 46/23/21 47/25/23 66/26/24
f 66/26/24 47/25/23 48/27/25 67/28/26
f 67/28/26 48/27/25 49/29/27 68/30/28
f 68/30/28 49/29/27 50/2/2 69/1/1
f 44/31/29 45/22/20 98/32/30
f 11/33/31 12/34/32 91/35/33
f 97/36/34 98/32/30 45/22/20
f 91/35/33 90/37/35 10/38/36
f 81/39/37 38/15/13 82/40/38
f 88/41/39 89/42/40 13/43/41
f 70/44/42 45/22/20 64/21/19
f 82/40/38 83/45/43 41/18/16
f 80/46/44 38/15/13 81/39/37
f 16/47/45 17/48/46 77/49/47
f 79/16/14 38/15/13 80/46/44
f 40/50/48 41/18/16 83/45/43
f 61/51/49 62/52/50 84/53/51
f 60/12/10 61/51/49 75/54/52
f 20/55/53 59/56/8 60/57/10 19/58/54
f 21/59/55 58/60/5 59/61/8 20/62/53
f 6/63/56 68/30/28 69/1/1 5/64/57
f 7/65/58 67/28/26 68/30/28 6/63/56
f 8/66/59 66/26/24 67/28/26 7/65/58
f 9/67/60 65/24/22 66/26/24 8/66/59
f 10/38/36 64/21/19 65/24/22 9/67/60
f 5/64/57 69/1/1 63/4/4 3/68/61
f 85/69/62 74/70/63 73/71/64 86/72/65
f 86/72/65 73/71/64 72/73/66 87/74/67
f 87/74/67 72/73/66 71/75/68 88/41/39
f 97/36/34 45/22/20 70/44/42 71/75/68 96/20/18
f 89/42/40 70/44/42 64/21/19 10/38/36 90/37/35
f 84/53/51 62/52/50 74/70/63 85/69/62
f 17/48/46 76/76/69 77/49/47
f 18/77/70 75/54/52 76/76/69 17/48/46
f 19/78/54 60/12/10 75/54/52 18/77/70
f 15/79/71 16/47/45 77/49/47
f 38/15/13 39/80/72 83/45/43 82/40/38
f 94/81/73 81/39/37 82/40/38 41/18/16 95/17/15
f 93/82/74 80/46/44 81/39/37 94/81/73
f 92/83/75 79/16/14 80/46/44 93/82/74
f 61/51/49 78/14/12 79/16/14 92/83/75
f 61/51/49 60/12/10 78/14/12
f 39/80/72 40/50/48 83/45/43
f 12/34/32 13/43/41 90/37/35 91/35/33
f 13/43/41 89/42/40 90/37/35
f 71/75/68 70/44/42 89/42/40 88/41/39
f 14/84/76 87/74/67 88/41/39 13/43/41
f 14/84/76 86/72/65 87/74/67
f 15/79/71 85/69/62 86/72/65 14/84/76
f 76/76/69 84/53/51 85/69/62 15/79/71 77/49/47
f 75/54/52 61/51/49 84/53/51 76/76/69
f 10/38/36 11/33/31 91/35/33
f 42/19/17 43/85/77 98/32/30 97/36/34
f 42/19/17 97/36/34 96/20/18
f 72/73/66 95/17/15 96/20/18 71/75/68
f 73/71/64 94/81/73 95/17/15 72/73/66
f 74/70/63 93/82/74 94/81/73 73/71/64
f 62/52/50 92/83/75 93/82/74 74/70/63
f 62/52/50 61/51/49 92/83/75
f 43/85/77 44/31/29 98/32/30
f 167/86/78 161/87/79 102/88/80 148/89/81
f 156/90/82 157/91/83 133/92/84 132/93/85
f 157/94/83 158/95/86 134/96/87 133/97/84
f 158/95/86 176/98/88 135/99/89 134/96/87
f 176/98/88 177/100/90 136/101/91 135/99/89
f 193/102/92 194/103/93 140/104/94 139/105/95
f 162/106/96 163/107/97 144/108/98 143/109/99
f 163/107/97 164/110/100 145/111/101 144/108/98
f 164/110/100 165/112/102 146/113/103 145/111/101
f 165/112/102 166/114/104 147/115/105 146/113/103
f 166/114/104 167/86/78 148/89/81 147/115/105
f 142/116/106 196/117/107 143/109/99
f 109/118/108 189/119/109 110/120/110
f 195/121/111 143/109/99 196/117/107
f 189/119/109 108/122/112 188/123/113
f 179/124/114 180/125/115 136/101/91
f 186/126/116 111/127/117 187/128/118
f 168/129/119 162/106/96 143/109/99
f 180/125/115 139/105/95 181/130/120
f 178/131/121 179/124/114 136/101/91
f 114/132/122 175/133/123 115/134/124
f 177/100/90 178/131/121 136/101/91
f 138/135/125 181/130/120 139/105/95
f 159/136/126 182/137/127 160/138/128
f 158/95/86 173/139/129 159/136/126
f 118/140/130 117/141/131 158/142/86 157/143/83
f 119/144/132 118/145/130 157/146/83 156/147/82
f 104/148/133 103/149/134 167/86/78 166/114/104
f 105/150/135 104/148/133 166/114/104 165/112/102
f 106/151/136 105/150/135 165/112/102 164/110/100
f 107/152/137 106/151/136 164/110/100 163/107/97
f 108/122/112 107/152/137 163/107/97 162/106/96
f 103/149/134 101/153/138 161/87/79 167/86/78
f 183/154/139 184/155/140 171/156/141 172/157/142
f 184/155/140 185/158/143 170/159/144 171/156/141
f 185/158/143 186/126/116 169/160/145 170/159/144
f 195/121/111 194/103/93 169/160/145 168/129/119 143/109/99
f 187/128/118 188/123/113 108/122/112 162/106/96 168/129/119
f 182/137/127 183/154/139 172/157/142 160/138/128
f 115/134/124 175/133/123 174/161/146
f 116/162/147 115/134/124 174/161/146 173/139/129
f 117/163/131 116/162/147 173/139/129 158/95/86
f 113/164/148 175/133/123 114/132/122
f 136/101/91 180/125/115 181/130/120 137/165/149
f 192/166/150 193/102/92 139/105/95 180/125/115 179/124/114
f 191/167/151 192/166/150 179/124/114 178/131/121
f 190/168/152 191/167/151 178/131/121 177/100/90
f 159/136/126 190/168/152 177/100/90 176/98/88
f 159/136/126 176/98/88 158/95/86
f 137/165/149 181/130/120 138/135/125
f 110/120/110 189/119/109 188/123/113 111/127/117
f 111/127/117 188/123/113 187/128/118
f 169/160/145 186/126/116 187/128/118 168/129/119
f 112/169/153 111/127/117 186/126/116 185/158/143
f 112/169/153 185/158/143 184/155/140
f 113/164/148 112/169/153 184/155/140 183/154/139
f 174/161/146 175/133/123 113/164/148 183/154/139 182/137/127
f 173/139/129 174/161/146 182/137/127 159/136/126
f 108/122/112 189/119/109 109/118/108
f 140/104/94 195/121/111 196/117/107 141/170/154
f 140/104/94 194/103/93 195/121/111
f 170/159/144 169/160/145 194/103/93 193/102/92
f 171/156/141 170/159/144 193/102/92 192/166/150
f 172/157/142 171/156/141 192/166/150 191/167/151
f 160/138/128 172/157/142 191/167/151 190/168/152
f 160/138/128 190/168/152 159/136/126
f 141/170/154 196/117/107 142/116/106
f 4/3/3 50/2/2 148/89/81 102/88/80
f 3/68/61 63/4/4 161/87/79 101/153/138
f 5/64/57 3/68/61 101/153/138 103/149/134
f 6/63/56 5/64/57 103/149/134 104/148/133
f 7/65/58 6/63/56 104/148/133 105/150/135
f 8/66/59 7/65/58 105/150/135 106/151/136
f 9/67/60 8/66/59 106/151/136 107/152/137
f 10/38/36 9/67/60 107/152/137 108/122/112
f 11/33/31 10/38/36 108/122/112 109/118/108
f 12/34/32 11/33/31 109/118/108 110/120/110
f 13/43/41 12/34/32 110/120/110 111/127/117
f 14/84/76 13/43/41 111/127/117 112/169/153
f 15/79/71 14/84/76 112/169/153 113/164/148
f 16/47/45 15/79/71 113/164/148 114/132/122
f 17/48/46 16/47/45 114/132/122 115/134/124
f 18/77/70 17/48/46 115/134/124 116/162/147
f 19/78/54 18/77/70 116/162/147 117/163/131
f 20/55/53 19/58/54 117/141/131 118/140/130
f 21/59/55 20/62/53 118/145/130 119/144/132
f 35/7/7 34/6/6 132/93/85 133/92/84
f 36/11/9 35/10/7 133/97/84 134/96/87
f 37/13/11 36/11/9 134/96/87 135/99/89
f 38/15/13 37/13/11 135/99/89 136/101/91
f 39/80/72 38/15/13 136/101/91 137/165/149
f 40/50/48 39/80/72 137/165/149 138/135/125
f 41/18/16 40/50/48 138/135/125 139/105/95
f 42/19/17 41/18/16 139/105/95 140/104/94
f 43/85/77 42/19/17 140/104/94 141/170/154
f 44/31/29 43/85/77 141/170/154 142/116/106
f 45/22/20 44/31/29 142/116/106 143/109/99
f 46/23/21 45/22/20 143/109/99 144/108/98
f 47/25/23 46/23/21 144/108/98 145/111/101
f 48/27/25 47/25/23 145/111/101 146/113/103
f 49/29/27 48/27/25 146/113/103 147/115/105
f 50/2/2 49/29/27 147/115/105 148/89/81
f 63/4/4 4/3/3 102/88/80 161/87/79
usemtl Material.011
f 51/171/155 2/172/156 28/173/157 52/174/158
f 52/174/158 28/173/157 29/175/159 53/176/160
f 53/176/160 29/175/159 30/177/161 54/178/162
f 54/178/162 30/177/161 31/179/163 55/180/164
f 55/180/164 31/179/163 32/181/165 56/182/166
f 56/182/166 32/181/165 33/183/167 57/184/168
f 57/184/168 33/183/167 34/185/6 58/60/5
f 22/186/169 57/184/168 58/60/5 21/59/55
f 23/187/170 56/182/166 57/184/168 22/186/169
f 24/188/171 55/180/164 56/182/166 23/187/170
f 25/189/172 54/178/162 55/180/164 24/188/171
f 26/190/173 53/176/160 54/178/162 25/189/172
f 27/191/174 52/174/158 53/176/160 26/190/173
f 1/192/175 51/171/155 52/174/158 27/191/174
f 149/193/176 150/194/177 126/195/178 100/196/179
f 150/194/177 151/197/180 127/198/181 126/195/178
f 151/197/180 152/199/182 128/200/183 127/198/181
f 152/199/182 153/201/184 129/202/185 128/200/183
f 153/201/184 154/203/186 130/204/187 129/202/185
f 154/203/186 155/205/188 131/206/189 130/204/187
f 155/205/188 156/147/82 132/207/85 131/206/189
f 120/208/190 119/144/132 156/147/82 155/205/188
f 121/209/191 120/208/190 155/205/188 154/203/186
f 122/210/192 121/209/191 154/203/186 153/201/184
f 123/211/193 122/210/192 153/201/184 152/199/182
f 124/212/194 123/211/193 152/199/182 151/197/180
f 125/213/195 124/212/194 151/197/180 150/194/177
f 99/214/196 125/213/195 150/194/177 149/193/176
f 1/192/175 27/191/174 125/213/195 99/214/196
f 2/172/156 51/171/155 149/193/176 100/196/179
f 22/186/169 21/59/55 119/144/132 120/208/190
f 23/187/170 22/186/169 120/208/190 121/209/191
f 24/188/171 23/187/170 121/209/191 122/210/192
f 25/189/172 24/188/171 122/210/192 123/211/193
f 26/190/173 25/189/172 123/211/193 124/212/194
f 27/191/174 26/190/173 124/212/194 125/213/195
f 28/173/157 2/172/156 100/196/179 126/195/178
f 29/175/159 28/173/157 126/195/178 127/198/181
f 30/177/161 29/175/159 127/198/181 128/200/183
f 31/179/163 30/177/161 128/200/183 129/202/185
f 32/181/165 31/179/163 129/202/185 130/204/187
f 33/183/167 32/181/165 130/204/187 131/206/189
f 34/185/6 33/183/167 131/206/189 132/207/85
f 51/171/155 1/192/175 99/214/196 149/193/176
