# Blender v2.91.0 OBJ File: 'leaves.blend'
# www.blender.org
mtllib model_normalized.mtl
o Plane.004_Plane.006
v -0.017561 0.000000 0.319592
v 0.003289 0.000000 0.320611
v -0.018581 0.000000 -0.308378
v -0.007925 0.000000 -0.284931
v -0.048145 0.000000 -0.259853
v -0.087903 0.000000 -0.212687
v -0.116447 0.000000 -0.172997
v -0.130720 0.000000 -0.138745
v -0.139895 0.000000 -0.096336
v -0.149070 0.000000 -0.062083
v -0.161303 0.000000 -0.020694
v -0.155186 0.000000 0.024093
v -0.136836 0.000000 0.073297
v -0.112370 0.000000 0.114686
v -0.076689 0.000000 0.145881
v -0.051203 0.000000 0.178095
v -0.022659 0.000000 0.205211
v -0.019600 0.000000 0.258834
v -0.004867 0.000000 0.258834
v -0.003847 0.000000 0.202153
v 0.018581 0.000000 0.180133
v 0.055281 0.000000 0.148939
v 0.088922 0.000000 0.117745
v 0.124603 0.000000 0.076356
v 0.150089 0.000000 0.038365
v 0.157225 0.000000 -0.007442
v 0.156206 0.000000 -0.053928
v 0.141934 0.000000 -0.085122
v 0.131739 0.000000 -0.121414
v 0.108292 0.000000 -0.158725
v 0.090961 0.000000 -0.185162
v 0.029795 0.000000 -0.251697
v -0.007136 0.000000 0.320102
v -0.013253 0.000000 -0.296654
v -0.012233 -0.008124 0.258834
v -0.013253 -0.008124 0.203682
v -0.016311 -0.008124 0.179114
v -0.010704 -0.008124 0.147410
v -0.011724 -0.008124 0.116215
v -0.006117 -0.008124 0.078225
v -0.002549 -0.008124 0.027831
v -0.002039 -0.008124 -0.014068
v 0.003568 -0.008124 -0.052908
v 0.001019 -0.008124 -0.095826
v 0.000510 -0.008124 -0.130079
v -0.004078 -0.008124 -0.159065
v 0.001529 -0.008124 -0.205721
v -0.009175 -0.008124 -0.255775
v -0.018275 -0.001340 0.320116
v 0.004009 -0.001361 0.320708
v -0.018811 -0.001452 -0.309167
v -0.007509 -0.001288 -0.286369
v -0.048364 -0.001493 -0.260220
v -0.088042 -0.001506 -0.212953
v -0.116563 -0.001512 -0.173119
v -0.130828 -0.001514 -0.138794
v -0.139992 -0.001514 -0.096403
v -0.149161 -0.001514 -0.062162
v -0.161394 -0.001515 -0.020716
v -0.155283 -0.001514 0.024146
v -0.136950 -0.001512 0.073436
v -0.112501 -0.001511 0.114832
v -0.076880 -0.001497 0.146236
v -0.051531 -0.001469 0.178563
v -0.023493 -0.001242 0.206022
v -0.020569 -0.001210 0.259174
v -0.003912 -0.001231 0.258884
v -0.003009 -0.001274 0.202699
v 0.018903 -0.001448 0.180825
v 0.055464 -0.001497 0.149305
v 0.089052 -0.001508 0.117989
v 0.124715 -0.001508 0.076615
v 0.150184 -0.001514 0.038443
v 0.157316 -0.001515 -0.007419
v 0.156298 -0.001515 -0.053970
v 0.142031 -0.001513 -0.085240
v 0.131848 -0.001513 -0.121502
v 0.108412 -0.001510 -0.158932
v 0.091107 -0.001504 -0.185463
v 0.030066 -0.001459 -0.252375
v -0.007043 -0.001507 0.320421
v -0.013354 -0.001443 -0.297592
v -0.012250 -0.009636 0.259080
v -0.013201 -0.009602 0.204370
v -0.016379 -0.009589 0.179908
v -0.010677 -0.009626 0.147842
v -0.011739 -0.009636 0.116466
v -0.006110 -0.009640 0.078324
v -0.002546 -0.009641 0.027844
v -0.002046 -0.009641 -0.014073
v 0.003580 -0.009641 -0.052924
v 0.001017 -0.009641 -0.095851
v 0.000521 -0.009640 -0.130172
v -0.004098 -0.009640 -0.159144
v 0.001578 -0.009636 -0.205943
v -0.009130 -0.009593 -0.256540
vt 0.168850 0.180576
vt 0.277389 0.084857
vt 0.132505 0.137006
vt 0.102409 0.134629
vt 0.787566 0.828028
vt 0.810552 0.801514
vt 0.839461 0.712598
vt 0.745852 0.801938
vt 0.893394 0.573803
vt 0.717186 0.743395
vt 0.939271 0.442971
vt 0.671764 0.702812
vt 0.976553 0.292701
vt 0.634486 0.635556
vt 0.991637 0.173684
vt 0.574844 0.556416
vt 0.947679 0.091613
vt 0.518786 0.497015
vt 0.881307 0.029835
vt 0.480343 0.428581
vt 0.800977 0.023759
vt 0.414832 0.375730
vt 0.724405 0.000000
vt 0.366563 0.329581
vt 0.611527 0.009335
vt 0.314769 0.301350
vt 0.529659 0.017817
vt 0.265619 0.222083
vt 0.020812 0.445383
vt 0.060921 0.276487
vt 0.009333 0.659355
vt 0.000000 0.574717
vt 0.043265 0.742025
vt 0.090504 0.902611
vt 0.066024 0.813391
vt 0.167974 0.948762
vt 0.404868 0.962846
vt 0.283719 0.969184
vt 0.541589 0.913180
vt 0.652854 0.891471
vt 0.765191 0.854734
vt 0.072314 0.132252
vt 0.168850 0.180576
vt 0.102409 0.134629
vt 0.132505 0.137006
vt 0.277389 0.084857
vt 0.787566 0.828028
vt 0.745852 0.801938
vt 0.839461 0.712598
vt 0.810552 0.801514
vt 0.717186 0.743395
vt 0.893394 0.573803
vt 0.671764 0.702812
vt 0.939271 0.442971
vt 0.634486 0.635556
vt 0.976553 0.292701
vt 0.991637 0.173684
vt 0.574844 0.556416
vt 0.518786 0.497015
vt 0.947679 0.091613
vt 0.480343 0.428581
vt 0.881307 0.029835
vt 0.800977 0.023759
vt 0.414832 0.375730
vt 0.366563 0.329581
vt 0.724405 0.000000
vt 0.314769 0.301350
vt 0.611527 0.009335
vt 0.529659 0.017817
vt 0.265619 0.222083
vt 0.020812 0.445383
vt 0.060921 0.276487
vt 0.009333 0.659355
vt 0.000000 0.574717
vt 0.043265 0.742025
vt 0.090504 0.902611
vt 0.066024 0.813391
vt 0.167974 0.948762
vt 0.404868 0.962846
vt 0.283719 0.969184
vt 0.541589 0.913180
vt 0.652854 0.891471
vt 0.765191 0.854734
vt 0.072314 0.132252
vt 0.963478 0.973562
vt 0.991637 0.947124
vt 0.885519 0.882731
vt 0.865809 0.901816
vt 0.846710 0.921094
vt 0.935319 1.000000
vt 0.963478 0.973562
vt 0.865809 0.901816
vt 0.885519 0.882731
vt 0.991637 0.947124
vt 0.846710 0.921094
vt 0.935319 1.000000
vn -0.2599 0.9330 0.2488
vn -0.3423 0.9288 -0.1423
vn -0.1556 0.9823 -0.1046
vn -0.0960 0.9941 -0.0502
vn -0.0701 0.9969 -0.0364
vn -0.0626 0.9972 -0.0420
vn -0.0518 0.9986 -0.0045
vn -0.0520 0.9986 -0.0028
vn -0.0530 0.9983 0.0242
vn -0.0602 0.9981 0.0091
vn -0.0676 0.9973 0.0286
vn -0.0722 0.9963 0.0473
vn -0.1415 0.9861 0.0872
vn 0.1224 0.9918 0.0366
vn 0.0896 0.9959 0.0108
vn 0.0656 0.9978 0.0100
vn 0.0594 0.9982 0.0067
vn 0.0576 0.9983 -0.0034
vn 0.0514 0.9986 0.0114
vn 0.0521 0.9986 -0.0034
vn 0.0531 0.9986 0.0038
vn 0.0705 0.9974 -0.0168
vn 0.0979 0.9935 -0.0576
vn 0.1600 0.9859 -0.0498
vn 0.3350 0.9197 -0.2048
vn 0.1347 0.9826 0.1277
vn 0.0629 0.9977 -0.0235
vn -0.0529 0.9986 -0.0037
vn 0.0523 0.9985 0.0140
vn -0.0578 0.9983 0.0034
vn 0.0662 0.9967 0.0476
vn -0.0880 0.9961 -0.0106
vn 0.2562 -0.9347 -0.2463
vn 0.3392 -0.9302 0.1404
vn 0.1551 -0.9824 0.1044
vn 0.0959 -0.9941 0.0501
vn 0.0700 -0.9969 0.0364
vn 0.0625 -0.9972 0.0419
vn 0.0518 -0.9986 0.0045
vn 0.0520 -0.9986 0.0028
vn 0.0530 -0.9983 -0.0242
vn 0.0602 -0.9981 -0.0091
vn 0.0675 -0.9973 -0.0286
vn 0.0721 -0.9963 -0.0472
vn 0.1413 -0.9861 -0.0870
vn -0.1219 -0.9919 -0.0367
vn -0.0895 -0.9959 -0.0109
vn -0.0656 -0.9978 -0.0100
vn -0.0593 -0.9982 -0.0067
vn -0.0575 -0.9983 0.0034
vn -0.0514 -0.9986 -0.0114
vn -0.0521 -0.9986 0.0034
vn -0.0530 -0.9986 -0.0037
vn -0.0705 -0.9974 0.0167
vn -0.0978 -0.9935 0.0575
vn -0.1595 -0.9859 0.0497
vn -0.3326 -0.9208 0.2037
vn -0.1345 -0.9827 -0.1273
vn -0.0629 -0.9977 0.0234
vn 0.0529 -0.9986 0.0037
vn -0.0523 -0.9985 -0.0140
vn 0.0578 -0.9983 -0.0035
vn -0.0661 -0.9967 -0.0475
vn 0.0881 -0.9961 0.0106
vn 0.5359 0.5952 -0.5987
vn 0.8979 0.1450 -0.4157
vn -0.8110 0.3170 -0.4917
vn -0.7462 0.2216 -0.6277
vn -0.8042 0.1420 -0.5771
vn -0.9195 0.0895 -0.3826
vn -0.9747 0.0740 -0.2108
vn -0.9634 0.0721 -0.2580
vn -0.9569 0.0668 -0.2826
vn -0.9889 0.0628 0.1349
vn -0.9336 0.0870 0.3477
vn -0.8551 0.1167 0.5052
vn -0.6475 0.1919 0.7375
vn -0.7506 0.2953 0.5911
vn -0.5866 0.5374 0.6059
vn 0.5982 0.5287 0.6022
vn 0.6072 0.3587 0.7090
vn 0.6651 0.2145 0.7153
vn 0.7467 0.1674 0.6437
vn 0.8253 0.1183 0.5522
vn 0.9860 0.0658 0.1535
vn 0.9979 0.0605 -0.0219
vn 0.9068 0.0786 -0.4143
vn 0.9594 0.0837 -0.2694
vn 0.8415 0.1153 -0.5278
vn 0.8256 0.1638 -0.5399
vn 0.7010 0.3107 -0.6419
vn 0.8074 0.4374 -0.3961
vn -0.4149 0.9097 -0.0154
vn -0.6958 0.7183 -0.0000
vn 0.6943 0.7192 -0.0260
vn 0.4159 0.9055 -0.0846
vn 0.4034 -0.9149 0.0164
vn 0.6702 -0.7422 -0.0002
vn -0.6683 -0.7435 0.0240
vn -0.4017 -0.9119 0.0843
vn -0.8297 0.5574 0.0301
vn -0.0376 0.1327 0.9904
vn -0.7948 0.6052 0.0444
vn 0.8379 0.5350 -0.1084
vn 0.8116 0.5841 0.0136
vn -0.0337 0.2906 0.9563
usemtl Leaf
s off
f 48/1/1 32/2/1 4/3/1 34/4/1
f 36/5/2 20/6/2 21/7/2 37/8/2
f 37/8/3 21/7/3 22/9/3 38/10/3
f 38/10/4 22/9/4 23/11/4 39/12/4
f 39/12/5 23/11/5 24/13/5 40/14/5
f 40/14/6 24/13/6 25/15/6
f 41/16/7 25/15/7 26/17/7 42/18/7
f 42/18/8 26/17/8 27/19/8 43/20/8
f 43/20/9 27/19/9 28/21/9
f 44/22/10 28/21/10 29/23/10 45/24/10
f 45/24/11 29/23/11 30/25/11 46/26/11
f 46/26/12 30/25/12 31/27/12
f 47/28/13 31/27/13 32/2/13 48/1/13
f 6/29/14 47/28/14 48/1/14 5/30/14
f 46/26/15 47/28/15 6/29/15
f 8/31/16 45/24/16 46/26/16 7/32/16
f 9/33/17 44/22/17 45/24/17 8/31/17
f 43/20/18 44/22/18 9/33/18
f 11/34/19 42/18/19 43/20/19 10/35/19
f 12/36/20 41/16/20 42/18/20 11/34/20
f 40/14/21 41/16/21 12/36/21
f 14/37/22 39/12/22 40/14/22 13/38/22
f 15/39/23 38/10/23 39/12/23 14/37/23
f 16/40/24 37/8/24 38/10/24 15/39/24
f 17/41/25 36/5/25 37/8/25 16/40/25
f 5/30/26 48/1/26 34/4/26 3/42/26
f 13/38/27 40/14/27 12/36/27
f 41/16/28 40/14/28 25/15/28
f 10/35/29 43/20/29 9/33/29
f 44/22/30 43/20/30 28/21/30
f 7/32/31 46/26/31 6/29/31
f 47/28/32 46/26/32 31/27/32
f 96/43/33 82/44/33 52/45/33 80/46/33
f 84/47/34 85/48/34 69/49/34 68/50/34
f 85/48/35 86/51/35 70/52/35 69/49/35
f 86/51/36 87/53/36 71/54/36 70/52/36
f 87/53/37 88/55/37 72/56/37 71/54/37
f 88/55/38 73/57/38 72/56/38
f 89/58/39 90/59/39 74/60/39 73/57/39
f 90/59/40 91/61/40 75/62/40 74/60/40
f 91/61/41 76/63/41 75/62/41
f 92/64/42 93/65/42 77/66/42 76/63/42
f 93/65/43 94/67/43 78/68/43 77/66/43
f 94/67/44 79/69/44 78/68/44
f 95/70/45 96/43/45 80/46/45 79/69/45
f 54/71/46 53/72/46 96/43/46 95/70/46
f 94/67/47 54/71/47 95/70/47
f 56/73/48 55/74/48 94/67/48 93/65/48
f 57/75/49 56/73/49 93/65/49 92/64/49
f 91/61/50 57/75/50 92/64/50
f 59/76/51 58/77/51 91/61/51 90/59/51
f 60/78/52 59/76/52 90/59/52 89/58/52
f 88/55/53 60/78/53 89/58/53
f 62/79/54 61/80/54 88/55/54 87/53/54
f 63/81/55 62/79/55 87/53/55 86/51/55
f 64/82/56 63/81/56 86/51/56 85/48/56
f 65/83/57 64/82/57 85/48/57 84/47/57
f 53/72/58 51/84/58 82/44/58 96/43/58
f 61/80/59 60/78/59 88/55/59
f 89/58/60 73/57/60 88/55/60
f 58/77/61 57/75/61 91/61/61
f 92/64/62 76/63/62 91/61/62
f 55/74/63 54/71/63 94/67/63
f 95/70/64 79/69/64 94/67/64
f 4/3/65 32/2/65 80/46/65 52/45/65
f 3/42/66 34/4/66 82/44/66 51/84/66
f 5/30/67 3/42/67 51/84/67 53/72/67
f 6/29/68 5/30/68 53/72/68 54/71/68
f 7/32/69 6/29/69 54/71/69 55/74/69
f 8/31/70 7/32/70 55/74/70 56/73/70
f 9/33/71 8/31/71 56/73/71 57/75/71
f 10/35/72 9/33/72 57/75/72 58/77/72
f 11/34/73 10/35/73 58/77/73 59/76/73
f 12/36/74 11/34/74 59/76/74 60/78/74
f 13/38/75 12/36/75 60/78/75 61/80/75
f 14/37/76 13/38/76 61/80/76 62/79/76
f 15/39/77 14/37/77 62/79/77 63/81/77
f 16/40/78 15/39/78 63/81/78 64/82/78
f 17/41/79 16/40/79 64/82/79 65/83/79
f 21/7/80 20/6/80 68/50/80 69/49/80
f 22/9/81 21/7/81 69/49/81 70/52/81
f 23/11/82 22/9/82 70/52/82 71/54/82
f 24/13/83 23/11/83 71/54/83 72/56/83
f 25/15/84 24/13/84 72/56/84 73/57/84
f 26/17/85 25/15/85 73/57/85 74/60/85
f 27/19/86 26/17/86 74/60/86 75/62/86
f 28/21/87 27/19/87 75/62/87 76/63/87
f 29/23/88 28/21/88 76/63/88 77/66/88
f 30/25/89 29/23/89 77/66/89 78/68/89
f 31/27/90 30/25/90 78/68/90 79/69/90
f 32/2/91 31/27/91 79/69/91 80/46/91
f 34/4/92 4/3/92 52/45/92 82/44/92
usemtl Stem.005
f 33/85/93 2/86/93 19/87/93 35/88/93
f 35/88/94 19/87/94 20/6/94 36/5/94
f 18/89/95 35/88/95 36/5/95 17/41/95
f 1/90/96 33/85/96 35/88/96 18/89/96
f 81/91/97 83/92/97 67/93/97 50/94/97
f 83/92/98 84/47/98 68/50/98 67/93/98
f 66/95/99 65/83/99 84/47/99 83/92/99
f 49/96/100 66/95/100 83/92/100 81/91/100
f 1/90/101 18/89/101 66/95/101 49/96/101
f 2/86/102 33/85/102 81/91/102 50/94/102
f 18/89/103 17/41/103 65/83/103 66/95/103
f 19/87/104 2/86/104 50/94/104 67/93/104
f 20/6/105 19/87/105 67/93/105 68/50/105
f 33/85/106 1/90/106 49/96/106 81/91/106
