# Blender v2.91.0 OBJ File: 'leaves.blend'
# www.blender.org
mtllib model_normalized.mtl
o Plane.004_Plane.006
v -0.017561 0.000000 0.319592
v 0.003289 0.000000 0.320611
v -0.018581 0.000000 -0.308378
v -0.007925 0.000000 -0.284931
v -0.048145 0.000000 -0.259853
v -0.087903 0.000000 -0.212687
v -0.116447 0.000000 -0.172997
v -0.130720 0.000000 -0.138745
v -0.139895 0.000000 -0.096336
v -0.149070 0.000000 -0.062083
v -0.161303 0.000000 -0.020694
v -0.155186 0.000000 0.024093
v -0.136836 0.000000 0.073297
v -0.112370 0.000000 0.114686
v -0.076689 0.000000 0.145881
v -0.051203 0.000000 0.178095
v -0.022659 0.000000 0.205211
v -0.019600 0.000000 0.258834
v -0.004867 0.000000 0.258834
v -0.003847 0.000000 0.202153
v 0.018581 0.000000 0.180133
v 0.055281 0.000000 0.148939
v 0.088922 0.000000 0.117745
v 0.124603 0.000000 0.076356
v 0.150089 0.000000 0.038365
v 0.157225 0.000000 -0.007442
v 0.156206 0.000000 -0.053928
v 0.141934 0.000000 -0.085122
v 0.131739 0.000000 -0.121414
v 0.108292 0.000000 -0.158725
v 0.090961 0.000000 -0.185162
v 0.029795 0.000000 -0.251697
v -0.007136 0.000000 0.320102
v -0.013253 0.000000 -0.296654
v -0.012233 -0.008124 0.258834
v -0.013253 -0.008124 0.203682
v -0.016311 -0.008124 0.179114
v -0.010704 -0.008124 0.147410
v -0.011724 -0.008124 0.116215
v -0.006117 -0.008124 0.078225
v -0.002549 -0.008124 0.027831
v -0.002039 -0.008124 -0.014068
v 0.003568 -0.008124 -0.052908
v 0.001019 -0.008124 -0.095826
v 0.000510 -0.008124 -0.130079
v -0.004078 -0.008124 -0.159065
v 0.001529 -0.008124 -0.205721
v -0.009175 -0.008124 -0.255775
v -0.018275 -0.001340 0.320116
v 0.004009 -0.001361 0.320708
v -0.018811 -0.001452 -0.309167
v -0.007509 -0.001288 -0.286369
v -0.048364 -0.001493 -0.260220
v -0.088042 -0.001506 -0.212953
v -0.116563 -0.001512 -0.173119
v -0.130828 -0.001514 -0.138794
v -0.139992 -0.001514 -0.096403
v -0.149161 -0.001514 -0.062162
v -0.161394 -0.001515 -0.020716
v -0.155283 -0.001514 0.024146
v -0.136950 -0.001512 0.073436
v -0.112501 -0.001511 0.114832
v -0.076880 -0.001497 0.146236
v -0.051531 -0.001469 0.178563
v -0.023493 -0.001242 0.206022
v -0.020569 -0.001210 0.259174
v -0.003912 -0.001231 0.258884
v -0.003009 -0.001274 0.202699
v 0.018903 -0.001448 0.180825
v 0.055464 -0.001497 0.149305
v 0.089052 -0.001508 0.117989
v 0.124715 -0.001508 0.076615
v 0.150184 -0.001514 0.038443
v 0.157316 -0.001515 -0.007419
v 0.156298 -0.001515 -0.053970
v 0.142031 -0.001513 -0.085240
v 0.131848 -0.001513 -0.121502
v 0.108412 -0.001510 -0.158932
v 0.091107 -0.001504 -0.185463
v 0.030066 -0.001459 -0.252375
v -0.007043 -0.001507 0.320421
v -0.013354 -0.001443 -0.297592
v -0.012250 -0.009636 0.259080
v -0.013201 -0.009602 0.204370
v -0.016379 -0.009589 0.179908
v -0.010677 -0.009626 0.147842
v -0.011739 -0.009636 0.116466
v -0.006110 -0.009640 0.078324
v -0.002546 -0.009641 0.027844
v -0.002046 -0.009641 -0.014073
v 0.003580 -0.009641 -0.052924
v 0.001017 -0.009641 -0.095851
v 0.000521 -0.009640 -0.130172
v -0.004098 -0.009640 -0.159144
v 0.001578 -0.009636 -0.205943
v -0.009130 -0.009593 -0.256540
vt 0.500000 0.933333
vt 1.000000 0.933333
vt 1.000000 1.000000
vt 0.500000 1.000000
vt 0.500000 0.000000
vt 1.000000 0.000000
vt 1.000000 0.066667
vt 0.500000 0.066667
vt 1.000000 0.133333
vt 0.500000 0.133333
vt 1.000000 0.200000
vt 0.500000 0.200000
vt 1.000000 0.266667
vt 0.500000 0.266667
vt 1.000000 0.333333
vt 0.500000 0.333333
vt 1.000000 0.400000
vt 0.500000 0.400000
vt 1.000000 0.466667
vt 0.500000 0.466667
vt 1.000000 0.533333
vt 0.500000 0.533333
vt 1.000000 0.600000
vt 0.500000 0.600000
vt 1.000000 0.666667
vt 0.500000 0.666667
vt 1.000000 0.733333
vt 0.500000 0.733333
vt 1.000000 0.800000
vt 0.500000 0.800000
vt 1.000000 0.866667
vt 0.500000 0.866667
vt 0.000000 0.866667
vt 0.000000 0.933333
vt 0.000000 0.733333
vt 0.000000 0.800000
vt 0.000000 0.666667
vt 0.000000 0.533333
vt 0.000000 0.600000
vt 0.000000 0.466667
vt 0.000000 0.333333
vt 0.000000 0.400000
vt 0.000000 0.266667
vt 0.000000 0.200000
vt 0.000000 0.133333
vt 0.000000 0.066667
vt 0.000000 0.000000
vt 0.000000 1.000000
vt 0.500000 0.933333
vt 0.500000 1.000000
vt 1.000000 1.000000
vt 1.000000 0.933333
vt 0.500000 0.000000
vt 0.500000 0.066667
vt 1.000000 0.066667
vt 1.000000 0.000000
vt 0.500000 0.133333
vt 1.000000 0.133333
vt 0.500000 0.200000
vt 1.000000 0.200000
vt 0.500000 0.266667
vt 1.000000 0.266667
vt 0.500000 0.333333
vt 1.000000 0.333333
vt 0.500000 0.400000
vt 1.000000 0.400000
vt 1.000000 0.466667
vt 0.500000 0.466667
vt 0.500000 0.533333
vt 1.000000 0.533333
vt 0.500000 0.600000
vt 1.000000 0.600000
vt 1.000000 0.666667
vt 0.500000 0.666667
vt 0.500000 0.733333
vt 1.000000 0.733333
vt 0.500000 0.800000
vt 1.000000 0.800000
vt 1.000000 0.866667
vt 0.500000 0.866667
vt 0.000000 0.866667
vt 0.000000 0.933333
vt 0.000000 0.733333
vt 0.000000 0.800000
vt 0.000000 0.666667
vt 0.000000 0.533333
vt 0.000000 0.600000
vt 0.000000 0.466667
vt 0.000000 0.333333
vt 0.000000 0.400000
vt 0.000000 0.266667
vt 0.000000 0.200000
vt 0.000000 0.133333
vt 0.000000 0.066667
vt 0.000000 0.000000
vt 0.000000 1.000000
vn -0.2599 0.9330 0.2488
vn -0.4149 0.9097 -0.0154
vn -0.6958 0.7183 -0.0000
vn -0.3423 0.9288 -0.1423
vn -0.1556 0.9823 -0.1046
vn -0.0960 0.9941 -0.0502
vn -0.0701 0.9969 -0.0364
vn -0.0626 0.9972 -0.0420
vn -0.0518 0.9986 -0.0045
vn -0.0520 0.9986 -0.0028
vn -0.0530 0.9983 0.0242
vn -0.0602 0.9981 0.0091
vn -0.0676 0.9973 0.0286
vn -0.0722 0.9963 0.0473
vn -0.1415 0.9861 0.0872
vn 0.1224 0.9918 0.0366
vn 0.0896 0.9959 0.0108
vn 0.0656 0.9978 0.0100
vn 0.0594 0.9982 0.0067
vn 0.0576 0.9983 -0.0034
vn 0.0514 0.9986 0.0114
vn 0.0521 0.9986 -0.0034
vn 0.0531 0.9986 0.0038
vn 0.0705 0.9974 -0.0168
vn 0.0979 0.9935 -0.0576
vn 0.1600 0.9859 -0.0498
vn 0.3350 0.9197 -0.2048
vn 0.6943 0.7192 -0.0260
vn 0.4159 0.9055 -0.0846
vn 0.1347 0.9826 0.1277
vn 0.0629 0.9977 -0.0235
vn -0.0529 0.9986 -0.0037
vn 0.0523 0.9985 0.0140
vn -0.0578 0.9983 0.0034
vn 0.0662 0.9967 0.0476
vn -0.0880 0.9961 -0.0106
vn 0.2562 -0.9347 -0.2463
vn 0.4034 -0.9149 0.0164
vn 0.6702 -0.7422 -0.0002
vn 0.3392 -0.9302 0.1404
vn 0.1551 -0.9824 0.1044
vn 0.0959 -0.9941 0.0501
vn 0.0700 -0.9969 0.0364
vn 0.0625 -0.9972 0.0419
vn 0.0518 -0.9986 0.0045
vn 0.0520 -0.9986 0.0028
vn 0.0530 -0.9983 -0.0242
vn 0.0602 -0.9981 -0.0091
vn 0.0675 -0.9973 -0.0286
vn 0.0721 -0.9963 -0.0472
vn 0.1413 -0.9861 -0.0870
vn -0.1219 -0.9919 -0.0367
vn -0.0895 -0.9959 -0.0109
vn -0.0656 -0.9978 -0.0100
vn -0.0593 -0.9982 -0.0067
vn -0.0575 -0.9983 0.0034
vn -0.0514 -0.9986 -0.0114
vn -0.0521 -0.9986 0.0034
vn -0.0530 -0.9986 -0.0037
vn -0.0705 -0.9974 0.0167
vn -0.0978 -0.9935 0.0575
vn -0.1595 -0.9859 0.0497
vn -0.3326 -0.9208 0.2037
vn -0.6683 -0.7435 0.0240
vn -0.4017 -0.9119 0.0843
vn -0.1345 -0.9827 -0.1273
vn -0.0629 -0.9977 0.0234
vn 0.0529 -0.9986 0.0037
vn -0.0523 -0.9985 -0.0140
vn 0.0578 -0.9983 -0.0035
vn -0.0661 -0.9967 -0.0475
vn 0.0881 -0.9961 0.0106
vn -0.8297 0.5574 0.0301
vn -0.0376 0.1327 0.9904
vn 0.5359 0.5952 -0.5987
vn 0.8979 0.1450 -0.4157
vn -0.8110 0.3170 -0.4917
vn -0.7462 0.2216 -0.6277
vn -0.8042 0.1420 -0.5771
vn -0.9195 0.0895 -0.3826
vn -0.9747 0.0740 -0.2108
vn -0.9634 0.0721 -0.2580
vn -0.9569 0.0668 -0.2826
vn -0.9889 0.0628 0.1349
vn -0.9336 0.0870 0.3477
vn -0.8551 0.1167 0.5052
vn -0.6475 0.1919 0.7375
vn -0.7506 0.2953 0.5911
vn -0.5866 0.5374 0.6059
vn -0.7948 0.6052 0.0444
vn 0.8379 0.5350 -0.1084
vn 0.8116 0.5841 0.0136
vn 0.5982 0.5287 0.6022
vn 0.6072 0.3587 0.7090
vn 0.6651 0.2145 0.7153
vn 0.7467 0.1674 0.6437
vn 0.8253 0.1183 0.5522
vn 0.9860 0.0658 0.1535
vn 0.9979 0.0605 -0.0219
vn 0.9068 0.0786 -0.4143
vn 0.9594 0.0837 -0.2694
vn 0.8415 0.1153 -0.5278
vn 0.8256 0.1638 -0.5399
vn 0.7010 0.3107 -0.6419
vn -0.0337 0.2906 0.9563
vn 0.8074 0.4374 -0.3961
usemtl None
s off
f 48/1/1 32/2/1 4/3/1 34/4/1
f 33/5/2 2/6/2 19/7/2 35/8/2
f 35/8/3 19/7/3 20/9/3 36/10/3
f 36/10/4 20/9/4 21/11/4 37/12/4
f 37/12/5 21/11/5 22/13/5 38/14/5
f 38/14/6 22/13/6 23/15/6 39/16/6
f 39/16/7 23/15/7 24/17/7 40/18/7
f 40/18/8 24/17/8 25/19/8
f 41/20/9 25/19/9 26/21/9 42/22/9
f 42/22/10 26/21/10 27/23/10 43/24/10
f 43/24/11 27/23/11 28/25/11
f 44/26/12 28/25/12 29/27/12 45/28/12
f 45/28/13 29/27/13 30/29/13 46/30/13
f 46/30/14 30/29/14 31/31/14
f 47/32/15 31/31/15 32/2/15 48/1/15
f 6/33/16 47/32/16 48/1/16 5/34/16
f 46/30/17 47/32/17 6/33/17
f 8/35/18 45/28/18 46/30/18 7/36/18
f 9/37/19 44/26/19 45/28/19 8/35/19
f 43/24/20 44/26/20 9/37/20
f 11/38/21 42/22/21 43/24/21 10/39/21
f 12/40/22 41/20/22 42/22/22 11/38/22
f 40/18/23 41/20/23 12/40/23
f 14/41/24 39/16/24 40/18/24 13/42/24
f 15/43/25 38/14/25 39/16/25 14/41/25
f 16/44/26 37/12/26 38/14/26 15/43/26
f 17/45/27 36/10/27 37/12/27 16/44/27
f 18/46/28 35/8/28 36/10/28 17/45/28
f 1/47/29 33/5/29 35/8/29 18/46/29
f 5/34/30 48/1/30 34/4/30 3/48/30
f 13/42/31 40/18/31 12/40/31
f 41/20/32 40/18/32 25/19/32
f 10/39/33 43/24/33 9/37/33
f 44/26/34 43/24/34 28/25/34
f 7/36/35 46/30/35 6/33/35
f 47/32/36 46/30/36 31/31/36
f 96/49/37 82/50/37 52/51/37 80/52/37
f 81/53/38 83/54/38 67/55/38 50/56/38
f 83/54/39 84/57/39 68/58/39 67/55/39
f 84/57/40 85/59/40 69/60/40 68/58/40
f 85/59/41 86/61/41 70/62/41 69/60/41
f 86/61/42 87/63/42 71/64/42 70/62/42
f 87/63/43 88/65/43 72/66/43 71/64/43
f 88/65/44 73/67/44 72/66/44
f 89/68/45 90/69/45 74/70/45 73/67/45
f 90/69/46 91/71/46 75/72/46 74/70/46
f 91/71/47 76/73/47 75/72/47
f 92/74/48 93/75/48 77/76/48 76/73/48
f 93/75/49 94/77/49 78/78/49 77/76/49
f 94/77/50 79/79/50 78/78/50
f 95/80/51 96/49/51 80/52/51 79/79/51
f 54/81/52 53/82/52 96/49/52 95/80/52
f 94/77/53 54/81/53 95/80/53
f 56/83/54 55/84/54 94/77/54 93/75/54
f 57/85/55 56/83/55 93/75/55 92/74/55
f 91/71/56 57/85/56 92/74/56
f 59/86/57 58/87/57 91/71/57 90/69/57
f 60/88/58 59/86/58 90/69/58 89/68/58
f 88/65/59 60/88/59 89/68/59
f 62/89/60 61/90/60 88/65/60 87/63/60
f 63/91/61 62/89/61 87/63/61 86/61/61
f 64/92/62 63/91/62 86/61/62 85/59/62
f 65/93/63 64/92/63 85/59/63 84/57/63
f 66/94/64 65/93/64 84/57/64 83/54/64
f 49/95/65 66/94/65 83/54/65 81/53/65
f 53/82/66 51/96/66 82/50/66 96/49/66
f 61/90/67 60/88/67 88/65/67
f 89/68/68 73/67/68 88/65/68
f 58/87/69 57/85/69 91/71/69
f 92/74/70 76/73/70 91/71/70
f 55/84/71 54/81/71 94/77/71
f 95/80/72 79/79/72 94/77/72
f 1/47/73 18/46/73 66/94/73 49/95/73
f 2/6/74 33/5/74 81/53/74 50/56/74
f 4/3/75 32/2/75 80/52/75 52/51/75
f 3/48/76 34/4/76 82/50/76 51/96/76
f 5/34/77 3/48/77 51/96/77 53/82/77
f 6/33/78 5/34/78 53/82/78 54/81/78
f 7/36/79 6/33/79 54/81/79 55/84/79
f 8/35/80 7/36/80 55/84/80 56/83/80
f 9/37/81 8/35/81 56/83/81 57/85/81
f 10/39/82 9/37/82 57/85/82 58/87/82
f 11/38/83 10/39/83 58/87/83 59/86/83
f 12/40/84 11/38/84 59/86/84 60/88/84
f 13/42/85 12/40/85 60/88/85 61/90/85
f 14/41/86 13/42/86 61/90/86 62/89/86
f 15/43/87 14/41/87 62/89/87 63/91/87
f 16/44/88 15/43/88 63/91/88 64/92/88
f 17/45/89 16/44/89 64/92/89 65/93/89
f 18/46/90 17/45/90 65/93/90 66/94/90
f 19/7/91 2/6/91 50/56/91 67/55/91
f 20/9/92 19/7/92 67/55/92 68/58/92
f 21/11/93 20/9/93 68/58/93 69/60/93
f 22/13/94 21/11/94 69/60/94 70/62/94
f 23/15/95 22/13/95 70/62/95 71/64/95
f 24/17/96 23/15/96 71/64/96 72/66/96
f 25/19/97 24/17/97 72/66/97 73/67/97
f 26/21/98 25/19/98 73/67/98 74/70/98
f 27/23/99 26/21/99 74/70/99 75/72/99
f 28/25/100 27/23/100 75/72/100 76/73/100
f 29/27/101 28/25/101 76/73/101 77/76/101
f 30/29/102 29/27/102 77/76/102 78/78/102
f 31/31/103 30/29/103 78/78/103 79/79/103
f 32/2/104 31/31/104 79/79/104 80/52/104
f 33/5/105 1/47/105 49/95/105 81/53/105
f 34/4/106 4/3/106 52/51/106 82/50/106
