# Blender v2.91.0 OBJ File: 'leaves.blend'
# www.blender.org
mtllib model_normalized.mtl
o Plane.002_Plane.004
v 0.007001 0.000000 0.323094
v 0.019577 0.000000 0.324493
v 0.010498 0.000000 -0.303510
v 0.020976 0.000000 -0.302111
v -0.006988 0.000000 -0.277472
v -0.041959 0.000000 -0.247237
v -0.081827 0.000000 -0.208608
v -0.102110 0.000000 -0.170680
v -0.114000 -0.004225 -0.125757
v -0.128688 0.000000 -0.091325
v -0.128688 0.000000 -0.054795
v -0.128688 -0.005022 -0.018265
v -0.114700 0.000000 0.016167
v -0.107706 0.000000 0.051298
v -0.091619 0.000000 0.085729
v -0.074133 0.000000 0.125757
v -0.031468 0.000000 0.167182
v 0.001405 0.000000 0.205111
v 0.004903 0.000000 0.236745
v 0.007001 0.000000 0.266980
v 0.023075 0.000000 0.268379
v 0.023774 0.000000 0.236745
v 0.017479 0.000000 0.203013
v 0.032167 0.000000 0.176275
v 0.061543 0.000000 0.142543
v 0.081827 0.000000 0.108111
v 0.099312 0.000000 0.066685
v 0.104908 0.000000 0.025959
v 0.123792 -0.005022 -0.014068
v 0.120995 0.000000 -0.050598
v 0.118896 0.000000 -0.083631
v 0.097914 -0.004225 -0.122959
v 0.066439 0.000000 -0.159489
v 0.062243 0.000000 -0.195319
v 0.037063 0.000000 -0.238144
v 0.019577 0.000000 -0.267680
v 0.013726 0.000000 0.323842
v 0.016101 0.000000 -0.302762
v 0.015597 -0.007949 0.267728
v 0.014994 -0.007949 0.236745
v 0.010001 -0.007949 0.203989
v 0.002562 -0.007949 0.172045
v -0.001578 -0.007949 0.134733
v 0.001134 -0.012972 0.097698
v 0.003000 -0.007949 0.059526
v 0.002738 -0.007949 0.021403
v 0.006329 -0.012174 -0.016021
v 0.004833 -0.007949 -0.052551
v 0.003711 -0.007949 -0.087211
v -0.000676 -0.007949 -0.124260
v -0.011976 -0.007949 -0.164695
v -0.004784 -0.007949 -0.201502
v 0.000299 -0.007949 -0.242374
v 0.007218 -0.007949 -0.272235
v -0.034467 -0.009834 -0.053211
v -0.074424 -0.007483 -0.089639
v 0.037143 -0.009963 -0.052008
v 0.065638 -0.007900 -0.085286
v -0.045406 -0.009496 0.055928
v -0.088595 -0.006789 0.017331
v 0.039841 -0.009931 0.062265
v 0.080741 -0.006903 0.024881
v 0.006316 -0.000880 0.323566
v 0.020306 -0.000836 0.325208
v 0.010136 -0.000775 -0.305432
v 0.021617 -0.000908 -0.302481
v -0.007333 -0.000875 -0.278997
v -0.042173 -0.001011 -0.247977
v -0.081977 -0.001042 -0.208965
v -0.102211 -0.001044 -0.171093
v -0.114158 -0.005272 -0.125591
v -0.128880 -0.001037 -0.090947
v -0.128837 -0.001049 -0.054910
v -0.128851 -0.006069 -0.018130
v -0.115017 -0.000891 0.017650
v -0.107973 -0.000999 0.052071
v -0.091844 -0.001010 0.086455
v -0.074344 -0.001006 0.126558
v -0.031745 -0.000980 0.168133
v 0.000746 -0.000797 0.206382
v 0.003989 -0.000726 0.237232
v 0.006184 -0.000808 0.267332
v 0.023947 -0.000767 0.268737
v 0.024749 -0.000675 0.236322
v 0.018259 -0.000837 0.202805
v 0.032495 -0.001007 0.176771
v 0.061746 -0.000999 0.143430
v 0.082052 -0.001011 0.108835
v 0.099587 -0.001007 0.067353
v 0.105232 -0.000902 0.027372
v 0.123963 -0.006069 -0.013989
v 0.121159 -0.001045 -0.050839
v 0.119104 -0.001040 -0.083427
v 0.098093 -0.005271 -0.122971
v 0.066566 -0.001035 -0.160034
v 0.062429 -0.001045 -0.195369
v 0.037351 -0.001022 -0.238512
v 0.020121 -0.000945 -0.268127
v 0.013735 -0.001029 0.324550
v 0.016423 -0.000962 -0.303786
v 0.015663 -0.008993 0.268177
v 0.015125 -0.009000 0.236657
v 0.010040 -0.008987 0.204567
v 0.002521 -0.008950 0.173039
v -0.001610 -0.008970 0.135536
v 0.001144 -0.014028 0.097779
v 0.002997 -0.008975 0.058778
v 0.002735 -0.009006 0.021463
v 0.006333 -0.013228 -0.016229
v 0.004829 -0.008980 -0.053230
v 0.003714 -0.008999 -0.087556
v -0.000656 -0.008991 -0.124775
v -0.012004 -0.008998 -0.165068
v -0.004762 -0.009001 -0.201804
v 0.000305 -0.008971 -0.243167
v 0.007308 -0.008924 -0.273416
v -0.034514 -0.010879 -0.053655
v -0.074531 -0.008535 -0.089628
v 0.037194 -0.011007 -0.052472
v 0.065755 -0.008952 -0.085369
v -0.045520 -0.010547 0.056074
v -0.088767 -0.007811 0.017999
v 0.039957 -0.010983 0.062348
v 0.080919 -0.007927 0.025506
vt 0.791446 0.227185
vt 0.823370 0.271677
vt 0.873334 0.233824
vt 0.859728 0.217360
vt 0.166083 0.821841
vt 0.190877 0.843848
vt 0.270056 0.858155
vt 0.186501 0.758651
vt 0.402144 0.911052
vt 0.223854 0.699459
vt 0.508171 0.933874
vt 0.280362 0.663140
vt 0.615198 0.939104
vt 0.442912 0.743612
vt 0.685996 0.906992
vt 0.614561 0.828731
vt 0.794496 0.918956
vt 0.447221 0.539886
vt 0.835613 0.864520
vt 0.586938 0.594401
vt 0.873334 0.817151
vt 0.716143 0.644812
vt 0.862681 0.701800
vt 0.571126 0.383816
vt 0.818536 0.555309
vt 0.591381 0.297779
vt 0.853751 0.497757
vt 0.661704 0.275619
vt 0.835981 0.364185
vt 0.731174 0.241680
vt 0.613488 0.099105
vt 0.757535 0.174281
vt 0.443740 0.018521
vt 0.333060 0.000000
vt 0.237303 0.017484
vt 0.306205 0.189399
vt 0.534856 0.443481
vt 0.375973 0.362825
vt 0.492071 0.489715
vt 0.121925 0.275360
vt 0.387456 0.573941
vt 0.050550 0.102580
vt 0.198342 0.461876
vt 0.337510 0.621671
vt 0.021702 0.454481
vt 0.023050 0.349070
vt 0.093243 0.642514
vt 0.140367 0.794784
vt 0.844088 0.198437
vt 0.099972 0.057133
vt 0.148576 0.012204
vt 0.021105 0.255035
vt 0.047084 0.189355
vt 0.791446 0.227185
vt 0.859728 0.217360
vt 0.873334 0.233824
vt 0.823370 0.271677
vt 0.166083 0.821841
vt 0.186501 0.758651
vt 0.270056 0.858155
vt 0.190877 0.843848
vt 0.223854 0.699459
vt 0.402144 0.911052
vt 0.280362 0.663140
vt 0.508171 0.933874
vt 0.442912 0.743612
vt 0.615198 0.939104
vt 0.614561 0.828731
vt 0.685996 0.906992
vt 0.794496 0.918956
vt 0.447221 0.539886
vt 0.586938 0.594401
vt 0.835613 0.864520
vt 0.716143 0.644812
vt 0.873334 0.817151
vt 0.862681 0.701800
vt 0.571126 0.383816
vt 0.591381 0.297779
vt 0.818536 0.555309
vt 0.661704 0.275619
vt 0.853751 0.497757
vt 0.731174 0.241680
vt 0.835981 0.364185
vt 0.613488 0.099105
vt 0.757535 0.174281
vt 0.443740 0.018521
vt 0.333060 0.000000
vt 0.237303 0.017484
vt 0.306205 0.189399
vt 0.534856 0.443481
vt 0.375973 0.362825
vt 0.492071 0.489715
vt 0.121925 0.275360
vt 0.050550 0.102580
vt 0.387456 0.573941
vt 0.198342 0.461876
vt 0.337510 0.621671
vt 0.021702 0.454481
vt 0.023050 0.349070
vt 0.093243 0.642514
vt 0.140367 0.794784
vt 0.844088 0.198437
vt 0.099972 0.057133
vt 0.148576 0.012204
vt 0.021105 0.255035
vt 0.047084 0.189355
vt 0.018971 0.980400
vt 0.035475 1.000000
vt 0.120517 0.942221
vt 0.097888 0.918213
vt 0.164683 0.905561
vt 0.137324 0.878172
vt 0.108660 0.844927
vt 0.074660 0.888855
vt 0.000000 0.957871
vt 0.018971 0.980400
vt 0.097888 0.918213
vt 0.120517 0.942221
vt 0.035475 1.000000
vt 0.137324 0.878172
vt 0.164683 0.905561
vt 0.108660 0.844927
vt 0.074660 0.888855
vt 0.000000 0.957871
vn -0.4290 0.9023 0.0425
vn -0.3900 0.9195 -0.0482
vn -0.1615 0.9852 -0.0574
vn -0.1293 0.9854 -0.1109
vn -0.1533 0.9855 -0.0731
vn -0.1919 0.9784 -0.0763
vn -0.2568 0.9365 -0.2387
vn -0.0856 0.9941 0.0661
vn -0.1287 0.9915 -0.0204
vn -0.1458 0.9889 -0.0284
vn -0.0689 0.9933 0.0928
vn -0.1083 0.9941 -0.0045
vn -0.1550 0.9872 0.0372
vn -0.3165 0.9469 0.0563
vn 0.2395 0.9565 0.1669
vn 0.1248 0.9897 0.0706
vn 0.0920 0.9952 0.0338
vn 0.0554 0.9972 0.0497
vn 0.0212 0.9993 0.0317
vn -0.0131 0.9991 0.0406
vn -0.0495 0.9919 0.1167
vn 0.0381 0.9979 -0.0526
vn -0.0048 0.9993 0.0380
vn -0.0412 0.9909 0.1284
vn 0.1363 0.9865 -0.0904
vn 0.1589 0.9828 -0.0944
vn 0.3578 0.9107 -0.2064
vn 0.2894 0.9200 0.2642
vn 0.1165 0.9927 -0.0318
vn 0.0728 0.9956 0.0591
vn 0.1382 0.9884 -0.0623
vn 0.0198 0.9991 0.0383
vn 0.0599 0.9919 0.1123
vn -0.0243 0.9989 0.0401
vn 0.1862 0.9783 -0.0908
vn 0.1513 0.9853 -0.0794
vn 0.2544 0.9369 -0.2400
vn 0.0058 0.9991 0.0432
vn 0.0434 0.9902 0.1324
vn -0.0403 0.9977 -0.0552
vn 0.4201 -0.9064 -0.0432
vn 0.3858 -0.9214 0.0471
vn 0.1609 -0.9853 0.0572
vn 0.1289 -0.9855 0.1101
vn 0.1529 -0.9855 0.0730
vn 0.1919 -0.9784 0.0762
vn 0.2535 -0.9391 0.2321
vn 0.0857 -0.9942 -0.0657
vn 0.1285 -0.9915 0.0208
vn 0.1456 -0.9889 0.0284
vn 0.0690 -0.9933 -0.0926
vn 0.1082 -0.9941 0.0048
vn 0.1546 -0.9873 -0.0372
vn 0.3139 -0.9478 -0.0556
vn -0.2381 -0.9570 -0.1655
vn -0.1246 -0.9897 -0.0703
vn -0.0919 -0.9952 -0.0338
vn -0.0555 -0.9972 -0.0494
vn -0.0213 -0.9993 -0.0319
vn 0.0131 -0.9991 -0.0407
vn 0.0491 -0.9920 -0.1159
vn -0.0380 -0.9979 0.0523
vn 0.0044 -0.9993 -0.0384
vn 0.0392 -0.9912 -0.1266
vn -0.1359 -0.9866 0.0899
vn -0.1586 -0.9828 0.0943
vn -0.3532 -0.9129 0.2044
vn -0.2746 -0.9258 -0.2599
vn -0.1163 -0.9927 0.0322
vn -0.0729 -0.9956 -0.0588
vn -0.1379 -0.9885 0.0622
vn -0.0197 -0.9991 -0.0383
vn -0.0595 -0.9920 -0.1115
vn 0.0244 -0.9989 -0.0401
vn -0.1861 -0.9783 0.0907
vn -0.1509 -0.9854 0.0793
vn -0.2508 -0.9396 0.2330
vn -0.0052 -0.9990 -0.0436
vn -0.0412 -0.9906 -0.1303
vn 0.0402 -0.9977 0.0549
vn 0.8492 0.5269 0.0360
vn 0.1153 0.8550 -0.5056
vn -0.4601 0.8339 -0.3049
vn -0.4451 0.7390 -0.5057
vn -0.6228 0.4516 -0.6389
vn -0.8492 0.2698 -0.4539
vn -0.9598 0.1467 -0.2393
vn -0.9167 0.0503 -0.3965
vn -0.9869 0.1613 0.0006
vn -0.9889 0.1471 0.0200
vn -0.8545 0.4409 0.2746
vn -0.8621 0.4756 0.1748
vn -0.7974 0.4740 0.3734
vn -0.8194 0.4479 0.3577
vn -0.5439 0.6263 0.5585
vn -0.4837 0.7715 0.4132
vn 0.7520 0.5158 0.4105
vn 0.6303 0.5468 0.5510
vn 0.7425 0.5081 0.4365
vn 0.8251 0.4446 0.3486
vn 0.8993 0.4187 0.1258
vn 0.8271 0.4586 0.3249
vn 0.9853 0.1622 -0.0530
vn 0.9824 0.1764 -0.0622
vn 0.8712 0.1179 -0.4765
vn 0.7461 0.2726 -0.6074
vn 0.9770 0.1799 -0.1144
vn 0.8269 0.2875 -0.4833
vn 0.7481 0.4981 -0.4384
vn 0.1436 0.6378 -0.7567
vn -0.5042 0.8594 -0.0850
vn -0.6991 0.7150 -0.0011
vn -0.6907 0.7135 0.1173
vn 0.6427 0.7614 -0.0847
vn 0.6484 0.7608 -0.0286
vn 0.4641 0.8841 -0.0549
vn 0.4860 -0.8698 0.0848
vn 0.6787 -0.7344 0.0018
vn 0.6664 -0.7365 -0.1159
vn -0.6194 -0.7807 0.0827
vn -0.6240 -0.7810 0.0267
vn -0.4465 -0.8931 0.0555
vn -0.7467 0.6652 0.0013
vn -0.0942 0.5799 0.8092
vn -0.6527 0.7544 0.0696
vn -0.6497 0.7587 0.0473
vn 0.6919 0.7206 0.0443
vn 0.6154 0.7880 0.0156
vn 0.6229 0.7730 -0.1203
vn -0.0960 0.5478 0.8311
usemtl Material.006
s off
f 54/1/1 36/2/1 4/3/1 38/4/1
f 41/5/2 23/6/2 24/7/2 42/8/2
f 42/8/3 24/7/3 25/9/3 43/10/3
f 43/10/4 25/9/4 26/11/4 44/12/4
f 44/12/5 26/11/5 27/13/5 61/14/5
f 61/14/6 27/13/6 28/15/6 62/16/6
f 62/16/7 28/15/7 29/17/7
f 47/18/8 29/17/8 30/19/8 57/20/8
f 57/20/9 30/19/9 31/21/9 58/22/9
f 58/22/10 31/21/10 32/23/10
f 50/24/11 32/23/11 33/25/11 51/26/11
f 51/26/12 33/25/12 34/27/12 52/28/12
f 52/28/13 34/27/13 35/29/13 53/30/13
f 53/30/14 35/29/14 36/2/14 54/1/14
f 6/31/15 53/30/15 54/1/15 5/32/15
f 7/33/16 52/28/16 53/30/16 6/31/16
f 8/34/17 51/26/17 52/28/17 7/33/17
f 9/35/18 50/24/18 51/26/18 8/34/18
f 56/36/19 49/37/19 50/24/19 9/35/19
f 55/38/20 48/39/20 49/37/20 56/36/20
f 47/18/21 48/39/21 55/38/21
f 60/40/22 46/41/22 47/18/22 12/42/22
f 59/43/23 45/44/23 46/41/23 60/40/23
f 44/12/24 45/44/24 59/43/24
f 16/45/25 43/10/25 44/12/25 15/46/25
f 17/47/26 42/8/26 43/10/26 16/45/26
f 18/48/27 41/5/27 42/8/27 17/47/27
f 5/32/28 54/1/28 38/4/28 3/49/28
f 11/50/29 55/38/29 56/36/29 10/51/29
f 12/42/30 47/18/30 55/38/30 11/50/30
f 10/51/31 56/36/31 9/35/31
f 48/39/32 57/20/32 58/22/32 49/37/32
f 48/39/33 47/18/33 57/20/33
f 49/37/34 58/22/34 32/23/34 50/24/34
f 14/52/35 59/43/35 60/40/35 13/53/35
f 15/46/36 44/12/36 59/43/36 14/52/36
f 13/53/37 60/40/37 12/42/37
f 45/44/38 61/14/38 62/16/38 46/41/38
f 45/44/39 44/12/39 61/14/39
f 46/41/40 62/16/40 29/17/40 47/18/40
f 116/54/41 100/55/41 66/56/41 98/57/41
f 103/58/42 104/59/42 86/60/42 85/61/42
f 104/59/43 105/62/43 87/63/43 86/60/43
f 105/62/44 106/64/44 88/65/44 87/63/44
f 106/64/45 123/66/45 89/67/45 88/65/45
f 123/66/46 124/68/46 90/69/46 89/67/46
f 124/68/47 91/70/47 90/69/47
f 109/71/48 119/72/48 92/73/48 91/70/48
f 119/72/49 120/74/49 93/75/49 92/73/49
f 120/74/50 94/76/50 93/75/50
f 112/77/51 113/78/51 95/79/51 94/76/51
f 113/78/52 114/80/52 96/81/52 95/79/52
f 114/80/53 115/82/53 97/83/53 96/81/53
f 115/82/54 116/54/54 98/57/54 97/83/54
f 68/84/55 67/85/55 116/54/55 115/82/55
f 69/86/56 68/84/56 115/82/56 114/80/56
f 70/87/57 69/86/57 114/80/57 113/78/57
f 71/88/58 70/87/58 113/78/58 112/77/58
f 118/89/59 71/88/59 112/77/59 111/90/59
f 117/91/60 118/89/60 111/90/60 110/92/60
f 109/71/61 117/91/61 110/92/61
f 122/93/62 74/94/62 109/71/62 108/95/62
f 121/96/63 122/93/63 108/95/63 107/97/63
f 106/64/64 121/96/64 107/97/64
f 78/98/65 77/99/65 106/64/65 105/62/65
f 79/100/66 78/98/66 105/62/66 104/59/66
f 80/101/67 79/100/67 104/59/67 103/58/67
f 67/85/68 65/102/68 100/55/68 116/54/68
f 73/103/69 72/104/69 118/89/69 117/91/69
f 74/94/70 73/103/70 117/91/70 109/71/70
f 72/104/71 71/88/71 118/89/71
f 110/92/72 111/90/72 120/74/72 119/72/72
f 110/92/73 119/72/73 109/71/73
f 111/90/74 112/77/74 94/76/74 120/74/74
f 76/105/75 75/106/75 122/93/75 121/96/75
f 77/99/76 76/105/76 121/96/76 106/64/76
f 75/106/77 74/94/77 122/93/77
f 107/97/78 108/95/78 124/68/78 123/66/78
f 107/97/79 123/66/79 106/64/79
f 108/95/80 109/71/80 91/70/80 124/68/80
f 4/3/81 36/2/81 98/57/81 66/56/81
f 3/49/82 38/4/82 100/55/82 65/102/82
f 5/32/83 3/49/83 65/102/83 67/85/83
f 6/31/84 5/32/84 67/85/84 68/84/84
f 7/33/85 6/31/85 68/84/85 69/86/85
f 8/34/86 7/33/86 69/86/86 70/87/86
f 9/35/87 8/34/87 70/87/87 71/88/87
f 10/51/88 9/35/88 71/88/88 72/104/88
f 11/50/89 10/51/89 72/104/89 73/103/89
f 12/42/90 11/50/90 73/103/90 74/94/90
f 13/53/91 12/42/91 74/94/91 75/106/91
f 14/52/92 13/53/92 75/106/92 76/105/92
f 15/46/93 14/52/93 76/105/93 77/99/93
f 16/45/94 15/46/94 77/99/94 78/98/94
f 17/47/95 16/45/95 78/98/95 79/100/95
f 18/48/96 17/47/96 79/100/96 80/101/96
f 24/7/97 23/6/97 85/61/97 86/60/97
f 25/9/98 24/7/98 86/60/98 87/63/98
f 26/11/99 25/9/99 87/63/99 88/65/99
f 27/13/100 26/11/100 88/65/100 89/67/100
f 28/15/101 27/13/101 89/67/101 90/69/101
f 29/17/102 28/15/102 90/69/102 91/70/102
f 30/19/103 29/17/103 91/70/103 92/73/103
f 31/21/104 30/19/104 92/73/104 93/75/104
f 32/23/105 31/21/105 93/75/105 94/76/105
f 33/25/106 32/23/106 94/76/106 95/79/106
f 34/27/107 33/25/107 95/79/107 96/81/107
f 35/29/108 34/27/108 96/81/108 97/83/108
f 36/2/109 35/29/109 97/83/109 98/57/109
f 38/4/110 4/3/110 66/56/110 100/55/110
usemtl Material
f 37/107/111 2/108/111 21/109/111 39/110/111
f 39/110/112 21/109/112 22/111/112 40/112/112
f 40/112/113 22/111/113 23/6/113 41/5/113
f 19/113/114 40/112/114 41/5/114 18/48/114
f 20/114/115 39/110/115 40/112/115 19/113/115
f 1/115/116 37/107/116 39/110/116 20/114/116
f 99/116/117 101/117/117 83/118/117 64/119/117
f 101/117/118 102/120/118 84/121/118 83/118/118
f 102/120/119 103/58/119 85/61/119 84/121/119
f 81/122/120 80/101/120 103/58/120 102/120/120
f 82/123/121 81/122/121 102/120/121 101/117/121
f 63/124/122 82/123/122 101/117/122 99/116/122
f 1/115/123 20/114/123 82/123/123 63/124/123
f 2/108/124 37/107/124 99/116/124 64/119/124
f 19/113/125 18/48/125 80/101/125 81/122/125
f 20/114/126 19/113/126 81/122/126 82/123/126
f 21/109/127 2/108/127 64/119/127 83/118/127
f 22/111/128 21/109/128 83/118/128 84/121/128
f 23/6/129 22/111/129 84/121/129 85/61/129
f 37/107/130 1/115/130 63/124/130 99/116/130
