# Blender v2.91.0 OBJ File: 'leaves.blend'
# www.blender.org
mtllib model_normalized.mtl
o Plane.002_Plane.004
v 0.007001 0.000000 0.323094
v 0.019577 0.000000 0.324493
v 0.010498 0.000000 -0.303510
v 0.020976 0.000000 -0.302111
v -0.006988 0.000000 -0.277472
v -0.041959 0.000000 -0.247237
v -0.081827 0.000000 -0.208608
v -0.102110 0.000000 -0.170680
v -0.114000 -0.004225 -0.125757
v -0.128688 0.000000 -0.091325
v -0.128688 0.000000 -0.054795
v -0.128688 -0.005022 -0.018265
v -0.114700 0.000000 0.016167
v -0.107706 0.000000 0.051298
v -0.091619 0.000000 0.085729
v -0.074133 0.000000 0.125757
v -0.031468 0.000000 0.167182
v 0.001405 0.000000 0.205111
v 0.004903 0.000000 0.236745
v 0.007001 0.000000 0.266980
v 0.023075 0.000000 0.268379
v 0.023774 0.000000 0.236745
v 0.017479 0.000000 0.203013
v 0.032167 0.000000 0.176275
v 0.061543 0.000000 0.142543
v 0.081827 0.000000 0.108111
v 0.099312 0.000000 0.066685
v 0.104908 0.000000 0.025959
v 0.123792 -0.005022 -0.014068
v 0.120995 0.000000 -0.050598
v 0.118896 0.000000 -0.083631
v 0.097914 -0.004225 -0.122959
v 0.066439 0.000000 -0.159489
v 0.062243 0.000000 -0.195319
v 0.037063 0.000000 -0.238144
v 0.019577 0.000000 -0.267680
v 0.013726 0.000000 0.323842
v 0.016101 0.000000 -0.302762
v 0.015597 -0.007949 0.267728
v 0.014994 -0.007949 0.236745
v 0.010001 -0.007949 0.203989
v 0.002562 -0.007949 0.172045
v -0.001578 -0.007949 0.134733
v 0.001134 -0.012972 0.097698
v 0.003000 -0.007949 0.059526
v 0.002738 -0.007949 0.021403
v 0.006329 -0.012174 -0.016021
v 0.004833 -0.007949 -0.052551
v 0.003711 -0.007949 -0.087211
v -0.000676 -0.007949 -0.124260
v -0.011976 -0.007949 -0.164695
v -0.004784 -0.007949 -0.201502
v 0.000299 -0.007949 -0.242374
v 0.007218 -0.007949 -0.272235
v -0.034467 -0.009834 -0.053211
v -0.074424 -0.007483 -0.089639
v 0.037143 -0.009963 -0.052008
v 0.065638 -0.007900 -0.085286
v -0.045406 -0.009496 0.055928
v -0.088595 -0.006789 0.017331
v 0.039841 -0.009931 0.062265
v 0.080741 -0.006903 0.024881
v 0.006316 -0.000880 0.323566
v 0.020306 -0.000836 0.325208
v 0.010136 -0.000775 -0.305432
v 0.021617 -0.000908 -0.302481
v -0.007333 -0.000875 -0.278997
v -0.042173 -0.001011 -0.247977
v -0.081977 -0.001042 -0.208965
v -0.102211 -0.001044 -0.171093
v -0.114158 -0.005272 -0.125591
v -0.128880 -0.001037 -0.090947
v -0.128837 -0.001049 -0.054910
v -0.128851 -0.006069 -0.018130
v -0.115017 -0.000891 0.017650
v -0.107973 -0.000999 0.052071
v -0.091844 -0.001010 0.086455
v -0.074344 -0.001006 0.126558
v -0.031745 -0.000980 0.168133
v 0.000746 -0.000797 0.206382
v 0.003989 -0.000726 0.237232
v 0.006184 -0.000808 0.267332
v 0.023947 -0.000767 0.268737
v 0.024749 -0.000675 0.236322
v 0.018259 -0.000837 0.202805
v 0.032495 -0.001007 0.176771
v 0.061746 -0.000999 0.143430
v 0.082052 -0.001011 0.108835
v 0.099587 -0.001007 0.067353
v 0.105232 -0.000902 0.027372
v 0.123963 -0.006069 -0.013989
v 0.121159 -0.001045 -0.050839
v 0.119104 -0.001040 -0.083427
v 0.098093 -0.005271 -0.122971
v 0.066566 -0.001035 -0.160034
v 0.062429 -0.001045 -0.195369
v 0.037351 -0.001022 -0.238512
v 0.020121 -0.000945 -0.268127
v 0.013735 -0.001029 0.324550
v 0.016423 -0.000962 -0.303786
v 0.015663 -0.008993 0.268177
v 0.015125 -0.009000 0.236657
v 0.010040 -0.008987 0.204567
v 0.002521 -0.008950 0.173039
v -0.001610 -0.008970 0.135536
v 0.001144 -0.014028 0.097779
v 0.002997 -0.008975 0.058778
v 0.002735 -0.009006 0.021463
v 0.006333 -0.013228 -0.016229
v 0.004829 -0.008980 -0.053230
v 0.003714 -0.008999 -0.087556
v -0.000656 -0.008991 -0.124775
v -0.012004 -0.008998 -0.165068
v -0.004762 -0.009001 -0.201804
v 0.000305 -0.008971 -0.243167
v 0.007308 -0.008924 -0.273416
v -0.034514 -0.010879 -0.053655
v -0.074531 -0.008535 -0.089628
v 0.037194 -0.011007 -0.052472
v 0.065755 -0.008952 -0.085369
v -0.045520 -0.010547 0.056074
v -0.088767 -0.007811 0.017999
v 0.039957 -0.010983 0.062348
v 0.080919 -0.007927 0.025506
vt 0.534764 0.941177
vt 1.000000 0.941176
vt 1.000000 1.000000
vt 0.534764 1.000000
vt 0.534764 0.000000
vt 1.000000 0.000000
vt 1.000000 0.058824
vt 0.534764 0.058824
vt 1.000000 0.117647
vt 0.534764 0.117647
vt 1.000000 0.176471
vt 0.534764 0.176471
vt 1.000000 0.235294
vt 0.534764 0.235294
vt 1.000000 0.294118
vt 0.534764 0.294118
vt 1.000000 0.352941
vt 0.534764 0.352941
vt 1.000000 0.411765
vt 0.712724 0.411765
vt 1.000000 0.470588
vt 0.889953 0.470588
vt 1.000000 0.529412
vt 0.534764 0.529412
vt 1.000000 0.588235
vt 0.664167 0.588235
vt 1.000000 0.647059
vt 0.784888 0.647059
vt 1.000000 0.705882
vt 0.534764 0.705882
vt 1.000000 0.764706
vt 0.534764 0.764706
vt 1.000000 0.823529
vt 0.534764 0.823529
vt 1.000000 0.882353
vt 0.534764 0.882353
vt 0.000000 0.882353
vt 0.000000 0.941176
vt 0.000000 0.823529
vt 0.000000 0.764706
vt 0.000000 0.705882
vt 0.219174 0.647059
vt 0.534764 0.647059
vt 0.377362 0.588235
vt 0.534764 0.588235
vt 0.118870 0.470588
vt 0.534764 0.470588
vt 0.000000 0.529412
vt 0.300936 0.411765
vt 0.534764 0.411765
vt 0.000000 0.294118
vt 0.000000 0.352941
vt 0.000000 0.235294
vt 0.000000 0.176471
vt 0.000000 0.117647
vt 0.000000 0.058824
vt 0.000000 0.000000
vt 0.000000 1.000000
vt 0.000000 0.588235
vt 0.000000 0.647059
vt 0.000000 0.411765
vt 0.000000 0.470588
vt 0.534764 0.941177
vt 0.534764 1.000000
vt 1.000000 1.000000
vt 1.000000 0.941176
vt 0.534764 0.000000
vt 0.534764 0.058824
vt 1.000000 0.058824
vt 1.000000 0.000000
vt 0.534764 0.117647
vt 1.000000 0.117647
vt 0.534764 0.176471
vt 1.000000 0.176471
vt 0.534764 0.235294
vt 1.000000 0.235294
vt 0.534764 0.294118
vt 1.000000 0.294118
vt 0.534764 0.352941
vt 1.000000 0.352941
vt 0.712724 0.411765
vt 1.000000 0.411765
vt 0.889953 0.470588
vt 1.000000 0.470588
vt 1.000000 0.529412
vt 0.534764 0.529412
vt 0.664167 0.588235
vt 1.000000 0.588235
vt 0.784888 0.647059
vt 1.000000 0.647059
vt 1.000000 0.705882
vt 0.534764 0.705882
vt 0.534764 0.764706
vt 1.000000 0.764706
vt 0.534764 0.823529
vt 1.000000 0.823529
vt 0.534764 0.882353
vt 1.000000 0.882353
vt 0.000000 0.882353
vt 0.000000 0.941176
vt 0.000000 0.823529
vt 0.000000 0.764706
vt 0.000000 0.705882
vt 0.219174 0.647059
vt 0.534764 0.647059
vt 0.377362 0.588235
vt 0.534764 0.588235
vt 0.118870 0.470588
vt 0.000000 0.529412
vt 0.534764 0.470588
vt 0.300936 0.411765
vt 0.534764 0.411765
vt 0.000000 0.294118
vt 0.000000 0.352941
vt 0.000000 0.235294
vt 0.000000 0.176471
vt 0.000000 0.117647
vt 0.000000 0.058824
vt 0.000000 0.000000
vt 0.000000 1.000000
vt 0.000000 0.588235
vt 0.000000 0.647059
vt 0.000000 0.411765
vt 0.000000 0.470588
vn -0.4290 0.9023 0.0425
vn -0.5042 0.8594 -0.0850
vn -0.6991 0.7150 -0.0011
vn -0.6907 0.7135 0.1173
vn -0.3900 0.9195 -0.0482
vn -0.1615 0.9852 -0.0574
vn -0.1293 0.9854 -0.1109
vn -0.1533 0.9855 -0.0731
vn -0.1919 0.9784 -0.0763
vn -0.2568 0.9365 -0.2387
vn -0.0856 0.9941 0.0661
vn -0.1287 0.9915 -0.0204
vn -0.1458 0.9889 -0.0284
vn -0.0689 0.9933 0.0928
vn -0.1083 0.9941 -0.0045
vn -0.1550 0.9872 0.0372
vn -0.3165 0.9469 0.0563
vn 0.2395 0.9565 0.1669
vn 0.1248 0.9897 0.0706
vn 0.0920 0.9952 0.0338
vn 0.0554 0.9972 0.0497
vn 0.0212 0.9993 0.0317
vn -0.0131 0.9991 0.0406
vn -0.0495 0.9919 0.1167
vn 0.0381 0.9979 -0.0526
vn -0.0048 0.9993 0.0380
vn -0.0412 0.9909 0.1284
vn 0.1363 0.9865 -0.0904
vn 0.1589 0.9828 -0.0944
vn 0.3578 0.9107 -0.2064
vn 0.6427 0.7614 -0.0847
vn 0.6484 0.7608 -0.0286
vn 0.4641 0.8841 -0.0549
vn 0.2894 0.9200 0.2642
vn 0.1165 0.9927 -0.0318
vn 0.0728 0.9956 0.0591
vn 0.1382 0.9884 -0.0623
vn 0.0198 0.9991 0.0383
vn 0.0599 0.9919 0.1123
vn -0.0243 0.9989 0.0401
vn 0.1862 0.9783 -0.0908
vn 0.1513 0.9853 -0.0794
vn 0.2544 0.9369 -0.2400
vn 0.0058 0.9991 0.0432
vn 0.0434 0.9902 0.1324
vn -0.0403 0.9977 -0.0552
vn 0.4201 -0.9064 -0.0432
vn 0.4860 -0.8698 0.0848
vn 0.6787 -0.7344 0.0018
vn 0.6664 -0.7365 -0.1159
vn 0.3858 -0.9214 0.0471
vn 0.1609 -0.9853 0.0572
vn 0.1289 -0.9855 0.1101
vn 0.1529 -0.9855 0.0730
vn 0.1919 -0.9784 0.0762
vn 0.2535 -0.9391 0.2321
vn 0.0857 -0.9942 -0.0657
vn 0.1285 -0.9915 0.0208
vn 0.1456 -0.9889 0.0284
vn 0.0690 -0.9933 -0.0926
vn 0.1082 -0.9941 0.0048
vn 0.1546 -0.9873 -0.0372
vn 0.3139 -0.9478 -0.0556
vn -0.2381 -0.9570 -0.1655
vn -0.1246 -0.9897 -0.0703
vn -0.0919 -0.9952 -0.0338
vn -0.0555 -0.9972 -0.0494
vn -0.0213 -0.9993 -0.0319
vn 0.0131 -0.9991 -0.0407
vn 0.0491 -0.9920 -0.1159
vn -0.0380 -0.9979 0.0523
vn 0.0044 -0.9993 -0.0384
vn 0.0392 -0.9912 -0.1266
vn -0.1359 -0.9866 0.0899
vn -0.1586 -0.9828 0.0943
vn -0.3532 -0.9129 0.2044
vn -0.6194 -0.7807 0.0827
vn -0.6240 -0.7810 0.0267
vn -0.4465 -0.8931 0.0555
vn -0.2746 -0.9258 -0.2599
vn -0.1163 -0.9927 0.0322
vn -0.0729 -0.9956 -0.0588
vn -0.1379 -0.9885 0.0622
vn -0.0197 -0.9991 -0.0383
vn -0.0595 -0.9920 -0.1115
vn 0.0244 -0.9989 -0.0401
vn -0.1861 -0.9783 0.0907
vn -0.1509 -0.9854 0.0793
vn -0.2508 -0.9396 0.2330
vn -0.0052 -0.9990 -0.0436
vn -0.0412 -0.9906 -0.1303
vn 0.0402 -0.9977 0.0549
vn -0.7467 0.6652 0.0013
vn -0.0942 0.5799 0.8092
vn 0.8492 0.5269 0.0360
vn 0.1153 0.8550 -0.5056
vn -0.4601 0.8339 -0.3049
vn -0.4451 0.7390 -0.5057
vn -0.6228 0.4516 -0.6389
vn -0.8492 0.2698 -0.4539
vn -0.9598 0.1467 -0.2393
vn -0.9167 0.0503 -0.3965
vn -0.9869 0.1613 0.0006
vn -0.9889 0.1471 0.0200
vn -0.8545 0.4409 0.2746
vn -0.8621 0.4756 0.1748
vn -0.7974 0.4740 0.3734
vn -0.8194 0.4479 0.3577
vn -0.5439 0.6263 0.5585
vn -0.4837 0.7715 0.4132
vn -0.6527 0.7544 0.0696
vn -0.6497 0.7587 0.0473
vn 0.6919 0.7206 0.0443
vn 0.6154 0.7880 0.0156
vn 0.6229 0.7730 -0.1203
vn 0.7520 0.5158 0.4105
vn 0.6303 0.5468 0.5510
vn 0.7425 0.5081 0.4365
vn 0.8251 0.4446 0.3486
vn 0.8993 0.4187 0.1258
vn 0.8271 0.4586 0.3249
vn 0.9853 0.1622 -0.0530
vn 0.9824 0.1764 -0.0622
vn 0.8712 0.1179 -0.4765
vn 0.7461 0.2726 -0.6074
vn 0.9770 0.1799 -0.1144
vn 0.8269 0.2875 -0.4833
vn 0.7481 0.4981 -0.4384
vn -0.0960 0.5478 0.8311
vn 0.1436 0.6378 -0.7567
usemtl None
s off
f 54/1/1 36/2/1 4/3/1 38/4/1
f 37/5/2 2/6/2 21/7/2 39/8/2
f 39/8/3 21/7/3 22/9/3 40/10/3
f 40/10/4 22/9/4 23/11/4 41/12/4
f 41/12/5 23/11/5 24/13/5 42/14/5
f 42/14/6 24/13/6 25/15/6 43/16/6
f 43/16/7 25/15/7 26/17/7 44/18/7
f 44/18/8 26/17/8 27/19/8 61/20/8
f 61/20/9 27/19/9 28/21/9 62/22/9
f 62/22/10 28/21/10 29/23/10
f 47/24/11 29/23/11 30/25/11 57/26/11
f 57/26/12 30/25/12 31/27/12 58/28/12
f 58/28/13 31/27/13 32/29/13
f 50/30/14 32/29/14 33/31/14 51/32/14
f 51/32/15 33/31/15 34/33/15 52/34/15
f 52/34/16 34/33/16 35/35/16 53/36/16
f 53/36/17 35/35/17 36/2/17 54/1/17
f 6/37/18 53/36/18 54/1/18 5/38/18
f 7/39/19 52/34/19 53/36/19 6/37/19
f 8/40/20 51/32/20 52/34/20 7/39/20
f 9/41/21 50/30/21 51/32/21 8/40/21
f 56/42/22 49/43/22 50/30/22 9/41/22
f 55/44/23 48/45/23 49/43/23 56/42/23
f 47/24/24 48/45/24 55/44/24
f 60/46/25 46/47/25 47/24/25 12/48/25
f 59/49/26 45/50/26 46/47/26 60/46/26
f 44/18/27 45/50/27 59/49/27
f 16/51/28 43/16/28 44/18/28 15/52/28
f 17/53/29 42/14/29 43/16/29 16/51/29
f 18/54/30 41/12/30 42/14/30 17/53/30
f 19/55/31 40/10/31 41/12/31 18/54/31
f 20/56/32 39/8/32 40/10/32 19/55/32
f 1/57/33 37/5/33 39/8/33 20/56/33
f 5/38/34 54/1/34 38/4/34 3/58/34
f 11/59/35 55/44/35 56/42/35 10/60/35
f 12/48/36 47/24/36 55/44/36 11/59/36
f 10/60/37 56/42/37 9/41/37
f 48/45/38 57/26/38 58/28/38 49/43/38
f 48/45/39 47/24/39 57/26/39
f 49/43/40 58/28/40 32/29/40 50/30/40
f 14/61/41 59/49/41 60/46/41 13/62/41
f 15/52/42 44/18/42 59/49/42 14/61/42
f 13/62/43 60/46/43 12/48/43
f 45/50/44 61/20/44 62/22/44 46/47/44
f 45/50/45 44/18/45 61/20/45
f 46/47/46 62/22/46 29/23/46 47/24/46
f 116/63/47 100/64/47 66/65/47 98/66/47
f 99/67/48 101/68/48 83/69/48 64/70/48
f 101/68/49 102/71/49 84/72/49 83/69/49
f 102/71/50 103/73/50 85/74/50 84/72/50
f 103/73/51 104/75/51 86/76/51 85/74/51
f 104/75/52 105/77/52 87/78/52 86/76/52
f 105/77/53 106/79/53 88/80/53 87/78/53
f 106/79/54 123/81/54 89/82/54 88/80/54
f 123/81/55 124/83/55 90/84/55 89/82/55
f 124/83/56 91/85/56 90/84/56
f 109/86/57 119/87/57 92/88/57 91/85/57
f 119/87/58 120/89/58 93/90/58 92/88/58
f 120/89/59 94/91/59 93/90/59
f 112/92/60 113/93/60 95/94/60 94/91/60
f 113/93/61 114/95/61 96/96/61 95/94/61
f 114/95/62 115/97/62 97/98/62 96/96/62
f 115/97/63 116/63/63 98/66/63 97/98/63
f 68/99/64 67/100/64 116/63/64 115/97/64
f 69/101/65 68/99/65 115/97/65 114/95/65
f 70/102/66 69/101/66 114/95/66 113/93/66
f 71/103/67 70/102/67 113/93/67 112/92/67
f 118/104/68 71/103/68 112/92/68 111/105/68
f 117/106/69 118/104/69 111/105/69 110/107/69
f 109/86/70 117/106/70 110/107/70
f 122/108/71 74/109/71 109/86/71 108/110/71
f 121/111/72 122/108/72 108/110/72 107/112/72
f 106/79/73 121/111/73 107/112/73
f 78/113/74 77/114/74 106/79/74 105/77/74
f 79/115/75 78/113/75 105/77/75 104/75/75
f 80/116/76 79/115/76 104/75/76 103/73/76
f 81/117/77 80/116/77 103/73/77 102/71/77
f 82/118/78 81/117/78 102/71/78 101/68/78
f 63/119/79 82/118/79 101/68/79 99/67/79
f 67/100/80 65/120/80 100/64/80 116/63/80
f 73/121/81 72/122/81 118/104/81 117/106/81
f 74/109/82 73/121/82 117/106/82 109/86/82
f 72/122/83 71/103/83 118/104/83
f 110/107/84 111/105/84 120/89/84 119/87/84
f 110/107/85 119/87/85 109/86/85
f 111/105/86 112/92/86 94/91/86 120/89/86
f 76/123/87 75/124/87 122/108/87 121/111/87
f 77/114/88 76/123/88 121/111/88 106/79/88
f 75/124/89 74/109/89 122/108/89
f 107/112/90 108/110/90 124/83/90 123/81/90
f 107/112/91 123/81/91 106/79/91
f 108/110/92 109/86/92 91/85/92 124/83/92
f 1/57/93 20/56/93 82/118/93 63/119/93
f 2/6/94 37/5/94 99/67/94 64/70/94
f 4/3/95 36/2/95 98/66/95 66/65/95
f 3/58/96 38/4/96 100/64/96 65/120/96
f 5/38/97 3/58/97 65/120/97 67/100/97
f 6/37/98 5/38/98 67/100/98 68/99/98
f 7/39/99 6/37/99 68/99/99 69/101/99
f 8/40/100 7/39/100 69/101/100 70/102/100
f 9/41/101 8/40/101 70/102/101 71/103/101
f 10/60/102 9/41/102 71/103/102 72/122/102
f 11/59/103 10/60/103 72/122/103 73/121/103
f 12/48/104 11/59/104 73/121/104 74/109/104
f 13/62/105 12/48/105 74/109/105 75/124/105
f 14/61/106 13/62/106 75/124/106 76/123/106
f 15/52/107 14/61/107 76/123/107 77/114/107
f 16/51/108 15/52/108 77/114/108 78/113/108
f 17/53/109 16/51/109 78/113/109 79/115/109
f 18/54/110 17/53/110 79/115/110 80/116/110
f 19/55/111 18/54/111 80/116/111 81/117/111
f 20/56/112 19/55/112 81/117/112 82/118/112
f 21/7/113 2/6/113 64/70/113 83/69/113
f 22/9/114 21/7/114 83/69/114 84/72/114
f 23/11/115 22/9/115 84/72/115 85/74/115
f 24/13/116 23/11/116 85/74/116 86/76/116
f 25/15/117 24/13/117 86/76/117 87/78/117
f 26/17/118 25/15/118 87/78/118 88/80/118
f 27/19/119 26/17/119 88/80/119 89/82/119
f 28/21/120 27/19/120 89/82/120 90/84/120
f 29/23/121 28/21/121 90/84/121 91/85/121
f 30/25/122 29/23/122 91/85/122 92/88/122
f 31/27/123 30/25/123 92/88/123 93/90/123
f 32/29/124 31/27/124 93/90/124 94/91/124
f 33/31/125 32/29/125 94/91/125 95/94/125
f 34/33/126 33/31/126 95/94/126 96/96/126
f 35/35/127 34/33/127 96/96/127 97/98/127
f 36/2/128 35/35/128 97/98/128 98/66/128
f 37/5/129 1/57/129 63/119/129 99/67/129
f 38/4/130 4/3/130 66/65/130 100/64/130
