# Blender v2.91.0 OBJ File: 'leaves.blend'
# www.blender.org
mtllib model_normalized.mtl
o Plane.001_Plane.003
v -0.032855 0.000000 -0.303317
v 0.077567 0.000000 -0.294347
v -0.029631 0.000000 0.293506
v -0.003168 0.000000 0.297711
v -0.028790 0.000000 0.269537
v -0.028790 0.000000 0.232113
v -0.029631 0.000000 0.187120
v -0.032995 0.000000 0.141286
v -0.050655 0.000000 0.114795
v -0.114150 0.000000 0.068120
v -0.155498 0.000000 0.029855
v -0.178626 0.000000 -0.006307
v -0.191240 0.000000 -0.038265
v -0.193343 0.000000 -0.073026
v -0.203855 0.000000 -0.118299
v -0.175822 0.000000 -0.167778
v -0.170916 0.000000 -0.199034
v -0.130970 0.000000 -0.226787
v -0.121158 0.000000 -0.250335
v 0.118775 0.000000 -0.266173
v 0.153256 0.000000 -0.222722
v 0.178485 0.000000 -0.210668
v 0.186054 0.000000 -0.174085
v 0.201192 0.000000 -0.123345
v 0.188577 0.000000 -0.080735
v 0.184372 0.000000 -0.031537
v 0.145687 0.000000 0.010933
v 0.109524 0.000000 0.043311
v 0.091864 0.000000 0.072325
v 0.024585 0.000000 0.111431
v -0.014942 0.000000 0.137923
v -0.014101 0.000000 0.186279
v -0.010737 0.000000 0.232113
v -0.009896 0.000000 0.268696
v 0.022356 0.000000 -0.298832
v -0.016399 0.000000 0.295608
v -0.001191 -0.014096 -0.245041
v 0.011143 -0.014096 -0.211542
v 0.003784 -0.014096 -0.187784
v 0.005116 -0.014096 -0.153864
v -0.001332 -0.014096 -0.105156
v -0.002383 -0.014096 -0.059813
v -0.003434 -0.014096 -0.017834
v -0.016469 -0.014096 0.028491
v -0.022987 -0.014096 0.053651
v -0.011143 -0.014096 0.087290
v -0.013035 -0.014096 0.130181
v -0.023968 -0.014096 0.156672
v -0.021866 -0.014096 0.203767
v -0.019763 -0.014096 0.249181
v -0.019343 -0.014096 0.286185
v -0.073606 -0.008829 -0.016357
v -0.128609 -0.004778 -0.059436
v 0.041642 -0.010713 -0.012012
v 0.115560 -0.005390 -0.063624
v -0.037927 -0.010743 -0.149465
v -0.066981 -0.008386 -0.184632
v -0.091912 -0.003874 -0.214888
v 0.060690 -0.009766 -0.152365
v 0.116531 -0.004999 -0.194844
v -0.033021 -0.001499 -0.304420
v 0.077720 -0.001518 -0.295360
v -0.031043 -0.000858 0.295008
v -0.001806 -0.001140 0.298448
v -0.030525 -0.000803 0.270089
v -0.030645 -0.000677 0.232212
v -0.031509 -0.000629 0.187332
v -0.034521 -0.001059 0.141626
v -0.051383 -0.001449 0.115587
v -0.114525 -0.001553 0.068734
v -0.155772 -0.001595 0.030078
v -0.178851 -0.001603 -0.006239
v -0.191442 -0.001606 -0.038239
v -0.193541 -0.001605 -0.072956
v -0.204044 -0.001606 -0.118329
v -0.176012 -0.001605 -0.167896
v -0.171112 -0.001604 -0.199196
v -0.131161 -0.001590 -0.227222
v -0.121390 -0.001595 -0.250634
v 0.119012 -0.001582 -0.266654
v 0.153427 -0.001585 -0.223229
v 0.178668 -0.001603 -0.210870
v 0.186244 -0.001606 -0.174152
v 0.201383 -0.001606 -0.123326
v 0.188778 -0.001605 -0.080638
v 0.184575 -0.001604 -0.031426
v 0.145920 -0.001591 0.011306
v 0.109798 -0.001588 0.043661
v 0.092208 -0.001587 0.072513
v 0.025278 -0.001341 0.112781
v -0.013412 -0.000470 0.139748
v -0.012281 -0.000732 0.186114
v -0.008932 -0.000754 0.231931
v -0.008221 -0.000919 0.268931
v 0.022399 -0.001516 -0.299879
v -0.016204 -0.001403 0.297092
v -0.001272 -0.015681 -0.245603
v 0.011211 -0.015705 -0.211741
v 0.003747 -0.015708 -0.187911
v 0.005132 -0.015709 -0.153867
v -0.001341 -0.015709 -0.105160
v -0.002382 -0.015709 -0.059792
v -0.003414 -0.015709 -0.017818
v -0.016464 -0.015707 0.028674
v -0.023079 -0.015698 0.053991
v -0.011087 -0.015670 0.087955
v -0.012843 -0.015370 0.132036
v -0.024252 -0.015618 0.157597
v -0.021941 -0.015708 0.203732
v -0.019770 -0.015709 0.249104
v -0.019456 -0.015626 0.287140
v -0.073809 -0.010435 -0.016348
v -0.128800 -0.006385 -0.059411
v 0.041850 -0.012315 -0.011833
v 0.115751 -0.006996 -0.063582
v -0.038122 -0.012348 -0.149542
v -0.067193 -0.009988 -0.184818
v -0.092140 -0.005472 -0.215145
v 0.060885 -0.011372 -0.152405
v 0.116740 -0.006603 -0.194963
vt 0.722551 0.618470
vt 0.724286 0.600896
vt 0.755450 0.586233
vt 0.755450 0.639352
vt 0.059052 0.678683
vt 0.123980 0.588248
vt 0.202195 0.890782
vt 0.118104 0.809050
vt 0.189554 0.596988
vt 0.304597 0.946702
vt 0.315179 0.840665
vt 0.347708 1.000000
vt 0.331345 0.679356
vt 0.413780 0.995311
vt 0.349324 0.500167
vt 0.509774 1.000000
vt 0.525785 0.756019
vt 0.566616 0.942843
vt 0.539719 0.545378
vt 0.641970 0.901840
vt 0.550538 0.379820
vt 0.674114 0.781883
vt 0.584974 0.348317
vt 0.692361 0.674342
vt 0.650314 0.355786
vt 0.722551 0.613542
vt 0.717672 0.324319
vt 0.722435 0.426721
vt 0.725251 0.495204
vt 0.722551 0.445658
vt 0.770324 0.477545
vt 0.788093 0.586233
vt 0.729100 0.402126
vt 0.776354 0.430122
vt 0.735456 0.360305
vt 0.783423 0.390482
vt 0.739953 0.323554
vt 0.788093 0.355029
vt 0.799009 0.209767
vt 0.804889 0.273454
vt 0.755487 0.305999
vt 0.750234 0.242833
vt 0.793062 0.132810
vt 0.745907 0.164577
vt 0.790353 0.053255
vt 0.741315 0.083459
vt 0.809778 0.000000
vt 0.722551 0.043437
vt 0.522402 0.119229
vt 0.657234 0.243114
vt 0.421913 0.043489
vt 0.341916 0.010384
vt 0.424496 0.270085
vt 0.488104 0.440322
vt 0.303337 0.164395
vt 0.421425 0.469189
vt 0.137718 0.019772
vt 0.243478 0.439657
vt 0.276866 0.546271
vt 0.159468 0.391615
vt 0.220942 0.564336
vt 0.087192 0.350417
vt 0.002516 0.302075
vt 0.000000 0.548316
vt 0.809778 0.313853
vt 0.792437 0.323554
vt 0.220560 0.016732
vt 0.278564 0.000000
vt 0.031263 0.263637
vt 0.038501 0.149868
vt 0.084279 0.118429
vt 0.722551 0.618470
vt 0.755450 0.639352
vt 0.755450 0.586233
vt 0.724286 0.600896
vt 0.059052 0.678683
vt 0.118104 0.809050
vt 0.202195 0.890782
vt 0.123980 0.588248
vt 0.304597 0.946702
vt 0.189554 0.596988
vt 0.347708 1.000000
vt 0.315179 0.840665
vt 0.413780 0.995311
vt 0.331345 0.679356
vt 0.509774 1.000000
vt 0.349324 0.500167
vt 0.566616 0.942843
vt 0.525785 0.756019
vt 0.641970 0.901840
vt 0.539719 0.545378
vt 0.674114 0.781883
vt 0.550538 0.379820
vt 0.692361 0.674342
vt 0.584974 0.348317
vt 0.722551 0.613542
vt 0.650314 0.355786
vt 0.722435 0.426721
vt 0.717672 0.324319
vt 0.725251 0.495204
vt 0.788093 0.586233
vt 0.770324 0.477545
vt 0.722551 0.445658
vt 0.776354 0.430122
vt 0.729100 0.402126
vt 0.783423 0.390482
vt 0.735456 0.360305
vt 0.788093 0.355029
vt 0.739953 0.323554
vt 0.799009 0.209767
vt 0.750234 0.242833
vt 0.755487 0.305999
vt 0.804889 0.273454
vt 0.793062 0.132810
vt 0.745907 0.164577
vt 0.790353 0.053255
vt 0.741315 0.083459
vt 0.809778 0.000000
vt 0.722551 0.043437
vt 0.522402 0.119229
vt 0.657234 0.243114
vt 0.421913 0.043489
vt 0.341916 0.010384
vt 0.424496 0.270085
vt 0.488104 0.440322
vt 0.303337 0.164395
vt 0.421425 0.469189
vt 0.137718 0.019772
vt 0.243478 0.439657
vt 0.276866 0.546271
vt 0.159468 0.391615
vt 0.220942 0.564336
vt 0.087192 0.350417
vt 0.002516 0.302075
vt 0.000000 0.548316
vt 0.792437 0.323554
vt 0.809778 0.313853
vt 0.220560 0.016732
vt 0.278564 0.000000
vt 0.031263 0.263637
vt 0.038501 0.149868
vt 0.084279 0.118429
vn -0.5905 0.7943 -0.1427
vn -0.0617 0.9814 0.1821
vn -0.0994 0.9932 0.0605
vn -0.0522 0.9926 0.1092
vn -0.0758 0.9970 0.0138
vn -0.0714 0.9974 0.0099
vn -0.0790 0.9966 -0.0234
vn -0.0754 0.9971 -0.0058
vn -0.0885 0.9941 -0.0627
vn -0.1021 0.9919 -0.0757
vn -0.1200 0.9927 -0.0111
vn -0.2387 0.9500 -0.2014
vn -0.6972 0.2704 -0.6640
vn -0.8438 0.5360 0.0260
vn -0.8301 0.5554 0.0497
vn -0.8283 0.5602 0.0142
vn 0.8390 0.5441 -0.0047
vn 0.8734 0.4862 -0.0284
vn 0.8828 0.4668 -0.0519
vn 0.5493 0.8327 -0.0697
vn 0.2315 0.9597 -0.1592
vn 0.1364 0.9855 -0.1009
vn 0.1006 0.9946 -0.0272
vn 0.0753 0.9969 0.0212
vn 0.0741 0.9973 0.0005
vn 0.0712 0.9974 -0.0050
vn 0.0787 0.9968 0.0104
vn 0.0793 0.9968 -0.0009
vn 0.0911 0.9944 0.0534
vn 0.1088 0.9940 -0.0097
vn 0.0675 0.9775 0.1998
vn 0.6773 0.6615 -0.3219
vn 0.0750 0.9972 -0.0031
vn 0.0831 0.9965 -0.0071
vn 0.0774 0.9968 -0.0180
vn -0.0739 0.9973 -0.0025
vn -0.0722 0.9972 -0.0203
vn -0.0715 0.9974 -0.0078
vn 0.0677 0.9932 0.0948
vn 0.0779 0.9969 0.0070
vn 0.0701 0.9971 0.0293
vn 0.0876 0.9955 0.0365
vn -0.0793 0.9968 0.0056
vn -0.0774 0.9969 -0.0102
vn -0.0892 0.9958 0.0203
vn 0.5693 -0.8088 0.1475
vn 0.0617 -0.9815 -0.1814
vn 0.0993 -0.9932 -0.0606
vn 0.0523 -0.9927 -0.1083
vn 0.0758 -0.9970 -0.0138
vn 0.0714 -0.9974 -0.0098
vn 0.0790 -0.9966 0.0234
vn 0.0754 -0.9971 0.0058
vn 0.0885 -0.9941 0.0627
vn 0.1019 -0.9919 0.0757
vn 0.1197 -0.9927 0.0111
vn 0.2380 -0.9505 0.2000
vn 0.6852 -0.3140 0.6572
vn 0.8082 -0.5880 -0.0323
vn 0.7970 -0.6020 -0.0484
vn 0.7956 -0.6058 -0.0115
vn -0.8081 -0.5891 0.0043
vn -0.8411 -0.5401 0.0280
vn -0.8550 -0.5161 0.0515
vn -0.5318 -0.8448 0.0585
vn -0.2296 -0.9602 0.1593
vn -0.1362 -0.9855 0.1008
vn -0.1005 -0.9946 0.0271
vn -0.0751 -0.9970 -0.0210
vn -0.0740 -0.9973 -0.0005
vn -0.0712 -0.9975 0.0050
vn -0.0785 -0.9969 -0.0104
vn -0.0792 -0.9969 0.0008
vn -0.0909 -0.9944 -0.0536
vn -0.1085 -0.9940 0.0094
vn -0.0677 -0.9776 -0.1992
vn -0.6497 -0.6852 0.3293
vn -0.0750 -0.9972 0.0031
vn -0.0831 -0.9965 0.0073
vn -0.0773 -0.9968 0.0179
vn 0.0739 -0.9973 0.0025
vn 0.0721 -0.9972 0.0203
vn 0.0715 -0.9974 0.0078
vn -0.0677 -0.9932 -0.0945
vn -0.0779 -0.9969 -0.0071
vn -0.0700 -0.9971 -0.0292
vn -0.0878 -0.9955 -0.0364
vn 0.0792 -0.9968 -0.0058
vn 0.0773 -0.9970 0.0103
vn 0.0891 -0.9958 -0.0204
vn -0.4711 0.4135 -0.7791
vn 0.0671 0.5637 -0.8233
vn 0.5843 0.8013 -0.1282
vn -0.0713 0.8090 0.5835
vn -0.4729 0.8810 -0.0121
vn -0.3808 0.9246 0.0021
vn -0.3297 0.9441 0.0068
vn -0.4406 0.8973 0.0265
vn -0.5934 0.7070 0.3848
vn -0.5108 0.5114 0.6911
vn -0.6463 0.3177 0.6938
vn -0.8298 0.1777 0.5290
vn -0.9221 0.1332 0.3634
vn -0.9904 0.1249 0.0599
vn -0.9672 0.1192 0.2242
vn -0.8635 0.1243 -0.4888
vn -0.9795 0.1308 -0.1535
vn -0.5588 0.2170 -0.8004
vn -0.9030 0.2067 -0.3766
vn 0.5143 0.4239 -0.7455
vn 0.7516 0.2825 -0.5960
vn 0.4227 0.2410 -0.8737
vn 0.9711 0.1295 -0.2006
vn 0.9517 0.1170 -0.2837
vn 0.9513 0.1263 0.2813
vn 0.9879 0.1298 0.0844
vn 0.7257 0.1988 0.6587
vn 0.6431 0.2659 0.7181
vn 0.8277 0.2465 0.5042
vn 0.4310 0.5345 0.7270
vn 0.2456 0.9060 0.3446
vn 0.3396 0.9405 -0.0045
vn 0.3770 0.9258 -0.0274
vn 0.4334 0.9012 -0.0071
vn 0.0665 0.5776 -0.8136
vn -0.1035 0.6175 0.7797
usemtl None
s off
f 51/1/1 36/2/1 4/3/1 34/4/1
f 35/5/2 37/6/2 20/7/2 2/8/2
f 37/6/3 38/9/3 21/10/3 20/7/3
f 21/10/4 60/11/4 22/12/4
f 60/11/5 59/13/5 23/14/5 22/12/5
f 59/13/6 41/15/6 24/16/6 23/14/6
f 24/16/7 55/17/7 25/18/7
f 55/17/8 54/19/8 26/20/8 25/18/8
f 54/19/9 44/21/9 27/22/9 26/20/9
f 44/21/10 45/23/10 28/24/10 27/22/10
f 45/23/11 46/25/11 29/26/11 28/24/11
f 46/25/12 47/27/12 30/28/12 29/26/12
f 47/29/13 48/30/13 31/31/13 30/32/13
f 48/30/14 49/33/14 32/34/14 31/31/14
f 49/33/15 50/35/15 33/36/15 32/34/15
f 50/35/16 51/37/16 34/38/16 33/36/16
f 6/39/17 5/40/17 51/41/17 50/42/17
f 7/43/18 6/39/18 50/42/18 49/44/18
f 8/45/19 7/43/19 49/44/19 48/46/19
f 9/47/20 8/45/20 48/46/20 47/48/20
f 10/49/21 9/50/21 47/27/21 46/25/21
f 11/51/22 10/49/22 46/25/22 45/23/22
f 12/52/23 11/51/23 45/23/23 44/21/23
f 52/53/24 44/21/24 43/54/24
f 53/55/25 52/53/25 43/54/25 42/56/25
f 15/57/26 53/55/26 42/56/26 41/15/26
f 56/58/27 41/15/27 40/59/27
f 57/60/28 56/58/28 40/59/28 39/61/28
f 58/62/29 57/60/29 39/61/29 38/9/29
f 19/63/30 58/62/30 38/9/30 37/6/30
f 1/64/31 19/63/31 37/6/31 35/5/31
f 5/40/32 3/65/32 36/66/32 51/41/32
f 14/67/33 13/68/33 52/53/33 53/55/33
f 13/68/34 12/52/34 44/21/34 52/53/34
f 14/67/35 53/55/35 15/57/35
f 42/56/36 43/54/36 54/19/36 55/17/36
f 43/54/37 44/21/37 54/19/37
f 41/15/38 42/56/38 55/17/38 24/16/38
f 18/69/39 17/70/39 57/60/39 58/62/39
f 17/70/40 16/71/40 56/58/40 57/60/40
f 16/71/41 15/57/41 41/15/41 56/58/41
f 18/69/42 58/62/42 19/63/42
f 39/61/43 40/59/43 59/13/43 60/11/43
f 40/59/44 41/15/44 59/13/44
f 38/9/45 39/61/45 60/11/45 21/10/45
f 111/72/46 94/73/46 64/74/46 96/75/46
f 95/76/47 62/77/47 80/78/47 97/79/47
f 97/79/48 80/78/48 81/80/48 98/81/48
f 81/80/49 82/82/49 120/83/49
f 120/83/50 82/82/50 83/84/50 119/85/50
f 119/85/51 83/84/51 84/86/51 101/87/51
f 84/86/52 85/88/52 115/89/52
f 115/89/53 85/88/53 86/90/53 114/91/53
f 114/91/54 86/90/54 87/92/54 104/93/54
f 104/93/55 87/92/55 88/94/55 105/95/55
f 105/95/56 88/94/56 89/96/56 106/97/56
f 106/97/57 89/96/57 90/98/57 107/99/57
f 107/100/58 90/101/58 91/102/58 108/103/58
f 108/103/59 91/102/59 92/104/59 109/105/59
f 109/105/60 92/104/60 93/106/60 110/107/60
f 110/107/61 93/106/61 94/108/61 111/109/61
f 66/110/62 110/111/62 111/112/62 65/113/62
f 67/114/63 109/115/63 110/111/63 66/110/63
f 68/116/64 108/117/64 109/115/64 67/114/64
f 69/118/65 107/119/65 108/117/65 68/116/65
f 70/120/66 106/97/66 107/99/66 69/121/66
f 71/122/67 105/95/67 106/97/67 70/120/67
f 72/123/68 104/93/68 105/95/68 71/122/68
f 112/124/69 103/125/69 104/93/69
f 113/126/70 102/127/70 103/125/70 112/124/70
f 75/128/71 101/87/71 102/127/71 113/126/71
f 116/129/72 100/130/72 101/87/72
f 117/131/73 99/132/73 100/130/73 116/129/73
f 118/133/74 98/81/74 99/132/74 117/131/74
f 79/134/75 97/79/75 98/81/75 118/133/75
f 61/135/76 95/76/76 97/79/76 79/134/76
f 65/113/77 111/112/77 96/136/77 63/137/77
f 74/138/78 113/126/78 112/124/78 73/139/78
f 73/139/79 112/124/79 104/93/79 72/123/79
f 74/138/80 75/128/80 113/126/80
f 102/127/81 115/89/81 114/91/81 103/125/81
f 103/125/82 114/91/82 104/93/82
f 101/87/83 84/86/83 115/89/83 102/127/83
f 78/140/84 118/133/84 117/131/84 77/141/84
f 77/141/85 117/131/85 116/129/85 76/142/85
f 76/142/86 116/129/86 101/87/86 75/128/86
f 78/140/87 79/134/87 118/133/87
f 99/132/88 120/83/88 119/85/88 100/130/88
f 100/130/89 119/85/89 101/87/89
f 98/81/90 81/80/90 120/83/90 99/132/90
f 1/64/91 61/135/91 79/134/91 19/63/91
f 2/8/92 62/77/92 95/76/92 35/5/92
f 4/3/93 64/74/93 94/73/93 34/4/93
f 3/65/94 63/137/94 96/136/94 36/66/94
f 5/40/95 65/113/95 63/137/95 3/65/95
f 6/39/96 66/110/96 65/113/96 5/40/96
f 7/43/97 67/114/97 66/110/97 6/39/97
f 8/45/98 68/116/98 67/114/98 7/43/98
f 9/47/99 69/118/99 68/116/99 8/45/99
f 10/49/100 70/120/100 69/121/100 9/50/100
f 11/51/101 71/122/101 70/120/101 10/49/101
f 12/52/102 72/123/102 71/122/102 11/51/102
f 13/68/103 73/139/103 72/123/103 12/52/103
f 14/67/104 74/138/104 73/139/104 13/68/104
f 15/57/105 75/128/105 74/138/105 14/67/105
f 16/71/106 76/142/106 75/128/106 15/57/106
f 17/70/107 77/141/107 76/142/107 16/71/107
f 18/69/108 78/140/108 77/141/108 17/70/108
f 19/63/109 79/134/109 78/140/109 18/69/109
f 20/7/110 80/78/110 62/77/110 2/8/110
f 21/10/111 81/80/111 80/78/111 20/7/111
f 22/12/112 82/82/112 81/80/112 21/10/112
f 23/14/113 83/84/113 82/82/113 22/12/113
f 24/16/114 84/86/114 83/84/114 23/14/114
f 25/18/115 85/88/115 84/86/115 24/16/115
f 26/20/116 86/90/116 85/88/116 25/18/116
f 27/22/117 87/92/117 86/90/117 26/20/117
f 28/24/118 88/94/118 87/92/118 27/22/118
f 29/26/119 89/96/119 88/94/119 28/24/119
f 30/28/120 90/98/120 89/96/120 29/26/120
f 31/31/121 91/102/121 90/101/121 30/32/121
f 32/34/122 92/104/122 91/102/122 31/31/122
f 33/36/123 93/106/123 92/104/123 32/34/123
f 34/38/124 94/108/124 93/106/124 33/36/124
f 35/5/125 95/76/125 61/135/125 1/64/125
f 36/2/126 96/75/126 64/74/126 4/3/126
