# Blender v2.91.0 OBJ File: 'leaves.blend'
# www.blender.org
mtllib model_normalized.mtl
o Plane.001_Plane.003
v -0.032855 0.000000 -0.303317
v 0.077567 0.000000 -0.294347
v -0.029631 0.000000 0.293506
v -0.003168 0.000000 0.297711
v -0.028790 0.000000 0.269537
v -0.028790 0.000000 0.232113
v -0.029631 0.000000 0.187120
v -0.032995 0.000000 0.141286
v -0.050655 0.000000 0.114795
v -0.114150 0.000000 0.068120
v -0.155498 0.000000 0.029855
v -0.178626 0.000000 -0.006307
v -0.191240 0.000000 -0.038265
v -0.193343 0.000000 -0.073026
v -0.203855 0.000000 -0.118299
v -0.175822 0.000000 -0.167778
v -0.170916 0.000000 -0.199034
v -0.130970 0.000000 -0.226787
v -0.121158 0.000000 -0.250335
v 0.118775 0.000000 -0.266173
v 0.153256 0.000000 -0.222722
v 0.178485 0.000000 -0.210668
v 0.186054 0.000000 -0.174085
v 0.201192 0.000000 -0.123345
v 0.188577 0.000000 -0.080735
v 0.184372 0.000000 -0.031537
v 0.145687 0.000000 0.010933
v 0.109524 0.000000 0.043311
v 0.091864 0.000000 0.072325
v 0.024585 0.000000 0.111431
v -0.014942 0.000000 0.137923
v -0.014101 0.000000 0.186279
v -0.010737 0.000000 0.232113
v -0.009896 0.000000 0.268696
v 0.022356 0.000000 -0.298832
v -0.016399 0.000000 0.295608
v -0.001191 -0.014096 -0.245041
v 0.011143 -0.014096 -0.211542
v 0.003784 -0.014096 -0.187784
v 0.005116 -0.014096 -0.153864
v -0.001332 -0.014096 -0.105156
v -0.002383 -0.014096 -0.059813
v -0.003434 -0.014096 -0.017834
v -0.016469 -0.014096 0.028491
v -0.022987 -0.014096 0.053651
v -0.011143 -0.014096 0.087290
v -0.013035 -0.014096 0.130181
v -0.023968 -0.014096 0.156672
v -0.021866 -0.014096 0.203767
v -0.019763 -0.014096 0.249181
v -0.019343 -0.014096 0.286185
v -0.073606 -0.008829 -0.016357
v -0.128609 -0.004778 -0.059436
v 0.041642 -0.010713 -0.012012
v 0.115560 -0.005390 -0.063624
v -0.037927 -0.010743 -0.149465
v -0.066981 -0.008386 -0.184632
v -0.091912 -0.003874 -0.214888
v 0.060690 -0.009766 -0.152365
v 0.116531 -0.004999 -0.194844
v -0.033021 -0.001499 -0.304420
v 0.077720 -0.001518 -0.295360
v -0.031043 -0.000858 0.295008
v -0.001806 -0.001140 0.298448
v -0.030525 -0.000803 0.270089
v -0.030645 -0.000677 0.232212
v -0.031509 -0.000629 0.187332
v -0.034521 -0.001059 0.141626
v -0.051383 -0.001449 0.115587
v -0.114525 -0.001553 0.068734
v -0.155772 -0.001595 0.030078
v -0.178851 -0.001603 -0.006239
v -0.191442 -0.001606 -0.038239
v -0.193541 -0.001605 -0.072956
v -0.204044 -0.001606 -0.118329
v -0.176012 -0.001605 -0.167896
v -0.171112 -0.001604 -0.199196
v -0.131161 -0.001590 -0.227222
v -0.121390 -0.001595 -0.250634
v 0.119012 -0.001582 -0.266654
v 0.153427 -0.001585 -0.223229
v 0.178668 -0.001603 -0.210870
v 0.186244 -0.001606 -0.174152
v 0.201383 -0.001606 -0.123326
v 0.188778 -0.001605 -0.080638
v 0.184575 -0.001604 -0.031426
v 0.145920 -0.001591 0.011306
v 0.109798 -0.001588 0.043661
v 0.092208 -0.001587 0.072513
v 0.025278 -0.001341 0.112781
v -0.013412 -0.000470 0.139748
v -0.012281 -0.000732 0.186114
v -0.008932 -0.000754 0.231931
v -0.008221 -0.000919 0.268931
v 0.022399 -0.001516 -0.299879
v -0.016204 -0.001403 0.297092
v -0.001272 -0.015681 -0.245603
v 0.011211 -0.015705 -0.211741
v 0.003747 -0.015708 -0.187911
v 0.005132 -0.015709 -0.153867
v -0.001341 -0.015709 -0.105160
v -0.002382 -0.015709 -0.059792
v -0.003414 -0.015709 -0.017818
v -0.016464 -0.015707 0.028674
v -0.023079 -0.015698 0.053991
v -0.011087 -0.015670 0.087955
v -0.012843 -0.015370 0.132036
v -0.024252 -0.015618 0.157597
v -0.021941 -0.015708 0.203732
v -0.019770 -0.015709 0.249104
v -0.019456 -0.015626 0.287140
v -0.073809 -0.010435 -0.016348
v -0.128800 -0.006385 -0.059411
v 0.041850 -0.012315 -0.011833
v 0.115751 -0.006996 -0.063582
v -0.038122 -0.012348 -0.149542
v -0.067193 -0.009988 -0.184818
v -0.092140 -0.005472 -0.215145
v 0.060885 -0.011372 -0.152405
v 0.116740 -0.006603 -0.194963
vt 0.500000 0.937500
vt 0.500000 1.000000
vt 1.000000 1.000000
vt 1.000000 0.937500
vt 0.500000 0.000000
vt 0.500000 0.062500
vt 1.000000 0.062500
vt 1.000000 0.000000
vt 0.500000 0.125000
vt 1.000000 0.125000
vt 0.822686 0.187500
vt 1.000000 0.187500
vt 0.653572 0.250000
vt 1.000000 0.250000
vt 0.500000 0.312500
vt 1.000000 0.312500
vt 0.808816 0.375000
vt 1.000000 0.375000
vt 0.620007 0.437500
vt 1.000000 0.437500
vt 0.500000 0.500000
vt 1.000000 0.500000
vt 0.500000 0.562500
vt 1.000000 0.562500
vt 0.500000 0.625000
vt 1.000000 0.625000
vt 0.500000 0.687500
vt 1.000000 0.687500
vt 0.500000 0.750000
vt 1.000000 0.750000
vt 0.500000 0.812500
vt 1.000000 0.812500
vt 0.500000 0.875000
vt 1.000000 0.875000
vt 0.000000 0.875000
vt 0.000000 0.937500
vt 0.000000 0.812500
vt 0.000000 0.750000
vt 0.000000 0.687500
vt 0.000000 0.625000
vt 0.000000 0.562500
vt 0.000000 0.500000
vt 0.313180 0.437500
vt 0.500000 0.437500
vt 0.169495 0.375000
vt 0.500000 0.375000
vt 0.000000 0.312500
vt 0.381056 0.250000
vt 0.500000 0.250000
vt 0.297468 0.187500
vt 0.500000 0.187500
vt 0.137416 0.125000
vt 0.000000 0.062500
vt 0.000000 0.000000
vt 0.000000 1.000000
vt 0.000000 0.375000
vt 0.000000 0.437500
vt 0.000000 0.125000
vt 0.000000 0.187500
vt 0.000000 0.250000
vt 0.500000 0.937500
vt 1.000000 0.937500
vt 1.000000 1.000000
vt 0.500000 1.000000
vt 0.500000 0.000000
vt 1.000000 0.000000
vt 1.000000 0.062500
vt 0.500000 0.062500
vt 1.000000 0.125000
vt 0.500000 0.125000
vt 1.000000 0.187500
vt 0.822686 0.187500
vt 1.000000 0.250000
vt 0.653572 0.250000
vt 1.000000 0.312500
vt 0.500000 0.312500
vt 1.000000 0.375000
vt 0.808816 0.375000
vt 1.000000 0.437500
vt 0.620007 0.437500
vt 1.000000 0.500000
vt 0.500000 0.500000
vt 1.000000 0.562500
vt 0.500000 0.562500
vt 1.000000 0.625000
vt 0.500000 0.625000
vt 1.000000 0.687500
vt 0.500000 0.687500
vt 1.000000 0.750000
vt 0.500000 0.750000
vt 1.000000 0.812500
vt 0.500000 0.812500
vt 1.000000 0.875000
vt 0.500000 0.875000
vt 0.000000 0.875000
vt 0.000000 0.937500
vt 0.000000 0.812500
vt 0.000000 0.750000
vt 0.000000 0.687500
vt 0.000000 0.625000
vt 0.000000 0.562500
vt 0.000000 0.500000
vt 0.313180 0.437500
vt 0.500000 0.437500
vt 0.169495 0.375000
vt 0.500000 0.375000
vt 0.000000 0.312500
vt 0.381056 0.250000
vt 0.500000 0.250000
vt 0.297468 0.187500
vt 0.500000 0.187500
vt 0.137416 0.125000
vt 0.000000 0.062500
vt 0.000000 0.000000
vt 0.000000 1.000000
vt 0.000000 0.375000
vt 0.000000 0.437500
vt 0.000000 0.125000
vt 0.000000 0.187500
vt 0.000000 0.250000
vn -0.5905 0.7943 -0.1427
vn -0.0617 0.9814 0.1821
vn -0.0994 0.9932 0.0605
vn -0.0522 0.9926 0.1092
vn -0.0758 0.9970 0.0138
vn -0.0714 0.9974 0.0099
vn -0.0790 0.9966 -0.0234
vn -0.0754 0.9971 -0.0058
vn -0.0885 0.9941 -0.0627
vn -0.1021 0.9919 -0.0757
vn -0.1200 0.9927 -0.0111
vn -0.2387 0.9500 -0.2014
vn -0.6972 0.2704 -0.6640
vn -0.8438 0.5360 0.0260
vn -0.8301 0.5554 0.0497
vn -0.8283 0.5602 0.0142
vn 0.8390 0.5441 -0.0047
vn 0.8734 0.4862 -0.0284
vn 0.8828 0.4668 -0.0519
vn 0.5493 0.8327 -0.0697
vn 0.2315 0.9597 -0.1592
vn 0.1364 0.9855 -0.1009
vn 0.1006 0.9946 -0.0272
vn 0.0753 0.9969 0.0212
vn 0.0741 0.9973 0.0005
vn 0.0712 0.9974 -0.0050
vn 0.0787 0.9968 0.0104
vn 0.0793 0.9968 -0.0009
vn 0.0911 0.9944 0.0534
vn 0.1088 0.9940 -0.0097
vn 0.0675 0.9775 0.1998
vn 0.6773 0.6615 -0.3219
vn 0.0750 0.9972 -0.0031
vn 0.0831 0.9965 -0.0071
vn 0.0774 0.9968 -0.0180
vn -0.0739 0.9973 -0.0025
vn -0.0722 0.9972 -0.0203
vn -0.0715 0.9974 -0.0078
vn 0.0677 0.9932 0.0948
vn 0.0779 0.9969 0.0070
vn 0.0701 0.9971 0.0293
vn 0.0876 0.9955 0.0365
vn -0.0793 0.9968 0.0056
vn -0.0774 0.9969 -0.0102
vn -0.0892 0.9958 0.0203
vn 0.5693 -0.8088 0.1475
vn 0.0617 -0.9815 -0.1814
vn 0.0993 -0.9932 -0.0606
vn 0.0523 -0.9927 -0.1083
vn 0.0758 -0.9970 -0.0138
vn 0.0714 -0.9974 -0.0098
vn 0.0790 -0.9966 0.0234
vn 0.0754 -0.9971 0.0058
vn 0.0885 -0.9941 0.0627
vn 0.1019 -0.9919 0.0757
vn 0.1197 -0.9927 0.0111
vn 0.2380 -0.9505 0.2000
vn 0.6852 -0.3140 0.6572
vn 0.8082 -0.5880 -0.0323
vn 0.7970 -0.6020 -0.0484
vn 0.7956 -0.6058 -0.0115
vn -0.8081 -0.5891 0.0043
vn -0.8411 -0.5401 0.0280
vn -0.8550 -0.5161 0.0515
vn -0.5318 -0.8448 0.0585
vn -0.2296 -0.9602 0.1593
vn -0.1362 -0.9855 0.1008
vn -0.1005 -0.9946 0.0271
vn -0.0751 -0.9970 -0.0210
vn -0.0740 -0.9973 -0.0005
vn -0.0712 -0.9975 0.0050
vn -0.0785 -0.9969 -0.0104
vn -0.0792 -0.9969 0.0008
vn -0.0909 -0.9944 -0.0536
vn -0.1085 -0.9940 0.0094
vn -0.0677 -0.9776 -0.1992
vn -0.6497 -0.6852 0.3293
vn -0.0750 -0.9972 0.0031
vn -0.0831 -0.9965 0.0073
vn -0.0773 -0.9968 0.0179
vn 0.0739 -0.9973 0.0025
vn 0.0721 -0.9972 0.0203
vn 0.0715 -0.9974 0.0078
vn -0.0677 -0.9932 -0.0945
vn -0.0779 -0.9969 -0.0071
vn -0.0700 -0.9971 -0.0292
vn -0.0878 -0.9955 -0.0364
vn 0.0792 -0.9968 -0.0058
vn 0.0773 -0.9970 0.0103
vn 0.0891 -0.9958 -0.0204
vn -0.4711 0.4135 -0.7791
vn 0.0671 0.5637 -0.8233
vn 0.5843 0.8013 -0.1282
vn -0.0713 0.8090 0.5835
vn -0.4729 0.8810 -0.0121
vn -0.3808 0.9246 0.0021
vn -0.3297 0.9441 0.0068
vn -0.4406 0.8973 0.0265
vn -0.5934 0.7070 0.3848
vn -0.5108 0.5114 0.6911
vn -0.6463 0.3177 0.6938
vn -0.8298 0.1777 0.5290
vn -0.9221 0.1332 0.3634
vn -0.9904 0.1249 0.0599
vn -0.9672 0.1192 0.2242
vn -0.8635 0.1243 -0.4888
vn -0.9795 0.1308 -0.1535
vn -0.5588 0.2170 -0.8004
vn -0.9030 0.2067 -0.3766
vn 0.5143 0.4239 -0.7455
vn 0.7516 0.2825 -0.5960
vn 0.4227 0.2410 -0.8737
vn 0.9711 0.1295 -0.2006
vn 0.9517 0.1170 -0.2837
vn 0.9513 0.1263 0.2813
vn 0.9879 0.1298 0.0844
vn 0.7257 0.1988 0.6587
vn 0.6431 0.2659 0.7181
vn 0.8277 0.2465 0.5042
vn 0.4310 0.5345 0.7270
vn 0.2456 0.9060 0.3446
vn 0.3396 0.9405 -0.0045
vn 0.3770 0.9258 -0.0274
vn 0.4334 0.9012 -0.0071
vn 0.0665 0.5776 -0.8136
vn -0.1035 0.6175 0.7797
usemtl None
s off
f 51/1/1 36/2/1 4/3/1 34/4/1
f 35/5/2 37/6/2 20/7/2 2/8/2
f 37/6/3 38/9/3 21/10/3 20/7/3
f 21/10/4 60/11/4 22/12/4
f 60/11/5 59/13/5 23/14/5 22/12/5
f 59/13/6 41/15/6 24/16/6 23/14/6
f 24/16/7 55/17/7 25/18/7
f 55/17/8 54/19/8 26/20/8 25/18/8
f 54/19/9 44/21/9 27/22/9 26/20/9
f 44/21/10 45/23/10 28/24/10 27/22/10
f 45/23/11 46/25/11 29/26/11 28/24/11
f 46/25/12 47/27/12 30/28/12 29/26/12
f 47/27/13 48/29/13 31/30/13 30/28/13
f 48/29/14 49/31/14 32/32/14 31/30/14
f 49/31/15 50/33/15 33/34/15 32/32/15
f 50/33/16 51/1/16 34/4/16 33/34/16
f 6/35/17 5/36/17 51/1/17 50/33/17
f 7/37/18 6/35/18 50/33/18 49/31/18
f 8/38/19 7/37/19 49/31/19 48/29/19
f 9/39/20 8/38/20 48/29/20 47/27/20
f 10/40/21 9/39/21 47/27/21 46/25/21
f 11/41/22 10/40/22 46/25/22 45/23/22
f 12/42/23 11/41/23 45/23/23 44/21/23
f 52/43/24 44/21/24 43/44/24
f 53/45/25 52/43/25 43/44/25 42/46/25
f 15/47/26 53/45/26 42/46/26 41/15/26
f 56/48/27 41/15/27 40/49/27
f 57/50/28 56/48/28 40/49/28 39/51/28
f 58/52/29 57/50/29 39/51/29 38/9/29
f 19/53/30 58/52/30 38/9/30 37/6/30
f 1/54/31 19/53/31 37/6/31 35/5/31
f 5/36/32 3/55/32 36/2/32 51/1/32
f 14/56/33 13/57/33 52/43/33 53/45/33
f 13/57/34 12/42/34 44/21/34 52/43/34
f 14/56/35 53/45/35 15/47/35
f 42/46/36 43/44/36 54/19/36 55/17/36
f 43/44/37 44/21/37 54/19/37
f 41/15/38 42/46/38 55/17/38 24/16/38
f 18/58/39 17/59/39 57/50/39 58/52/39
f 17/59/40 16/60/40 56/48/40 57/50/40
f 16/60/41 15/47/41 41/15/41 56/48/41
f 18/58/42 58/52/42 19/53/42
f 39/51/43 40/49/43 59/13/43 60/11/43
f 40/49/44 41/15/44 59/13/44
f 38/9/45 39/51/45 60/11/45 21/10/45
f 111/61/46 94/62/46 64/63/46 96/64/46
f 95/65/47 62/66/47 80/67/47 97/68/47
f 97/68/48 80/67/48 81/69/48 98/70/48
f 81/69/49 82/71/49 120/72/49
f 120/72/50 82/71/50 83/73/50 119/74/50
f 119/74/51 83/73/51 84/75/51 101/76/51
f 84/75/52 85/77/52 115/78/52
f 115/78/53 85/77/53 86/79/53 114/80/53
f 114/80/54 86/79/54 87/81/54 104/82/54
f 104/82/55 87/81/55 88/83/55 105/84/55
f 105/84/56 88/83/56 89/85/56 106/86/56
f 106/86/57 89/85/57 90/87/57 107/88/57
f 107/88/58 90/87/58 91/89/58 108/90/58
f 108/90/59 91/89/59 92/91/59 109/92/59
f 109/92/60 92/91/60 93/93/60 110/94/60
f 110/94/61 93/93/61 94/62/61 111/61/61
f 66/95/62 110/94/62 111/61/62 65/96/62
f 67/97/63 109/92/63 110/94/63 66/95/63
f 68/98/64 108/90/64 109/92/64 67/97/64
f 69/99/65 107/88/65 108/90/65 68/98/65
f 70/100/66 106/86/66 107/88/66 69/99/66
f 71/101/67 105/84/67 106/86/67 70/100/67
f 72/102/68 104/82/68 105/84/68 71/101/68
f 112/103/69 103/104/69 104/82/69
f 113/105/70 102/106/70 103/104/70 112/103/70
f 75/107/71 101/76/71 102/106/71 113/105/71
f 116/108/72 100/109/72 101/76/72
f 117/110/73 99/111/73 100/109/73 116/108/73
f 118/112/74 98/70/74 99/111/74 117/110/74
f 79/113/75 97/68/75 98/70/75 118/112/75
f 61/114/76 95/65/76 97/68/76 79/113/76
f 65/96/77 111/61/77 96/64/77 63/115/77
f 74/116/78 113/105/78 112/103/78 73/117/78
f 73/117/79 112/103/79 104/82/79 72/102/79
f 74/116/80 75/107/80 113/105/80
f 102/106/81 115/78/81 114/80/81 103/104/81
f 103/104/82 114/80/82 104/82/82
f 101/76/83 84/75/83 115/78/83 102/106/83
f 78/118/84 118/112/84 117/110/84 77/119/84
f 77/119/85 117/110/85 116/108/85 76/120/85
f 76/120/86 116/108/86 101/76/86 75/107/86
f 78/118/87 79/113/87 118/112/87
f 99/111/88 120/72/88 119/74/88 100/109/88
f 100/109/89 119/74/89 101/76/89
f 98/70/90 81/69/90 120/72/90 99/111/90
f 1/54/91 61/114/91 79/113/91 19/53/91
f 2/8/92 62/66/92 95/65/92 35/5/92
f 4/3/93 64/63/93 94/62/93 34/4/93
f 3/55/94 63/115/94 96/64/94 36/2/94
f 5/36/95 65/96/95 63/115/95 3/55/95
f 6/35/96 66/95/96 65/96/96 5/36/96
f 7/37/97 67/97/97 66/95/97 6/35/97
f 8/38/98 68/98/98 67/97/98 7/37/98
f 9/39/99 69/99/99 68/98/99 8/38/99
f 10/40/100 70/100/100 69/99/100 9/39/100
f 11/41/101 71/101/101 70/100/101 10/40/101
f 12/42/102 72/102/102 71/101/102 11/41/102
f 13/57/103 73/117/103 72/102/103 12/42/103
f 14/56/104 74/116/104 73/117/104 13/57/104
f 15/47/105 75/107/105 74/116/105 14/56/105
f 16/60/106 76/120/106 75/107/106 15/47/106
f 17/59/107 77/119/107 76/120/107 16/60/107
f 18/58/108 78/118/108 77/119/108 17/59/108
f 19/53/109 79/113/109 78/118/109 18/58/109
f 20/7/110 80/67/110 62/66/110 2/8/110
f 21/10/111 81/69/111 80/67/111 20/7/111
f 22/12/112 82/71/112 81/69/112 21/10/112
f 23/14/113 83/73/113 82/71/113 22/12/113
f 24/16/114 84/75/114 83/73/114 23/14/114
f 25/18/115 85/77/115 84/75/115 24/16/115
f 26/20/116 86/79/116 85/77/116 25/18/116
f 27/22/117 87/81/117 86/79/117 26/20/117
f 28/24/118 88/83/118 87/81/118 27/22/118
f 29/26/119 89/85/119 88/83/119 28/24/119
f 30/28/120 90/87/120 89/85/120 29/26/120
f 31/30/121 91/89/121 90/87/121 30/28/121
f 32/32/122 92/91/122 91/89/122 31/30/122
f 33/34/123 93/93/123 92/91/123 32/32/123
f 34/4/124 94/62/124 93/93/124 33/34/124
f 35/5/125 95/65/125 61/114/125 1/54/125
f 36/2/126 96/64/126 64/63/126 4/3/126
